<?xml version="1.0" encoding="utf-8"?>
<!-- Generator: Adobe Illustrator 22.0.1, SVG Export Plug-In . SVG Version: 6.00 Build 0)  -->
<svg version="1.1" id="圖層_1" xmlns="http://www.w3.org/2000/svg" xmlns:xlink="http://www.w3.org/1999/xlink" x="0px" y="0px"
	 viewBox="0 0 50 60" style="enable-background:new 0 0 50 60;" xml:space="preserve">
<style type="text/css">
	.st0{fill:#3E3A39;}
	.st1{fill:none;}
</style>
<g>
	<g>
		<path class="st0" d="M6.6,33.6c-1.8,0-3.1-1.3-3.1-2.9c0-1,0.6-2,1.6-2.4l19.3-10.2v-2.6c0.4-0.1,1.3-0.4,1.3-0.4
			c1.3-0.3,2.2-0.8,2.9-1.5c0.6-0.6,0.9-1.3,0.9-2c0-1.9-1.5-3.4-3.4-3.4c-1,0-1.9,0.4-2.6,1.1c-0.4,0.4-0.7,0.9-0.8,1.6l0,0v0.3
			c0,0.4-0.3,0.7-0.7,0.7c-0.4,0-0.7-0.3-0.7-0.7v-0.1c0.2-2.3,2.3-4.2,4.8-4.2c2.6,0,4.8,2.2,4.8,4.8c0,2.2-1.9,4-4.9,4.9h-0.2v0.2
			v1.4l19.3,10.2c1,0.5,1.6,1.4,1.6,2.4c0,1.5-1.4,2.9-3.1,2.9C43.4,33.6,6.6,33.6,6.6,33.6z M5.7,29.5c-0.5,0.3-0.9,0.7-0.9,1.3
			c0,0.8,0.8,1.4,1.8,1.4h36.7c1,0,1.8-0.7,1.8-1.4c0-0.5-0.4-1-0.9-1.3l0,0L25,19.3L5.7,29.5z"/>
	</g>
</g>
<g>
	<g>
		<path class="st0" d="M5.5,39.2v3.5h3.4v-3.5h2v9.1h-2v-3.9H5.5v3.9h-2v-9.1H5.5z"/>
		<path class="st0" d="M18.1,46.6c0,0.7,0,1.2,0.2,1.7h-1.8l-0.2-0.7l0,0c-0.5,0.5-1.2,0.7-2,0.7c-1.3,0-2.2-1-2.2-2
			c0-1.7,1.5-2.5,3.9-2.5v-0.2c0-0.3-0.2-0.8-1.2-0.8c-0.7,0-1.3,0.2-1.8,0.5l-0.3-1.3c0.5-0.3,1.3-0.5,2.5-0.5
			c2.2,0,2.9,1.3,2.9,2.9v2.4H18.1z M16.1,45.1c-1,0-1.8,0.2-1.8,1c0,0.5,0.3,0.8,0.8,0.8s1-0.3,1-0.7c0-0.2,0-0.2,0-0.3V45.1z"/>
		<path class="st0" d="M19.8,43.7c0-0.8,0-1.5,0-2h1.8l0.2,0.8l0,0c0.3-0.3,1-1,2-1c1.3,0,2.4,0.8,2.4,2.9v3.9h-2v-3.7
			c0-0.8-0.3-1.3-1-1.3c-0.5,0-0.8,0.3-1,0.8c0,0.2,0,0.3,0,0.5v3.7h-2v-4.5H19.8z"/>
		<path class="st0" d="M33.7,47.3c0,1.3-0.3,2.4-1,3c-0.7,0.7-1.7,0.8-2.7,0.8c-0.8,0-1.8-0.2-2.4-0.5l0.3-1.5
			c0.3,0.2,1.2,0.5,1.8,0.5c1,0,1.7-0.5,1.7-1.7v-0.5l0,0c-0.3,0.5-1,0.8-1.8,0.8c-1.7,0-2.9-1.3-2.9-3.2c0-2.2,1.3-3.5,3-3.5
			c0.8,0,1.5,0.3,1.8,1l0,0v-0.8h1.8c0,0.3,0,1,0,2v3.5H33.7z M31.7,44.2c0-0.2,0-0.3,0-0.3c-0.2-0.5-0.5-0.8-1.2-0.8
			c-0.7,0-1.3,0.7-1.3,1.8c0,1,0.5,1.7,1.3,1.7c0.5,0,1-0.3,1-0.8c0-0.2,0-0.3,0-0.5v-1H31.7z"/>
		<path class="st0" d="M37.1,45.6c0,0.8,0.8,1.2,1.8,1.2c0.7,0,1.3-0.2,1.8-0.3l0.3,1.3c-0.8,0.5-1.7,0.5-2.5,0.5
			c-2.2,0-3.5-1.3-3.5-3.4c0-1.7,1-3.5,3.4-3.5c2.2,0,2.9,1.7,2.9,3.4c0,0.3,0,0.7,0,0.8H37.1z M39.4,44.2c0-0.5-0.2-1.3-1.2-1.3
			c-0.8,0-1.2,0.8-1.3,1.3H39.4z"/>
		<path class="st0" d="M42.5,43.7c0-1,0-1.7,0-2.2h1.7v1.2l0,0c0.3-1,1.2-1.3,1.8-1.3c0.2,0,0.3,0,0.5,0v2c-0.2,0-0.3,0-0.5,0
			c-0.7,0-1.3,0.3-1.3,1c0,0.2,0,0.3,0,0.5v3.4h-2v-4.5H42.5z"/>
	</g>
</g>
<rect class="st1" width="50" height="60"/>
</svg>
