<?xml version="1.0" encoding="utf-8"?>
<!-- Generator: Adobe Illustrator 22.0.1, SVG Export Plug-In . SVG Version: 6.00 Build 0)  -->
<svg version="1.1" id="圖層_1" xmlns="http://www.w3.org/2000/svg" xmlns:xlink="http://www.w3.org/1999/xlink" x="0px" y="0px"
	 viewBox="0 0 50 60" style="enable-background:new 0 0 50 60;" xml:space="preserve">
<style type="text/css">
	.st0{fill:#3E3A39;}
	.st1{fill:none;}
</style>
<path class="st0" d="M37.2,34.9h-0.3l-0.5-1.4c-0.3-1-1.4-1.9-2.5-2.1v-9.8c0.8-0.5,1.3-1.3,1.3-2.3c0-1.5-1.2-2.7-2.7-2.7
	c-0.2,0-0.4,0-0.6,0.1l-8.6-8.6l-0.7-0.7L21.2,6c0,0-0.1-0.1-0.2-0.1S20.8,6,20.7,6l-2.6,2.6c-2.2-0.9-4.6-0.7-6.6,0.4
	c0,0-0.1,0-0.1,0.1c-0.6,0.3-1.1,0.7-1.6,1.2c-0.2,0.2-0.2,0.5,0,0.7l10,10c0.1,0.1,0.2,0.1,0.3,0.1s0.2,0,0.3-0.1
	c0.5-0.5,0.9-1,1.2-1.6c0,0,0-0.1,0.1-0.1c1.1-2,1.3-4.4,0.3-6.6l0.9-0.9l6.9,6.9c0,0.2-0.1,0.4-0.1,0.6c0,1,0.5,1.8,1.3,2.3v9.8
	h-4.7V30c0-0.3-0.2-0.5-0.5-0.5H24c-0.3,0-0.5,0.2-0.5,0.5v1.4h-1.4c-1.3,0-2.6,0.9-3,2.1l-0.5,1.4h-0.3c-0.3,0-0.5,0.2-0.5,0.5
	s0.2,0.5,0.5,0.5H19l0,0h17.5h0.6c0.3,0,0.5-0.2,0.5-0.5C37.7,35.1,37.5,34.9,37.2,34.9z M20.1,19.9l-9.3-9.3
	c0.2-0.2,0.5-0.4,0.8-0.6l9.1,9.1C20.5,19.4,20.3,19.6,20.1,19.9z M30.8,19.3c0-1,0.8-1.8,1.8-1.8s1.8,0.8,1.8,1.8s-0.8,1.8-1.8,1.8
	C31.6,21,30.8,20.3,30.8,19.3z M24.5,30.4h1v1h-1V30.4z"/>
<g>
	<g>
		<path class="st0" d="M9.7,39.8h2v7.4h3.5v1.7H9.7V39.8z"/>
		<path class="st0" d="M21.9,47.2c0,0.7,0,1.2,0.2,1.7h-1.8l-0.2-0.7l0,0c-0.5,0.5-1.2,0.8-1.8,0.8c-1.3,0-2.2-1-2.2-2
			c0-1.7,1.5-2.5,3.9-2.5v-0.2c0-0.3-0.2-0.8-1.2-0.8c-0.7,0-1.3,0.2-1.8,0.5l-0.3-1.3c0.5-0.3,1.3-0.5,2.5-0.5
			c2.2,0,2.9,1.3,2.9,2.9C21.9,45,21.9,47.2,21.9,47.2z M19.9,45.7c-1,0-1.8,0.2-1.8,1c0,0.5,0.3,0.8,0.8,0.8c0.5,0,1-0.3,1-0.7
			c0-0.2,0-0.2,0-0.3V45.7z"/>
		<path class="st0" d="M23.6,44.4c0-0.8,0-1.5,0-2h1.7l0.2,0.8l0,0c0.3-0.3,0.8-1,2-1c0.8,0,1.5,0.5,1.8,1.2l0,0
			c0.2-0.3,0.5-0.7,0.8-0.8c0.3-0.2,0.8-0.3,1.2-0.3c1.3,0,2.2,0.8,2.2,2.9v3.9h-2v-3.5c0-1-0.3-1.5-1-1.5c-0.5,0-0.8,0.3-1,0.7
			c0,0.2,0,0.3,0,0.5v3.9h-2v-3.7c0-0.8-0.3-1.3-1-1.3c-0.5,0-0.8,0.3-1,0.7c0,0.2,0,0.3,0,0.5v3.9h-2v-4.5H23.6z"/>
		<path class="st0" d="M35.2,44.5c0-0.8,0-1.7,0-2.2h1.8l0.2,0.8l0,0c0.5-0.7,1.2-1,2.2-1c1.5,0,2.7,1.2,2.7,3.4
			c0,2.4-1.5,3.5-3,3.5c-0.8,0-1.3-0.3-1.7-0.7l0,0v3.2h-2v-7.1H35.2z M37.2,46c0,0.2,0,0.3,0,0.5c0.2,0.5,0.7,1,1.2,1
			c0.8,0,1.3-0.7,1.3-1.8c0-1-0.5-1.8-1.3-1.8c-0.5,0-1,0.5-1.2,1c0,0.2,0,0.2,0,0.3V46z"/>
	</g>
</g>
<rect class="st1" width="50" height="60"/>
</svg>
