<?xml version="1.0" encoding="utf-8"?>
<!-- Generator: Adobe Illustrator 22.0.1, SVG Export Plug-In . SVG Version: 6.00 Build 0)  -->
<svg version="1.1" id="圖層_1" xmlns="http://www.w3.org/2000/svg" xmlns:xlink="http://www.w3.org/1999/xlink" x="0px" y="0px"
	 viewBox="0 0 50 60" style="enable-background:new 0 0 50 60;" xml:space="preserve">
<style type="text/css">
	.st0{fill:#3E3A39;}
	.st1{fill:none;}
</style>
<path class="st0" d="M34.7,36.4h-3.3c-0.3-1.5-1.5-2.5-3-2.5h-1.9v-4.6c8.1-0.8,14.3-7.6,14.3-15.8c0-0.3-0.3-0.6-0.6-0.6l0,0h-3.7
	C36.2,6.6,30.8,1.7,24.4,2c-5.9,0.3-10.6,5-10.9,10.9H9.7c-0.3,0-0.6,0.3-0.6,0.6l0,0c0,8.1,6.2,14.9,14.3,15.8v4.6h-1.8
	c-1.5,0-2.8,1.1-3,2.5h-3.3c-0.3,0-0.6,0.3-0.6,0.6s0.3,0.6,0.6,0.6h19.3c0.3,0,0.6-0.3,0.6-0.6C35.2,36.6,35,36.4,34.7,36.4
	L34.7,36.4z M25,25c6.1,0,11.2-4.8,11.5-10.9h1.2c-0.3,7-6.3,12.5-13.3,12.2c-6.6-0.3-11.9-5.6-12.2-12.2h1.3
	C13.8,20.2,18.9,25,25,25L25,25z M25,3.1c5.7,0,10.4,4.6,10.4,10.4S30.8,23.9,25,23.9s-10.4-4.7-10.4-10.4S19.3,3.1,25,3.1z
	 M24.1,28.2c-7.6-0.5-13.5-6.6-13.8-14.1h0.8c0.3,7.7,6.8,13.6,14.4,13.3c7.2-0.3,13-6.1,13.3-13.3h0.8c-0.3,7.5-6.2,13.6-13.8,14.1
	c-0.3,0-0.5,0.3-0.5,0.6v5.1h-0.8v-5.1C24.6,28.4,24.4,28.2,24.1,28.2z M21.7,35h6.6c0.9,0,1.6,0.6,1.9,1.4H19.8
	C20.1,35.6,20.8,35,21.7,35z M25,5.4c4.4,0,8,3.6,8,8s-3.6,8-8,8s-8-3.6-8-8S20.6,5.4,25,5.4 M25,4.3c-5.1,0-9.2,4.1-9.2,9.2
	s4.1,9.2,9.2,9.2s9.2-4.1,9.2-9.2S30.1,4.3,25,4.3L25,4.3z"/>
<g>
	<g>
		<path class="st0" d="M14.3,47.3c0-1,0-2.4,0-3.7l0,0c-0.3,1.2-0.7,2.5-1,3.5l-1.2,3.5h-1.5l-1-3.5c-0.3-1-0.7-2.4-0.8-3.5l0,0
			c0,1.2-0.2,2.7-0.2,3.7l-0.2,3.4H6.6l0.5-9.1h2.7l0.8,3c0.3,1,0.5,2.2,0.8,3.2l0,0c0.3-1,0.5-2.2,0.8-3.2l1-3H16l0.5,9.1h-2
			L14.3,47.3z"/>
		<path class="st0" d="M20.2,42.5c0,0.5-0.5,1-1.2,1c-0.7,0-1-0.5-1-1c0-0.7,0.3-1,1-1C19.9,41.3,20.2,41.8,20.2,42.5z M18.2,50.9
			v-6.7h2v6.7H18.2z"/>
		<path class="st0" d="M21.9,46.3c0-1,0-1.7,0-2.2h1.7v1.2l0,0c0.3-1,1.2-1.3,1.8-1.3c0.2,0,0.3,0,0.5,0v2c-0.2,0-0.3,0-0.5,0
			c-0.7,0-1.3,0.3-1.3,1c0,0.2,0,0.3,0,0.5v3.4h-2v-4.5H21.9z"/>
		<path class="st0" d="M26.9,46.3c0-1,0-1.7,0-2.2h1.7v1.2l0,0c0.3-1,1.2-1.3,1.8-1.3c0.2,0,0.3,0,0.5,0v2c-0.2,0-0.3,0-0.5,0
			c-0.7,0-1.3,0.3-1.3,1c0,0.2,0,0.3,0,0.5v3.4h-2v-4.5H26.9z"/>
		<path class="st0" d="M38.3,47.5c0,2.4-1.7,3.5-3.5,3.5c-1.8,0-3.4-1.3-3.4-3.4c0-2.2,1.3-3.5,3.5-3.5C37,44.2,38.3,45.5,38.3,47.5
			z M33.6,47.5c0,1.2,0.5,2,1.3,2s1.3-0.8,1.3-2c0-1-0.3-2-1.3-2C34,45.5,33.6,46.5,33.6,47.5z"/>
		<path class="st0" d="M39.7,46.3c0-1,0-1.7,0-2.2h1.7v1.2l0,0c0.3-1,1.2-1.3,1.8-1.3c0.2,0,0.3,0,0.5,0v2c-0.2,0-0.3,0-0.5,0
			c-0.7,0-1.3,0.3-1.3,1c0,0.2,0,0.3,0,0.5v3.4h-2v-4.5H39.7z"/>
	</g>
</g>
<rect class="st1" width="50" height="60"/>
</svg>
