<?xml version="1.0" encoding="utf-8"?>
<!-- Generator: Adobe Illustrator 22.0.1, SVG Export Plug-In . SVG Version: 6.00 Build 0)  -->
<svg version="1.1" id="圖層_1" xmlns="http://www.w3.org/2000/svg" xmlns:xlink="http://www.w3.org/1999/xlink" x="0px" y="0px"
	 viewBox="0 0 50 60" style="enable-background:new 0 0 50 60;" xml:space="preserve">
<style type="text/css">
	.st0{fill:none;}
	.st1{fill:#3E3A39;}
</style>
<rect class="st0" width="50" height="60"/>
<g>
	<path class="st1" d="M23.7,16.6c0-2.1-1.7-3.8-3.8-3.8s-3.8,1.7-3.8,3.8s1.7,3.8,3.8,3.8S23.7,18.7,23.7,16.6z M20.4,16
		c0-0.5,0.4-0.9,0.9-0.9s0.9,0.4,0.9,0.9v1.2c0,0.5-0.4,0.9-0.9,0.9s-0.9-0.4-0.9-0.9V16z M19.3,17.2c0,0.5-0.4,0.9-0.9,0.9
		s-0.9-0.4-0.9-0.9V16c0-0.5,0.4-0.9,0.9-0.9s0.9,0.4,0.9,0.9V17.2z"/>
	<path class="st1" d="M15.5,25.4h10.2c1.7-0.2,3-1.6,3-3.3v-11c0-1.8-1.5-3.3-3.3-3.3H14.3c-1.8,0-3.3,1.5-3.3,3.3v11.1
		c0,1.8,1.5,3.3,3.3,3.3L15.5,25.4L15.5,25.4z M19.9,11c3.1,0,5.6,2.5,5.6,5.6s-2.5,5.6-5.6,5.6s-5.6-2.5-5.6-5.6S16.7,11,19.9,11z"
		/>
	<g>
		<path class="st1" d="M38.3,14.6h-1.6V12c0-0.4-0.3-0.7-0.7-0.7s-0.7,0.3-0.7,0.7v2.6h-0.9V12c0-0.4-0.3-0.7-0.7-0.7
			c-0.4,0-0.7,0.3-0.7,0.7v2.6h-1.6c-0.4,0-0.7,0.3-0.7,0.7c0,0.4,0.3,0.7,0.7,0.7h7c0.4,0,0.7-0.3,0.7-0.7
			C39,14.9,38.7,14.6,38.3,14.6z"/>
		<path class="st1" d="M31.5,17.4v1.5l0,0c0,1.2,1,2.2,2.2,2.2H34l0,0h1.6l0,0h0.3c1.2,0,2.2-1,2.2-2.2v-1.5H31.5z"/>
	</g>
	<path class="st1" d="M33.9,20.5c0,0.1,0,0.2,0,0.2v5.6c0,3.4-2.8,6.2-6.2,6.2h-0.8c-3.4,0-6.2-2.8-6.2-6.2V24h-1.8v2.3
		c0,4.4,3.6,8,8,8h0.8c4.4,0,8-3.6,8-8v-5.6c0-0.1,0-0.2,0-0.2S33.9,20.5,33.9,20.5z"/>
</g>
<g>
	<g>
		<g>
			<path class="st1" d="M14.9,44.3c0,3-1.8,4.7-4.4,4.7c-2.7,0-4.2-2-4.2-4.5c0-2.7,1.7-4.7,4.4-4.7S14.9,41.8,14.9,44.3z M8.4,44.5
				c0,1.8,0.8,3,2.2,3s2.2-1.3,2.2-3s-0.8-3-2.2-3C9.2,41.3,8.4,42.6,8.4,44.5z"/>
			<path class="st1" d="M22.5,46.8c0,0.8,0,1.5,0,2.2h-1.8l-0.2-1l0,0c-0.2,0.3-0.7,1-1.8,1c-1.3,0-2.4-0.8-2.4-2.9v-3.9h2v3.5
				c0,1,0.3,1.5,1,1.5c0.5,0,0.8-0.3,1-0.7c0-0.2,0-0.3,0-0.5v-3.9h2v4.5H22.5z"/>
			<path class="st1" d="M26.3,40.6v1.7h1.5v1.5h-1.5v2.4c0,0.8,0.2,1.2,0.8,1.2c0.3,0,0.3,0,0.7,0v1.5C27.5,49,27,49,26.5,49
				c-0.7,0-1.2-0.2-1.5-0.5c-0.3-0.3-0.5-1-0.5-2v-2.7h-0.8v-1.5h0.8v-1.2L26.3,40.6z"/>
			<path class="st1" d="M29,39.5h2V49h-2V39.5z"/>
			<path class="st1" d="M34.2,46.3c0,0.8,0.8,1.2,1.8,1.2c0.7,0,1.3-0.2,1.8-0.3l0.3,1.3C37.6,49,36.8,49,35.9,49
				c-2.2,0-3.5-1.3-3.5-3.4c0-1.7,1-3.5,3.4-3.5c2.2,0,2.9,1.7,2.9,3.4c0,0.3,0,0.7,0,0.8H34.2z M36.8,45c0-0.5-0.2-1.3-1.2-1.3
				c-0.8,0-1.2,0.8-1.3,1.3H36.8z"/>
			<path class="st1" d="M42.1,40.6v1.7h1.5v1.5h-1.5v2.4c0,0.8,0.2,1.2,0.8,1.2c0.3,0,0.3,0,0.7,0v1.5C43.3,49,42.8,49,42.1,49
				c-0.7,0-1.2-0.2-1.5-0.5c-0.3-0.3-0.5-1-0.5-2v-2.7h-0.8v-1.5h0.8v-1.2L42.1,40.6z"/>
		</g>
	</g>
</g>
</svg>
