<?xml version="1.0" encoding="utf-8"?>
<!-- Generator: Adobe Illustrator 22.0.1, SVG Export Plug-In . SVG Version: 6.00 Build 0)  -->
<svg version="1.1" id="圖層_1" xmlns="http://www.w3.org/2000/svg" xmlns:xlink="http://www.w3.org/1999/xlink" x="0px" y="0px"
	 viewBox="0 0 50 60" style="enable-background:new 0 0 50 60;" xml:space="preserve">
<style type="text/css">
	.st0{fill:#3E3A39;}
	.st1{fill:none;}
</style>
<g>
	<path class="st0" d="M13,20.2l-1.1,3.6h25.9l-1.1-3.6h-2.2l0.6-7.9h-0.6c-1.8,0-1.8,0.7-3.2,0.7s-1.5-0.7-3.2-0.7
		c-1.8,0-1.8,0.7-3.2,0.7s-1.5-0.7-3.2-0.7C20,12.2,20,13,18.5,13c-1.5,0-1.5-0.7-3.2-0.7h-0.6l0.6,7.9H13z M36.6,22.7h-1.9l0.2-1.5
		h1.4L36.6,22.7z M13.4,22.7l0.4-1.5h1.5l0.1,1.5H13.4z M15.7,13.4c0.9,0.2,1.2,0.6,2.7,0.6c1.8,0,1.8-0.7,3.2-0.7s1.5,0.7,3.2,0.7
		c1.8,0,1.8-0.7,3.2-0.7c1.5,0,1.5,0.7,3.2,0.7c1.5,0,1.8-0.6,2.7-0.6l-0.6,9.3h-3.4V18H29v4.7h-3.5V18h-1.1v4.7H21V18H20v4.7h-3.5
		C16.2,19.1,16.2,20.1,15.7,13.4z"/>
	<path class="st0" d="M41,17.6h-6.9v1.1h6.1l2,7.5v1.2h-28h-1.1H7.7v-1.2l2-7.5h6.2v-1.1h-7l-2.4,8.4v8.1h31l0,0h5.7
		c0-1.6,0-6.2,0-8.1L41,17.6z M42.3,33h-5.8l0,0H7.7v-4.6h5.5h1.1h28.1V33H42.3z"/>
</g>
<g>
	<g>
		<path class="st0" d="M9,41.5H6.7v-1.7h6.9v1.7h-2.5v7.4H9V41.5z"/>
		<path class="st0" d="M16.4,40.5c0,0.5-0.5,1-1.2,1c-0.7,0-1-0.5-1-1c0-0.7,0.3-1,1-1C15.9,39.3,16.4,39.8,16.4,40.5z M14.2,48.9
			v-6.7h2v6.7H14.2z"/>
		<path class="st0" d="M17.9,47.1c0.3,0.2,1.2,0.5,1.7,0.5c0.7,0,0.8-0.2,0.8-0.5s-0.2-0.5-1-0.7c-1.3-0.5-1.8-1.2-1.8-2
			c0-1.2,1-2.2,2.7-2.2c0.8,0,1.5,0.2,1.8,0.3L22,43.9c-0.3-0.2-0.8-0.3-1.3-0.3c-0.5,0-0.8,0.2-0.8,0.5s0.3,0.5,1,0.7
			c1.2,0.5,1.8,1,1.8,2c0,1.2-1,2.2-2.9,2.2c-0.8,0-1.7-0.2-2.2-0.5L17.9,47.1z"/>
		<path class="st0" d="M23.8,47.1c0.3,0.2,1.2,0.5,1.7,0.5c0.7,0,0.8-0.2,0.8-0.5s-0.2-0.5-1-0.7c-1.3-0.5-1.8-1.2-1.8-2
			c0-1.2,1-2.2,2.7-2.2c0.8,0,1.5,0.2,1.8,0.3l-0.2,1.3c-0.3-0.2-0.8-0.3-1.3-0.3c-0.5,0-0.8,0.2-0.8,0.5s0.3,0.5,1,0.7
			c1.2,0.5,1.8,1,1.8,2c0,1.2-1,2.2-2.9,2.2c-0.8,0-1.7-0.2-2.2-0.5L23.8,47.1z"/>
		<path class="st0" d="M35.9,46.7c0,0.8,0,1.5,0,2.2h-1.8l-0.2-1l0,0c-0.3,0.3-0.8,1-2,1c-1.3,0-2.4-0.8-2.4-2.9v-3.9h2v3.5
			c0,1,0.3,1.5,1,1.5c0.5,0,0.8-0.3,1-0.7c0-0.2,0-0.3,0-0.5v-3.9h2.4V46.7z"/>
		<path class="st0" d="M39.1,46.2c0,0.8,0.8,1.2,1.8,1.2c0.7,0,1.3-0.2,1.8-0.3l0.3,1.3c-0.8,0.5-1.7,0.5-2.5,0.5
			c-2.2,0-3.5-1.3-3.5-3.4c0-1.7,1-3.5,3.4-3.5c2.2,0,2.9,1.7,2.9,3.4c0,0.3,0,0.7,0,0.8H39.1z M41.5,44.9c0-0.5-0.2-1.3-1.2-1.3
			c-0.8,0-1.2,0.8-1.3,1.3H41.5z"/>
	</g>
</g>
<rect class="st1" width="50" height="60"/>
</svg>
