<svg id="圖層_1" data-name="圖層 1" xmlns="http://www.w3.org/2000/svg" viewBox="0 0 159 175"><defs><style>.cls-1{fill:#8a5e3c;}.cls-2{fill:#040000;}</style></defs><title>工作區域 23</title><path d="M48.68,137.16a1.4,1.4,0,0,1-.54,1.21,2.93,2.93,0,0,1-1.79.41,7.33,7.33,0,0,1-.83,0l-.62-2a5.88,5.88,0,0,0,1.54,0,.47.47,0,0,0,.43-.49v-5.49c-.41.58-.89,1.18-1.45,1.83l-.6-1.28A25,25,0,0,1,43.54,139L42,137.37a21,21,0,0,0,1-6.71v-13.1h5.69Zm-1.81-12.61v-4.88h-2v2.82l.94-.72A24.39,24.39,0,0,1,46.87,124.55Zm0,3v-2l-1.18,1a16.71,16.71,0,0,0-.87-3v6.61A22.09,22.09,0,0,0,46.87,127.51Zm10.77.45-1,2.16a4.38,4.38,0,0,0-.34-.63v9h-2v-1.16H52.37v1.45h-2V130a3.37,3.37,0,0,1-.62.63L49,128.52a18.71,18.71,0,0,0,3.61-6.33l1.93.38a5,5,0,0,1-.24.76A44,44,0,0,1,57.64,128ZM53.1,117.64a23.16,23.16,0,0,1-2.59,5.49L49,121.65A16.41,16.41,0,0,0,51.28,117Zm2.71,11.09a40.78,40.78,0,0,0-2.4-3.47,23.63,23.63,0,0,1-2,3.47Zm-1.51,6.58v-4.5H52.37v4.5Zm3-13.54-1.81.89a26.28,26.28,0,0,0-1.78-4.87l1.8-.72A26.27,26.27,0,0,1,57.27,121.77Zm6.13,12.75a1.73,1.73,0,0,1-.42.9,2.18,2.18,0,0,1-1.77.56,3.33,3.33,0,0,1-.48,0l-.57-2.08a4,4,0,0,0,1,0c.21,0,.32-.18.32-.47V119.64H59.79v19.15H57.84V117.54H63.4Z"/><path d="M76.57,135.86c-3.07,1.19-5.72,2.09-8,2.71l-.64-2c.23,0,.54-.13.92-.24v-9.51h1.89v8.93c.14,0,.5-.14,1.09-.34V125.09H68.72v-7.25h7v7.25H73.94v3.22H76.2v2H73.94v4.35c.83-.25,1.71-.57,2.63-.95Zm-2.87-12.8v-3.24H70.88v3.24Zm8.07-1.93a6.84,6.84,0,0,1-.68,1.51,21.33,21.33,0,0,1-1.24,2.14,18.57,18.57,0,0,1-1.23,1.65A19.6,19.6,0,0,1,77.14,128l-1.24-1.72a14,14,0,0,0,3.63-5.15h-3V119.2h5.2Zm6.85,17.73H86.47v-1.2H80.16v1.2H78v-10H88.62Zm1.65-12.56-1,2a15.34,15.34,0,0,1-4.7-5.25v2.87a1.91,1.91,0,0,1-.67,1.71,4.77,4.77,0,0,1-2.41.44,8.07,8.07,0,0,1-1,0L80,126c.45,0,.9,0,1.38,0a1.55,1.55,0,0,0,.83-.14.6.6,0,0,0,.17-.49V117.3h2.15a7.39,7.39,0,0,0,1,3.83,14.88,14.88,0,0,0,2.15-2.57l1.63,1.18a13.71,13.71,0,0,1-2.77,3A15.61,15.61,0,0,0,90.27,126.3Zm-3.8,6.06v-1.58H80.16v1.58Zm0,3.31v-1.5H80.16v1.5Z"/><path d="M115.69,135.72h-9.63v3.07h-2.18v-3.07H94.15v-2h9.73V132H96.19v-9.1h7.69v-1.71H94.67v-2h9.21v-2h2.18v2h9.11v2h-9.11v1.71h7.62V132h-7.62v1.71h9.63Zm-11.81-9.14v-1.74H98.42v1.74Zm0,3.59v-1.86H98.42v1.86Zm7.6-3.59v-1.74h-5.42v1.74Zm0,3.59v-1.86h-5.42v1.86Z"/><path class="cls-1" d="M40.36,164.8a6.17,6.17,0,0,0,3.35,1A3.64,3.64,0,0,0,46.2,165a2.84,2.84,0,0,0,1-2.27c0-2-1.26-3-3.8-3q-.9,0-2.52.15v-8.26h8v2.07H43v4.12c.6,0,1-.05,1.34-.05A5.67,5.67,0,0,1,48.19,159a4.46,4.46,0,0,1,1.42,3.5,4.87,4.87,0,0,1-1.58,3.8,6.06,6.06,0,0,1-4.2,1.41,7.4,7.4,0,0,1-3.47-.66Z"/><path class="cls-1" d="M52.43,159.87a11.54,11.54,0,0,1,1.43-6.33A4.66,4.66,0,0,1,58,151.39q5.16,0,5.16,8.1a11,11,0,0,1-1.41,6.12,4.59,4.59,0,0,1-4.09,2.14,4.35,4.35,0,0,1-3.9-2A10.75,10.75,0,0,1,52.43,159.87Zm2.44-.09q0,6,2.94,6.05t2.89-6.17q0-6.34-2.83-6.34Q54.87,153.32,54.87,159.78Z"/><path class="cls-1" d="M65.43,159.87a11.55,11.55,0,0,1,1.42-6.33A4.67,4.67,0,0,1,71,151.39q5.16,0,5.16,8.1a11.13,11.13,0,0,1-1.41,6.12,4.59,4.59,0,0,1-4.09,2.14,4.34,4.34,0,0,1-3.9-2A10.75,10.75,0,0,1,65.43,159.87Zm2.44-.09q0,6,2.93,6.05t2.9-6.17c0-4.23-1-6.34-2.83-6.34S67.87,155.47,67.87,159.78Z"/><path class="cls-1" d="M95,168.49H93.09v-1.4h-9.9v1.4h-2V150.78H95Zm-1.94-10.73v-5.18h-9.9v5.18Zm0,7.51v-5.71h-9.9v5.71Z"/><path class="cls-1" d="M118,168.6H116.2v-.79H103v.81h-1.88v-18H118Zm-1.76-2.31V152.08H103v14.21Zm-1.61-2.86H108l.86.8a21.41,21.41,0,0,1-4.42,1.78l-.9-1.32a19.77,19.77,0,0,0,3.77-1.26h-2.87v-6.64h10.11Zm-.44-7.35H105v-3.27h9.19Zm-1.29,2.6V158h-6.64v.7Zm0,1.75v-.67h-6.64v.67Zm0,1.82v-.73h-6.64v.73Zm-.58-7.39V154h-5.54v.84Zm3.15,9.93-.9,1.26a24.62,24.62,0,0,0-4.17-1.08l.84-1.27A22.61,22.61,0,0,1,115.43,164.79Z"/><path class="cls-2" d="M112.46,44.51A24.27,24.27,0,0,0,103,46.4L96.09,32.93h9.7a1.91,1.91,0,0,1,0,3.82h-2.07a2,2,0,0,0,0,3.94h2.07a5.85,5.85,0,0,0,0-11.7H92.86a2,2,0,0,0-1.76,2.87l3.45,6.7H66.09l-2.87-5.63h4.54a2,2,0,0,0,0-3.94H54.82a2,2,0,1,0,0,3.94h4l3.83,7.51-4.5,7A24.48,24.48,0,1,0,71,71h5.78l-2.25,7.32H73.19a2,2,0,0,0,0,3.94h7.1a2,2,0,1,0,0-3.94H78.61l2.6-8.45L97.62,44.5l1.91,3.71a24.47,24.47,0,1,0,12.93-3.7Zm-47.77,0L76.18,67H70.94a24.42,24.42,0,0,0-9.51-17.45ZM67,67H50.16L59.28,52.9A20.5,20.5,0,0,1,67,67ZM46.54,89.53A20.54,20.54,0,1,1,56,50.75L44.89,67.92a2,2,0,0,0,1.65,3H67A20.56,20.56,0,0,1,46.54,89.53ZM79.6,65.05,68.1,42.5H94.21Zm32.86,24.48a20.53,20.53,0,0,1-11.12-37.8l9.36,18.16a2,2,0,0,0,3.51-1.8l-9.36-18.17a20.54,20.54,0,1,1,7.61,39.61Z"/></svg>