<svg id="圖層_1" data-name="圖層 1" xmlns="http://www.w3.org/2000/svg" viewBox="0 0 159 175"><defs><style>.cls-1{fill:#040000;}</style></defs><title>工作區域 20</title><path d="M47.55,148.4H45.4v-1.14H43.08v2H40.92V131.87h6.63Zm-2.15-3.22V134H43.08v11.16Zm16.46,5.2-1.51,1.72a17.27,17.27,0,0,1-5.76-8.28,15.44,15.44,0,0,1-6.91,8.07l-1.48-1.77a14.91,14.91,0,0,0,5.55-5.1q1.7-2.85,1.7-8.19h2.13a13.76,13.76,0,0,0-.08,1.4,14.52,14.52,0,0,0,1.65,6.57A15.66,15.66,0,0,0,61.86,150.38Zm-.19-16.93a29.71,29.71,0,0,1-2.55,8l-2-1a36.61,36.61,0,0,0,1.93-4.92H52.3a27.38,27.38,0,0,1-2.84,4.55l-1.56-1.69A25,25,0,0,0,52,130.1l2.2.43c-.24.85-.56,1.83-1,2.92Z"/><path d="M89.45,146.58Q88.87,152,86.84,152c-1,0-1.73-1-2.12-2.85a65.78,65.78,0,0,1-.6-11.15q0-2.73.09-5.31H71.73v9a19.83,19.83,0,0,1-2.47,10.37l-1.76-1.44c1.38-2.06,2.08-4.9,2.08-8.51V130.62H86.46c-.16,3.34-.23,6.65-.23,9.95a49.92,49.92,0,0,0,.29,6.79,6.93,6.93,0,0,0,.38,1.77c.13,0,.29-.44.49-1.34a12.55,12.55,0,0,0,.3-2.42ZM84.55,151l-1.91,1a5.59,5.59,0,0,0-.59-1.49q-5.1.67-10.07,1.11l-.49-2q3.3-.18,5.52-.45v-3.57H73.17v-7.37H77v-1.72H72.6v-2H83.39v2h-4.3v1.72h3.78v7.37H79.09v3.33c.62-.1,1.29-.18,2-.26a8.87,8.87,0,0,0-.79-1.43l1.8-.86A20.41,20.41,0,0,1,84.55,151ZM77,143.59v-3.48H75.19v3.48Zm3.83,0v-3.48H79.09v3.48Z"/><path d="M101.54,140.58l-1.28,1.21a16.31,16.31,0,0,0-.94-1.89v12H97.24V141a20,20,0,0,1-1.77,4.74l-1-2.6a27.11,27.11,0,0,0,2.34-6.66h-2.1v-2.08h2.5v-4.21h2.08v4.21H101v2.08H99.32v.39A20.63,20.63,0,0,1,101.54,140.58Zm15,7.17q-.66,4.32-2.7,4.32c-1,0-2-.86-3.27-2.59a25.57,25.57,0,0,1-4.88,2.55l-1.2-1.86a20.16,20.16,0,0,0,5-2.55,16.64,16.64,0,0,1-1.16-3.73h-3.54l0,.59a26.5,26.5,0,0,1,3.12,2.38l-1.34,1.73a14.3,14.3,0,0,0-2-1.8,11.49,11.49,0,0,1-2.79,5.34L100,150.92a9.59,9.59,0,0,0,2.73-7h-2.1v-2H108c-.35-2.84-.57-6.74-.69-11.68h2.06a104,104,0,0,0,.68,11.68h1.47a1.87,1.87,0,0,0-.4-.76l2.29-.47a13.72,13.72,0,0,1,.68,1.23h2.15v2h-5.76a9.84,9.84,0,0,0,.69,2.36,11.9,11.9,0,0,0,1.72-2.08l1.89,1a15.36,15.36,0,0,1-2.62,3q1.11,1.53,1.47,1.53.68,0,.93-3.09Zm-9.06-6.88-1.56.4a6.27,6.27,0,0,0-.23-1.32c-1.36.23-2.61.41-3.75.52l-.52-1.75a24.41,24.41,0,0,0,2-2.65c-.75.07-1.35.1-1.8.1l-.4-1.58a13.38,13.38,0,0,0,2-4.41l1.89.6a19.25,19.25,0,0,1-1.77,3.46,4.62,4.62,0,0,0,1.18-.1c.16-.27.44-.81.82-1.63l1.68.89a25,25,0,0,1-3.54,5.17,13.1,13.1,0,0,0,1.74-.2,3.74,3.74,0,0,0-.32-1l1.48-.52A22,22,0,0,1,107.51,140.87Zm8.81-.12-1.51.49-.24-1.39c-1.45.21-2.73.37-3.87.5l-.57-1.73a15.63,15.63,0,0,0,2-2.5q-.94.15-1.86.24l-.31-1.77a18.25,18.25,0,0,0,2.27-4.39l1.84.68a20.55,20.55,0,0,1-2.06,3.63,8.48,8.48,0,0,0,1.28-.17c.41-.67.72-1.24,1-1.69l1.75.68a27.76,27.76,0,0,1-3.53,5.15c.35,0,.88-.08,1.61-.19a4.66,4.66,0,0,0-.31-.89l1.51-.48A17.68,17.68,0,0,1,116.32,140.75Z"/><path class="cls-1" d="M76.25,107.5h6.51a1.64,1.64,0,0,0,1.61-1.9L81.43,88H86a1.62,1.62,0,0,0,1.63-1.62V79.81A1.63,1.63,0,0,0,86,78.18H79.8l-.93-5.58,28.29-3.69,5.88,1a1.52,1.52,0,0,0,.66.15l.11,0,12.66,2.11.26,0a1.63,1.63,0,0,0,1.63-1.63V38a1.63,1.63,0,0,0-1.89-1.61l-19.31,3.22L55.09,32.77a21.65,21.65,0,1,0,0,42.93l4.61-.6,5.17,31a1.63,1.63,0,0,0,1.61,1.36H73m-18.32-35a18.39,18.39,0,1,1,0-36.47l50.89,6.64V65.83Zm29.72,9V84.7H80.88l-.54-3.26Zm-3.55,22.8h-13L62.93,74.68,75.64,73ZM125.1,68.6,115.33,67V53.75a1.63,1.63,0,0,0-3.25,0V66.43l-3.26-.55V42.58l16.28-2.71Z"/></svg>