<svg id="圖層_1" data-name="圖層 1" xmlns="http://www.w3.org/2000/svg" viewBox="0 0 159 175"><defs><style>.cls-1{fill:#040000;}</style></defs><title>工作區域 21</title><path d="M39.17,131a21.89,21.89,0,0,1-6.61,5.88l-1.06-2.13A17.56,17.56,0,0,0,37,130Zm.52,4.58a38.22,38.22,0,0,1-2.45,3.66v12.59h-2.3v-10a15.43,15.43,0,0,1-2.47,2.06l-1-2.2a20.82,20.82,0,0,0,6.06-7Zm13.53,3.78H49.89v10c0,1.64-.9,2.46-2.68,2.46-1.15,0-2.27,0-3.36-.07L43,149.53q1,0,3.84,0a.7.7,0,0,0,.46-.2.65.65,0,0,0,.23-.49v-9.51H39.49v-2.18H53.22Zm-.61-6.26H40.16V131H52.61Z"/><path d="M78.24,138.86l-1.14,1.86a54.83,54.83,0,0,0-8.74-4.45v3.25h4.83v2.07a24.18,24.18,0,0,1-4.55,2.49v.33H78v2.13H68.64v2.8c0,1.59-.73,2.39-2.18,2.39H62.67l-.69-2.2c1.19.05,2.16.07,2.91.07a3.77,3.77,0,0,0,1.28-.11.38.38,0,0,0,.2-.33v-2.62h-10v-2.13h10V143a25.27,25.27,0,0,0,3-1.36H61.18v-2.07h4.93v-4.44a25.22,25.22,0,0,1-8.68,6l-1.16-1.88a26.32,26.32,0,0,0,7.89-4.93H56.53v-2.08h9.58v-2h2.25v2h9.58v2.08H68.78A55.73,55.73,0,0,1,78.24,138.86Z"/><path d="M102.76,142.8H99.89v6.45a2.19,2.19,0,0,1-.84,2,7,7,0,0,1-3.37.54c-.44,0-.89,0-1.36,0l-.64-1.89,2.3,0c.63,0,1,0,1.21,0a.61.61,0,0,0,.45-.33,1.21,1.21,0,0,0,.18-.64v-6.06H81.18v-2h21.58Zm-.62-6.82H100v-2.36H83.83V136H81.67v-4.37h9.07a5.39,5.39,0,0,0-.6-1.28l2.44-.47c.38.91.6,1.5.68,1.75h8.88Zm-2.08,3.28-1.13,1.42a40.84,40.84,0,0,0-7.08-2.88c-1.41,1.35-3.94,2.24-7.58,2.65l-.86-1.95c3.34-.37,5.47-.87,6.41-1.49h-5v-1.86H91a3.09,3.09,0,0,0,.23-1h2.24c-.08.43-.15.78-.21,1h5.91V137H94.57Q98.25,138.38,100.06,139.26Zm-5.45,10.05h-11v-5.42h11Zm-2.07-1.93v-1.56H85.76v1.56Z"/><path d="M116.31,135.32h-5.78c0,1,0,2,0,3h4.7c0,2.86-.05,5.43-.15,7.74a24.15,24.15,0,0,1-.4,4.25,1.91,1.91,0,0,1-.87,1.13,3.71,3.71,0,0,1-1.83.35c-.45,0-.9,0-1.38-.06l-.57-2.12c.79,0,1.41.05,1.86.05s.83-.37.9-1.1.16-3.44.24-8.11h-2.62q-.3,7.53-3.19,11.42l-1.46-2a13.72,13.72,0,0,0,2-4.85,47.3,47.3,0,0,0,.64-9.71h-2.46v-2.07h4.44c-.33-1.08-.66-2-1-2.8l2.2-.42a25.8,25.8,0,0,1,1.06,3.22h3.68ZM127.6,150.2,126.37,152a17.6,17.6,0,0,1-5.1-3.76,20.4,20.4,0,0,1-4.9,3.69l-1.29-1.84a15.83,15.83,0,0,0,4.85-3.56,18.21,18.21,0,0,1-2.13-5.12l2-.79a18.12,18.12,0,0,0,1.49,4,21,21,0,0,0,2.2-8.65h-3.59a25.79,25.79,0,0,1-2.82,6.11l-1.56-1.56a29.94,29.94,0,0,0,3.62-10.62l2.1.52c-.16.93-.41,2.06-.75,3.4h6.86V136h-1.74q-.57,7.08-3,10.53A15.68,15.68,0,0,0,127.6,150.2Z"/><path class="cls-1" d="M100.56,75.57H58.44a1.51,1.51,0,0,0-1.51,1.5v24.07a1.52,1.52,0,0,0,1.51,1.51h42.12a1.52,1.52,0,0,0,1.51-1.51V77.07A1.51,1.51,0,0,0,100.56,75.57Zm-1.58,3a13.56,13.56,0,0,1-13.46,12H81v-1.5a1.5,1.5,0,1,0-3,0v1.5H73.48A13.55,13.55,0,0,1,60,78.58Zm.08,21.06H59.94V86.56a16.53,16.53,0,0,0,13.54,7.06H78v1.51a1.5,1.5,0,0,0,3,0V93.62h4.52a16.53,16.53,0,0,0,13.54-7.06Z"/><path class="cls-1" d="M115.61,72.56h-4.52V48.34a7.53,7.53,0,0,0,6-7.37v-9a7.52,7.52,0,0,0-7.52-7.52H91.39a7.54,7.54,0,0,0-7.38-6H75a7.53,7.53,0,0,0-7.37,6H49.41a7.52,7.52,0,0,0-7.52,7.52v9a7.53,7.53,0,0,0,6,7.37V72.56H43.39a7.53,7.53,0,0,0-7.52,7.52v12a7.54,7.54,0,0,0,7.52,7.52h4.52v1.5a7.53,7.53,0,0,0,7.52,7.53h48.14a7.53,7.53,0,0,0,7.52-7.53v-1.5h4.52a7.54,7.54,0,0,0,7.52-7.52v-12A7.53,7.53,0,0,0,115.61,72.56ZM114.1,31.94v9a4.51,4.51,0,0,1-4.51,4.51h-7.52v-18h7.52A4.51,4.51,0,0,1,114.1,31.94Zm-15-4.51v18h-3v-18Zm-3,33.09h3V62a1.51,1.51,0,0,1-3,0Zm0-3v-9h3v9ZM93,27.43v18H66v-18ZM75,21.41h9a4.52,4.52,0,0,1,4.26,3H70.73A4.52,4.52,0,0,1,75,21.41Zm-12,6v18h-3v-18Zm-3,33.09h3V62a1.51,1.51,0,0,1-3,0Zm0-3v-9h3v9ZM44.9,41v-9a4.51,4.51,0,0,1,4.51-4.51h7.52v18H49.41A4.51,4.51,0,0,1,44.9,41ZM43.39,96.63a4.51,4.51,0,0,1-4.51-4.51v-12a4.51,4.51,0,0,1,4.51-4.51h4.52V96.63Zm64.69,4.51a4.51,4.51,0,0,1-4.51,4.52H55.43a4.51,4.51,0,0,1-4.51-4.52V48.49h6v9h-1.5a1.51,1.51,0,1,0,0,3h1.5V62a4.52,4.52,0,0,0,9,0V60.52h1.5a1.51,1.51,0,1,0,0-3H66v-9H93v9h-1.5a1.51,1.51,0,1,0,0,3H93V62a4.52,4.52,0,0,0,9,0V60.52h1.5a1.51,1.51,0,1,0,0-3h-1.5v-9h6Zm12-9a4.51,4.51,0,0,1-4.51,4.51h-4.52V75.57h4.52a4.51,4.51,0,0,1,4.51,4.51Z"/></svg>