<svg id="圖層_1" data-name="圖層 1" xmlns="http://www.w3.org/2000/svg" viewBox="0 0 159 175"><defs><style>.cls-1{fill:#040000;}</style></defs><title>工作區域 19</title><path d="M35,143.49A47.23,47.23,0,0,1,31,152l-1.86-1.34a51.6,51.6,0,0,0,3.94-8.26Zm.16-3.9-1.41,1.8a29,29,0,0,0-4.53-3.34l1.24-1.88A31.8,31.8,0,0,1,35.16,139.59Zm.24-5.6-1.53,1.56a29.12,29.12,0,0,0-4.4-3.89L31,130A21.65,21.65,0,0,1,35.4,134ZM51,147.33,49.54,149a26.46,26.46,0,0,1-5.35-8.32V151.8H42V140.49A28.56,28.56,0,0,1,35.83,149l-1.61-1.65a26,26,0,0,0,7.2-10.3H35.48v-2.12H42v-4.65h2.15v4.65h6.56v2.12H44.86A25.62,25.62,0,0,0,51,147.33Z"/><path d="M60.77,143.56a39.05,39.05,0,0,1-3.83,8.38l-1.86-1.35a39,39,0,0,0,3.68-8Zm0-4.23-1.39,1.84A25.58,25.58,0,0,0,55.13,138l1.31-1.81A21.26,21.26,0,0,1,60.77,139.33Zm.35-5.64-1.49,1.74a23.76,23.76,0,0,0-4.11-3.64L57,130.08A27.46,27.46,0,0,1,61.12,133.69ZM77,141.07,75.86,143a22.75,22.75,0,0,1-7.15-6,25.58,25.58,0,0,1-7.17,6l-1.32-1.73a20.87,20.87,0,0,0,8-7.3l2,.79a3.27,3.27,0,0,1-.29.52A21.7,21.7,0,0,0,77,141.07Zm-9.2-9.95a24.31,24.31,0,0,1-5,5.1l-1.63-1.51a26.9,26.9,0,0,0,4.78-4.63Zm6.57,20.79H72.08v-1.2h-7v1.2H62.82v-9.46H74.35Zm-2.27-3.3v-4h-7v4Zm4.15-14-1.36,1.61a39.8,39.8,0,0,0-5.64-4.56l1.34-1.58A30.74,30.74,0,0,1,76.23,134.66Z"/><path d="M101.52,149.34a2.44,2.44,0,0,1-.72,1.75,3.47,3.47,0,0,1-2.55.75c-.55,0-1.13,0-1.73-.06l-.66-2.18,2.77,0a.7.7,0,0,0,.52-.25.76.76,0,0,0,.22-.54v-4.45H93.29v6.92H91.18v-6.92h-6a16.89,16.89,0,0,1-2.2,7.6l-2-1.27a12,12,0,0,0,1.61-4.09,22.31,22.31,0,0,0,.57-4.87v-11h18.31ZM91.18,136.5v-3.59H85.41v3.59Zm0,5.76v-3.71H85.41v3.71Zm8.19-5.76v-3.59H93.29v3.59Zm0,5.76v-3.71H93.29v3.71Z"/><path d="M116.86,151.78h-2.2v-1.26h-4.58v1.26h-2.15V140.65h8.93Zm-2.2-3.26v-5.81h-4.58v5.81Zm10.89-10h-15.2v-7.83h15.2Zm-2.22-2v-3.84H112.61v3.84Zm4.6,15.26h-2.16v-1.26h-4.63v1.26H119V140.65h9Zm-2.16-3.24v-5.83h-4.63v5.83Z"/><path class="cls-1" d="M118.12,68.8a11.72,11.72,0,0,0-4.1-8.92l-3.55-3a11.79,11.79,0,0,1-4.1-8.93v-.4H99.65v.4a11.78,11.78,0,0,1-4.1,8.93l-3.55,3a11.72,11.72,0,0,0-4.1,8.92V98.38a8.39,8.39,0,0,0,8.39,8.39h13.44a8.39,8.39,0,0,0,8.39-8.39Z"/><path class="cls-1" d="M106.37,37.43H99.65A1.68,1.68,0,0,0,98,39.11v5h10.08v-5A1.68,1.68,0,0,0,106.37,37.43Z"/><path class="cls-1" d="M86.22,27.36V25.68a8.41,8.41,0,0,0-8.4-8.4H51a1.68,1.68,0,1,0,0,3.36H77.82a5,5,0,0,1,5,5v1.68Z"/><path class="cls-1" d="M52.63,30.72H66.07v6.71H52.63Z"/><path class="cls-1" d="M56,24h6.72v3.36H56Z"/><path class="cls-1" d="M77.82,62.92a15,15,0,0,0-8.35-13.51L69,49.19a8.37,8.37,0,0,1-4.64-7.51v-.89H54.31v.89a8.37,8.37,0,0,1-4.64,7.51l-.44.22a15,15,0,0,0-8.35,13.51V98.38a8.39,8.39,0,0,0,8.39,8.39H69.43a8.39,8.39,0,0,0,8.39-8.39Z"/></svg>