<svg id="圖層_1" data-name="圖層 1" xmlns="http://www.w3.org/2000/svg" viewBox="0 0 159 175"><defs><style>.cls-1{fill:#8a5e3c;}.cls-2{fill:#040000;}</style></defs><title>工作區域 26</title><path d="M47.5,126.35l-1.37,1.76a24.39,24.39,0,0,0-4-2.87l1.29-1.89A23.25,23.25,0,0,1,47.5,126.35Zm-.09,4.25A34.46,34.46,0,0,1,44,138.92l-1.86-1.29a37.09,37.09,0,0,0,3.3-8.12Zm.8-9.76-1.56,1.68a21.83,21.83,0,0,0-4.28-3.69L44,117.09A26.2,26.2,0,0,1,48.21,120.84Zm15.71,12.59a12.3,12.3,0,0,1-.71,4.14,2.1,2.1,0,0,1-2.09,1.08,27.89,27.89,0,0,1-2.8-.09,1.73,1.73,0,0,1-1.15-.56,2.19,2.19,0,0,1-.42-1.46v-7.72H54.23q-.13,4.56-1.73,6.81a9.31,9.31,0,0,1-5.21,3.29L46,137.06a8.47,8.47,0,0,0,4.33-2.27c1.14-1.13,1.7-3.12,1.7-6H47.86v-2.1H55v-3.59H51.13a31.06,31.06,0,0,1-2,3l-1.68-1.29a23.57,23.57,0,0,0,3.33-6.92l2.15.57c-.23.79-.52,1.62-.86,2.5H55v-3.74h2.17V121h5.92v2.12H57.16v3.59h6.59v2.1H59v7.11c0,.38.31.57.92.57.83,0,1.3-.09,1.41-.26a5.08,5.08,0,0,0,.29-1.59c.08-.89.12-1.58.12-2.09Z"/><path d="M89.68,122.4h-11a26.76,26.76,0,0,1-3.3,5.17v8.62q3.38-.93,6.09-1.92l.26,2.2a67.84,67.84,0,0,1-8.45,2.45l-.69-1.78a1.21,1.21,0,0,0,.52-.92V130a33.39,33.39,0,0,1-4.33,3.35L68,131.18a23.75,23.75,0,0,0,8.26-8.78h-8.1v-2.21H78a16.07,16.07,0,0,0-1.28-2.63l2.3-.49a17.88,17.88,0,0,1,1.39,3.12h9.3Zm.12,14.88L88.24,139a22.52,22.52,0,0,1-5.64-5.73,26,26,0,0,1-3.36-9.31l2.18-.35a25.26,25.26,0,0,0,1.28,4.77,24.45,24.45,0,0,0,5-4l1.46,1.72a24.4,24.4,0,0,1-5.56,4.3Q84.91,133.71,89.8,137.28Z"/><path d="M100.88,127.59,99.6,128.8a15.2,15.2,0,0,0-.94-1.88v12H96.58V128a19.71,19.71,0,0,1-1.77,4.74l-1-2.6a27,27,0,0,0,2.34-6.66h-2.1v-2.07h2.5v-4.22h2.08v4.22h1.63v2.07H98.66v.39A20.63,20.63,0,0,1,100.88,127.59Zm15,7.18q-.66,4.3-2.7,4.31-1.42,0-3.27-2.58a26.8,26.8,0,0,1-4.88,2.55l-1.2-1.86a20.86,20.86,0,0,0,5-2.55,16.9,16.9,0,0,1-1.16-3.74h-3.54l0,.6a25.64,25.64,0,0,1,3.12,2.37L106,135.6a14.3,14.3,0,0,0-2-1.8,11.39,11.39,0,0,1-2.79,5.34l-1.79-1.21a9.58,9.58,0,0,0,2.73-7H100v-2h7.39q-.53-4.26-.69-11.68h2.06a106.26,106.26,0,0,0,.68,11.68h1.47a1.94,1.94,0,0,0-.4-.76l2.29-.47a13.72,13.72,0,0,1,.68,1.23h2.15v2h-5.76a9.84,9.84,0,0,0,.69,2.36,11.14,11.14,0,0,0,1.72-2.08l1.89.95a15.41,15.41,0,0,1-2.62,3.05q1.11,1.53,1.47,1.53.68,0,.93-3.09Zm-9.06-6.89-1.56.4a6.27,6.27,0,0,0-.23-1.32c-1.36.24-2.61.41-3.75.52l-.52-1.75a24.06,24.06,0,0,0,2-2.64q-1.12.09-1.8.09l-.4-1.58a13.19,13.19,0,0,0,2-4.41l1.89.6a18.89,18.89,0,0,1-1.77,3.46,4.62,4.62,0,0,0,1.18-.1c.16-.26.44-.81.82-1.63l1.68.9a25.59,25.59,0,0,1-3.54,5.17,15.16,15.16,0,0,0,1.74-.21,3.84,3.84,0,0,0-.32-1l1.48-.52A22.16,22.16,0,0,1,106.85,127.88Zm8.81-.12-1.51.5-.24-1.39c-1.44.2-2.73.36-3.87.49l-.57-1.73a15.63,15.63,0,0,0,2-2.5c-.63.1-1.25.18-1.86.25l-.31-1.78a18.25,18.25,0,0,0,2.27-4.39l1.84.68a20,20,0,0,1-2.06,3.64,8.48,8.48,0,0,0,1.28-.17c.41-.68.72-1.24,1-1.69l1.75.67a27.44,27.44,0,0,1-3.53,5.15c.35,0,.88-.08,1.61-.18a4.66,4.66,0,0,0-.31-.89l1.51-.49A17.68,17.68,0,0,1,115.66,127.76Z"/><path class="cls-1" d="M49.5,167.49H39.66v-2L44.25,161a17.45,17.45,0,0,0,2.26-2.6,4.18,4.18,0,0,0,.74-2.38c0-1.75-.93-2.63-2.79-2.63a5.88,5.88,0,0,0-4,1.75V152.8a7.31,7.31,0,0,1,4.43-1.41,5,5,0,0,1,3.48,1.16,4,4,0,0,1,1.29,3.17,5.75,5.75,0,0,1-.82,2.89A16.68,16.68,0,0,1,46,162l-3.52,3.35v0h7Z"/><path class="cls-1" d="M52.43,159.87a11.54,11.54,0,0,1,1.43-6.33A4.66,4.66,0,0,1,58,151.39q5.16,0,5.16,8.1a11.13,11.13,0,0,1-1.41,6.12,4.59,4.59,0,0,1-4.09,2.14,4.35,4.35,0,0,1-3.9-2A10.75,10.75,0,0,1,52.43,159.87Zm2.44-.09q0,6,2.94,6.05t2.89-6.17q0-6.34-2.83-6.34Q54.87,153.32,54.87,159.78Z"/><path class="cls-1" d="M65.43,159.87a11.55,11.55,0,0,1,1.42-6.33A4.67,4.67,0,0,1,71,151.39q5.16,0,5.16,8.1a11.13,11.13,0,0,1-1.41,6.12,4.59,4.59,0,0,1-4.09,2.14,4.34,4.34,0,0,1-3.9-2A10.75,10.75,0,0,1,65.43,159.87Zm2.44-.09q0,6,2.93,6.05t2.9-6.17c0-4.23-1-6.34-2.83-6.34S67.87,155.47,67.87,159.78Z"/><path class="cls-1" d="M95,168.49H93.09v-1.4h-9.9v1.4h-2V150.78H95Zm-1.94-10.73v-5.18h-9.9v5.18Zm0,7.51v-5.71h-9.9v5.71Z"/><path class="cls-1" d="M118,168.6H116.2v-.79H103v.81h-1.88v-18H118Zm-1.76-2.31V152.08H103v14.21Zm-1.61-2.86H108l.86.8a21.41,21.41,0,0,1-4.42,1.78l-.9-1.32a19.77,19.77,0,0,0,3.77-1.26h-2.87v-6.64h10.11Zm-.44-7.35H105v-3.27h9.19Zm-1.29,2.6V158h-6.64v.7Zm0,1.75v-.67h-6.64v.67Zm0,1.82v-.73h-6.64v.73Zm-.58-7.39V154h-5.54v.84Zm3.15,9.93-.9,1.26a24.62,24.62,0,0,0-4.17-1.08l.84-1.27A22.61,22.61,0,0,1,115.43,164.79Z"/><path class="cls-2" d="M108.75,9.12H50.25a7.34,7.34,0,0,0-7.32,7.32v70.2A4.39,4.39,0,0,0,47.32,91v4.39a1.46,1.46,0,0,0,1.46,1.46h61.44a1.46,1.46,0,0,0,1.46-1.46V91a4.39,4.39,0,0,0,4.39-4.39V16.44A7.34,7.34,0,0,0,108.75,9.12Zm-58.5,2.93h58.5a4.38,4.38,0,0,1,4.39,4.39V26.67H45.86V16.44A4.38,4.38,0,0,1,50.25,12.05ZM108.75,94H50.25V91h58.5Zm2.93-5.85H47.32a1.46,1.46,0,0,1-1.46-1.47v-57h67.28v57A1.46,1.46,0,0,1,111.68,88.11Z"/><path class="cls-2" d="M50.25,23.75H67.8a1.46,1.46,0,0,0,1.46-1.46V16.44A1.46,1.46,0,0,0,67.8,15H50.25a1.47,1.47,0,0,0-1.47,1.47v5.85A1.47,1.47,0,0,0,50.25,23.75Zm1.46-5.85H66.34v2.92H51.71Z"/><path class="cls-2" d="M76.57,23.75a4.39,4.39,0,1,0-4.38-4.39A4.39,4.39,0,0,0,76.57,23.75Zm0-5.85a1.46,1.46,0,1,1-1.46,1.46A1.46,1.46,0,0,1,76.57,17.9Z"/><path class="cls-2" d="M88.27,23.75a4.39,4.39,0,1,0-4.38-4.39A4.39,4.39,0,0,0,88.27,23.75Zm0-5.85a1.46,1.46,0,1,1-1.46,1.46A1.46,1.46,0,0,1,88.27,17.9Z"/><path class="cls-2" d="M97.05,20.82H100a1.46,1.46,0,0,0,0-2.92H97.05a1.46,1.46,0,1,0,0,2.92Z"/><path class="cls-2" d="M105.83,20.82h2.92a1.46,1.46,0,1,0,0-2.92h-2.92a1.46,1.46,0,1,0,0,2.92Z"/><path class="cls-2" d="M79.5,35.45a23.41,23.41,0,1,0,23.4,23.4A23.4,23.4,0,0,0,79.5,35.45Zm0,43.88A20.48,20.48,0,1,1,100,58.85,20.48,20.48,0,0,1,79.5,79.33Z"/><path class="cls-2" d="M79.5,39.84A19,19,0,0,0,61.91,66.06s0,.06,0,.09l.06.09a19,19,0,0,0,35.87-2.47s0-.05,0-.07A18.93,18.93,0,0,0,84.49,40.49,18.73,18.73,0,0,0,79.5,39.84Zm0,2.92a16.06,16.06,0,0,1,16.09,16,16.29,16.29,0,0,1-.39,3.55c-.76.26-1.51.55-2.24.88a13.17,13.17,0,0,1-6.15,1.49,9.81,9.81,0,0,1-5.19-1.31,12.79,12.79,0,0,0-6.51-1.61,38.21,38.21,0,0,0-10.9,2A16.08,16.08,0,0,1,79.5,42.76Zm0,32.18a16.1,16.1,0,0,1-14.14-8.41,34.88,34.88,0,0,1,9.75-1.83A9.88,9.88,0,0,1,80.31,66a12.83,12.83,0,0,0,6.5,1.61A15.86,15.86,0,0,0,93.9,66,16.09,16.09,0,0,1,79.5,74.94Z"/></svg>