<svg id="圖層_1" data-name="圖層 1" xmlns="http://www.w3.org/2000/svg" viewBox="0 0 159 175"><defs><style>.cls-1{fill:#8a5e3c;}.cls-2{fill:#040000;}</style></defs><title>工作區域 24</title><path d="M76.62,126.92H71.05v9a2.89,2.89,0,0,1-.78,2.09,2.63,2.63,0,0,1-2,.81c-1.75,0-3.12,0-4.09,0l-.8-2.22c1.62.06,3.05.1,4.26.1q1.14,0,1.14-1.26v-7.23q-4.15,5.92-12.7,9.19l-1.21-2a25.4,25.4,0,0,0,12.19-8.44H56.72l1.29-7.1H56.38v-2.18H75.62v2.18H71.05v5h5.57Zm-7.82-2.15v-5H60.3l-.83,5Z"/><path d="M94.1,124.34H84.46v3.47A35.65,35.65,0,0,1,83,139.12l-2-1.34a25.4,25.4,0,0,0,1.34-8.61V117.75H94.1Zm-2.15-2v-2.55H84.46v2.55Zm2.13,13.07a1.53,1.53,0,0,1-.55,1.39,3.26,3.26,0,0,1-1.94.27l-.5-2a1.21,1.21,0,0,0,.41,0q.75,0,.75-.54v-5H90.79v9.12H88.86v-9.12H87.48v7.54H85.6v-9.59h3.26v-2.16h1.93v2.16h3.29Zm3.82-1.06H95.82V118.93H97.9Zm4.18,2.35a1.81,1.81,0,0,1-.72,1.71,5.29,5.29,0,0,1-2.5.42q-.84,0-1.56-.06l-.54-2.15c.74,0,1.33.08,1.76.08a3.13,3.13,0,0,0,1.22-.13.49.49,0,0,0,.21-.47V117.21h2.13Z"/><path class="cls-1" d="M49.79,167.49H40.47v-2h3.46V154l-3.55,1V152.9l6-1.56v14.14h3.45Z"/><path class="cls-1" d="M52.43,159.87a11.54,11.54,0,0,1,1.43-6.33A4.66,4.66,0,0,1,58,151.39q5.16,0,5.16,8.1a11.13,11.13,0,0,1-1.41,6.12,4.59,4.59,0,0,1-4.09,2.14,4.35,4.35,0,0,1-3.9-2A10.75,10.75,0,0,1,52.43,159.87Zm2.44-.09q0,6,2.94,6.05t2.89-6.17q0-6.34-2.83-6.34Q54.87,153.32,54.87,159.78Z"/><path class="cls-1" d="M65.43,159.87a11.55,11.55,0,0,1,1.42-6.33A4.67,4.67,0,0,1,71,151.39q5.16,0,5.16,8.1a11.13,11.13,0,0,1-1.41,6.12,4.59,4.59,0,0,1-4.09,2.14,4.34,4.34,0,0,1-3.9-2A10.75,10.75,0,0,1,65.43,159.87Zm2.44-.09q0,6,2.93,6.05t2.9-6.17c0-4.23-1-6.34-2.83-6.34S67.87,155.47,67.87,159.78Z"/><path class="cls-1" d="M95,168.49H93.09v-1.4h-9.9v1.4h-2V150.78H95Zm-1.94-10.73v-5.18h-9.9v5.18Zm0,7.51v-5.71h-9.9v5.71Z"/><path class="cls-1" d="M118,168.6H116.2v-.79H103v.81h-1.88v-18H118Zm-1.76-2.31V152.08H103v14.21Zm-1.61-2.86H108l.86.8a21.41,21.41,0,0,1-4.42,1.78l-.9-1.32a19.77,19.77,0,0,0,3.77-1.26h-2.87v-6.64h10.11Zm-.44-7.35H105v-3.27h9.19Zm-1.29,2.6V158h-6.64v.7Zm0,1.75v-.67h-6.64v.67Zm0,1.82v-.73h-6.64v.73Zm-.58-7.39V154h-5.54v.84Zm3.15,9.93-.9,1.26a24.62,24.62,0,0,0-4.17-1.08l.84-1.27A22.61,22.61,0,0,1,115.43,164.79Z"/><path class="cls-2" d="M106.9,37.47a4.06,4.06,0,0,0-2.9-1.21,4.11,4.11,0,0,0-1.64.34l-4.31-4.31a6.94,6.94,0,0,0-1.84-6.5h0a6.9,6.9,0,0,0-6.39-1.86,1.53,1.53,0,0,0-1,.69,1.55,1.55,0,0,0-.16,1.19,3.89,3.89,0,0,1-1,3.81L76.55,40.77a6.92,6.92,0,0,0,6.39,11.65,1.49,1.49,0,0,0,1.18-1.35l1.68,1.69L52.1,86.46a4.11,4.11,0,0,0,5.81,5.81l49-49a4.12,4.12,0,0,0,0-5.81ZM96.21,35.59a5.87,5.87,0,0,0,.41-.46l3.4,3.4L98.6,40l-3.38-3.38Zm-4.54,4.54,1.42-1.42,3.38,3.38-1.42,1.42Zm1.24,5.51-1.42,1.43-3.38-3.39,1.42-1.42ZM84.6,47.29a3.58,3.58,0,0,1,.47-.56l.91-.91,3.38,3.38-1.43,1.42Z"/></svg>