<svg id="圖層_1" data-name="圖層 1" xmlns="http://www.w3.org/2000/svg" viewBox="0 0 159 175"><title>工作區域 15</title><path d="M67,131.86l-5.15,18.71H58.5l-3.59-13.1a8.82,8.82,0,0,1-.3-2h0a11.19,11.19,0,0,1-.34,2l-3.64,13.11H47.22l-5.29-18.71h3.19l3.5,13.68a10.8,10.8,0,0,1,.3,2H49a9.55,9.55,0,0,1,.39-2l3.87-13.66h3l3.65,13.79a13.35,13.35,0,0,1,.31,1.85h0a9.46,9.46,0,0,1,.33-1.91l3.38-13.73Z"/><path d="M71.44,132.62a1.58,1.58,0,0,1,.49-1.18,1.74,1.74,0,0,1,1.24-.47,1.8,1.8,0,0,1,1.25.47,1.63,1.63,0,0,1,0,2.35,1.8,1.8,0,0,1-1.25.47,1.73,1.73,0,0,1-1.23-.47A1.57,1.57,0,0,1,71.44,132.62Zm.28,17.95V137.21h2.84v13.36Z"/><path d="M88,144.29H80.9v-2.1H88Z"/><path d="M104.54,134.34H97.49v5.82H104v2.47H97.49v7.94h-2.9V131.86h10Z"/><path d="M109.77,132.62a1.58,1.58,0,0,1,.49-1.18,1.74,1.74,0,0,1,1.24-.47,1.8,1.8,0,0,1,1.25.47,1.63,1.63,0,0,1,0,2.35,1.8,1.8,0,0,1-1.25.47,1.73,1.73,0,0,1-1.23-.47A1.57,1.57,0,0,1,109.77,132.62Zm.28,17.95V137.21h2.84v13.36Z"/><path d="M117.94,55.7a54.08,54.08,0,0,0-76.88,0,2.92,2.92,0,0,0,0,4.24l4.24,4.24a2.92,2.92,0,0,0,4.23,0,42.39,42.39,0,0,1,59.94,0,2.92,2.92,0,0,0,4.23,0l4.24-4.24a2.73,2.73,0,0,0,.91-2.12A2.36,2.36,0,0,0,117.94,55.7Z"/><path d="M79.5,63.88a29.49,29.49,0,0,0-21.19,8.77,2.93,2.93,0,0,0,0,4.24l4.24,4.24a2.93,2.93,0,0,0,4.24,0A17.84,17.84,0,0,1,79.5,76a19.2,19.2,0,0,1,12.71,5.15,2.93,2.93,0,0,0,4.24,0l4.24-4.24a2.93,2.93,0,0,0,0-4.24A29.49,29.49,0,0,0,79.5,63.88Z"/><circle cx="79.5" cy="94.14" r="6.05"/></svg>