<svg id="圖層_1" data-name="圖層 1" xmlns="http://www.w3.org/2000/svg" viewBox="0 0 159 175"><defs><style>.cls-1{fill:#040000;}</style></defs><title>工作區域 18</title><path d="M47.75,130.88a20.32,20.32,0,0,1-4.43,5.83l-1.23-1.8A15.91,15.91,0,0,0,45.82,130ZM48,136a15.77,15.77,0,0,1-.88,2l-.59,1.16v12.62h-2V142.4a13.27,13.27,0,0,1-1.32,1.39l-1.06-2a19.74,19.74,0,0,0,4-6.71Zm3.15,6.41q0,6.94-2.38,9.37l-1.58-1.25q2.06-2,2-8.12Zm5.27-1.07H48.08v-2h8.31Zm-.32-3.46H48.35v-6.21h1.83v4.24h1.16v-5.64h1.8v5.64h1.1v-4.24h1.83Zm1.11,9.51a35,35,0,0,1-4,2.81l-.92-1.73a1.28,1.28,0,0,0,.45-1v-5.07h1.89v4.43a14.06,14.06,0,0,0,1.81-1.39Zm7,2.64L63,151.91a17.71,17.71,0,0,1-3-3.44A17.36,17.36,0,0,1,57,152l-1.39-1.58a16.14,16.14,0,0,0,3.3-4,28.31,28.31,0,0,1-1.66-5.6l2-.44a23.9,23.9,0,0,0,.8,3.06,29.18,29.18,0,0,0,.92-7.6H59.41a17.76,17.76,0,0,1-1.48,3.75l-1.79-1a18.71,18.71,0,0,0,2.31-8.44l2,.37q-.21,1.5-.57,3.24h3.88v2.12h-.94a28.42,28.42,0,0,1-1.78,10.58A13.21,13.21,0,0,0,64.16,150.05Z"/><path d="M73.43,143.56a34.63,34.63,0,0,1-3.55,8.35l-1.69-1.44a34.93,34.93,0,0,0,3.39-7.86Zm.47-4.15-1.4,1.79A24.71,24.71,0,0,0,68.24,138l1.31-1.81A24.26,24.26,0,0,1,73.9,139.41Zm.31-5.77-1.47,1.59a28.13,28.13,0,0,0-4.13-3.62l1.49-1.51A21,21,0,0,1,74.21,133.64ZM90,150.2,88.82,152a25.14,25.14,0,0,1-5.95-3.3,23.27,23.27,0,0,1-5.62,3.23L76,150.12a24.5,24.5,0,0,0,5.26-2.81,16.67,16.67,0,0,1-3.77-6.44h-.45q-.22,7.66-2.56,11l-2-1.06Q75,147.14,75,140.2v-7.5h5.8v-2.39h2.17v2.39h6.58a35.9,35.9,0,0,1-1.43,5.08l-2.18-.48a14,14,0,0,0,.93-2.5h-3.9v4h5.24a18.55,18.55,0,0,1-3.8,8.52A22.06,22.06,0,0,0,90,150.2Zm-9.27-11.41v-4H77.15v4Zm4.77,2.08H79.62A14.5,14.5,0,0,0,82.8,146,13.16,13.16,0,0,0,85.54,140.87Z"/><path d="M101.79,135a19.05,19.05,0,0,1-2.57,4.16,34.43,34.43,0,0,1-.3,4.55,23.28,23.28,0,0,1,2.35,3.76l-1.48,1.61a19.12,19.12,0,0,0-1.44-2.7A14.05,14.05,0,0,1,95.46,152L94,150.27a11,11,0,0,0,2.49-5,38.32,38.32,0,0,0,.62-7.77v-7.17h2.15v5.58a11.29,11.29,0,0,0,1-2.08Zm-5.12,5.65-1.73.71a42.12,42.12,0,0,0-.87-6.12l1.63-.68A34.05,34.05,0,0,1,96.67,140.68Zm18.91-7.08a17.55,17.55,0,0,1-.92,3.73l-2-.64a14.8,14.8,0,0,0,.47-1.51h-4.32v.94l3-.22.12,1.28-3.14.2v.28c0,.26.16.39.49.39h5.34v1.26h-6.37a1.48,1.48,0,0,1-1-.42,1.24,1.24,0,0,1-.45-.93v-.38l-1.86.1,0-1.23,1.91-.16v-1.11H104.2v8.09a19.56,19.56,0,0,1-1.91,8.88l-1.78-1.36a16.5,16.5,0,0,0,1.63-7.57V133.6h4.65v-3.27H109v.79h5.73v1.51H109v1Zm.12,18.06H103.77v-1.58h1v-3.36H115v3.36h.71Zm-1.26-5.93h-9.13v-5.6h9.13Zm-6.7,4.35v-2h-1v2Zm1.21-7.87v-.77h-1.71v.77Zm0,2.17v-.89h-1.71v.89Zm1.43,5.7v-1.94h-.89v1.94Zm2.13-7.87v-.77H110.9v.77Zm0,2.17v-.89H110.9v.89Zm.49,5.7v-1.91h-.94v1.91Z"/><path class="cls-1" d="M123.16,38.68H35.84a4.93,4.93,0,0,0-4.93,4.93V94a4.93,4.93,0,0,0,4.93,4.93h87.32A4.93,4.93,0,0,0,128.09,94V43.61A4.93,4.93,0,0,0,123.16,38.68ZM34.06,94V43.61a1.78,1.78,0,0,1,1.78-1.78h69v54H35.84A1.79,1.79,0,0,1,34.06,94Zm90.88,0a1.79,1.79,0,0,1-1.78,1.79H107.94V41.83h15.22a1.78,1.78,0,0,1,1.78,1.78Z"/><path class="cls-1" d="M97.48,47.08H42a1.57,1.57,0,0,0-1.57,1.57V89A1.58,1.58,0,0,0,42,90.53H97.48A1.58,1.58,0,0,0,99.06,89V48.65A1.57,1.57,0,0,0,97.48,47.08Zm-1.57,40.3H43.59V50.23H95.91Z"/><path class="cls-1" d="M116.44,79a6.62,6.62,0,1,0,6.61,6.62A6.63,6.63,0,0,0,116.44,79Zm3.47,6.62a3.36,3.36,0,0,1-.17,1.06l-4.36-4.36a3.36,3.36,0,0,1,1.06-.17A3.48,3.48,0,0,1,119.91,85.6Zm-6.93,0a3.38,3.38,0,0,1,.17-1.07l4.36,4.36a3.43,3.43,0,0,1-1.07.17A3.47,3.47,0,0,1,113,85.6Z"/><path class="cls-1" d="M116.44,63.87a6.61,6.61,0,1,0,6.61,6.61A6.62,6.62,0,0,0,116.44,63.87Zm3.47,6.61a3.47,3.47,0,0,1-.17,1.07l-4.36-4.36a3.36,3.36,0,0,1,1.06-.17A3.47,3.47,0,0,1,119.91,70.48Zm-6.93,0a3.36,3.36,0,0,1,.17-1.06l4.36,4.36a3.43,3.43,0,0,1-1.07.17A3.47,3.47,0,0,1,113,70.48Z"/><path class="cls-1" d="M113.08,60.3h6.72a1.58,1.58,0,1,0,0-3.15h-6.72a1.58,1.58,0,0,0,0,3.15Z"/><path class="cls-1" d="M113.08,55.26h6.72a1.57,1.57,0,1,0,0-3.14h-6.72a1.57,1.57,0,1,0,0,3.14Z"/><path class="cls-1" d="M113.08,50.23h6.72a1.58,1.58,0,1,0,0-3.15h-6.72a1.58,1.58,0,0,0,0,3.15Z"/></svg>