<svg id="圖層_1" data-name="圖層 1" xmlns="http://www.w3.org/2000/svg" viewBox="0 0 159 175"><defs><style>.cls-1{fill:#fff;}.cls-2{fill:#040000;}</style></defs><title>工作區域 17</title><path d="M60.42,141.83a51.63,51.63,0,0,1-3.64,9.5l-1.73-1.42a44,44,0,0,0,3.47-9.26Zm-.17-6.42-1.73,1.3a22.12,22.12,0,0,0-3-4.25l1.66-1.25A25.45,25.45,0,0,1,60.25,135.41Zm6,.61a21.22,21.22,0,0,1-1.46,7.65,18.31,18.31,0,0,1-4.29,6L58.81,148a13.44,13.44,0,0,0,5.1-9.82H60.34V136Zm10.7,11.9-1.63,1.71a26.7,26.7,0,0,1-5.93-10.17v10.35a1.83,1.83,0,0,1-.49,1.38,2.34,2.34,0,0,1-1.52.56c-.7.05-1.7.08-3,.08l-.77-2.15c.35,0,1.39,0,3.12,0,.31,0,.46-.15.46-.47v-19h2.19v2a18.9,18.9,0,0,0,1.44,6A24.74,24.74,0,0,0,75,133.79l1.75,1.59a31.19,31.19,0,0,1-5.08,5A21.67,21.67,0,0,0,76.92,147.92Z"/><path d="M91.87,146l-1.41,1.93a21.87,21.87,0,0,0-2.75-3.66v7.59H85.54V144.6a21,21,0,0,1-3.35,4.81l-1.35-2a22.2,22.2,0,0,0,4.45-6.31H81.38v-1.95h4.16V137h2.17v2.08h3.71v1.95H87.71v.34A24.38,24.38,0,0,1,91.87,146Zm0-12.05H85.24a15.57,15.57,0,0,1-2.65,3L81,135.41A17.79,17.79,0,0,0,85.09,130l2.15.55c-.32.69-.56,1.16-.71,1.41h5.34Zm-2.4,2.35-2.2.56a9.71,9.71,0,0,0-1.11-2.1l2.27-.54A8.86,8.86,0,0,1,89.47,136.27Zm13.24-2.35H95.13a14.71,14.71,0,0,1-2.57,2.94l-1.8-1.24a19.46,19.46,0,0,0,4.18-5.47l2.22.4a7.25,7.25,0,0,1-.76,1.39h6.31ZM102,151.83H99.83v-1.14H94.52v1.14H92.29V137.44H102Zm-2.17-10.59v-2H94.52v2Zm0,3.88V143H94.52v2.12Zm0,3.7v-1.91H94.52v1.91Zm0-12.37-2.18.59A9.77,9.77,0,0,0,96.35,135l2.13-.72A7.32,7.32,0,0,1,99.81,136.45Z"/><rect class="cls-1" x="48.31" y="14.58" width="62.53" height="92.09" rx="4.67" ry="4.67"/><path class="cls-2" d="M58.55,43.12a3.63,3.63,0,0,1-3.63-3.63V37.4a5.74,5.74,0,0,1,5.73-5.73H71.14a5.74,5.74,0,0,1,5.73,5.73v2.09a3.63,3.63,0,0,1-3.63,3.63Zm2.1-8.39A2.67,2.67,0,0,0,58,37.4v2.66H73.81V37.4a2.67,2.67,0,0,0-2.67-2.67Z"/><path class="cls-2" d="M60.65,68.31a5.74,5.74,0,0,1-5.73-5.73v-2.1a3.64,3.64,0,0,1,3.63-3.63H73.24a3.64,3.64,0,0,1,3.63,3.63v2.1a5.74,5.74,0,0,1-5.73,5.73ZM58,62.58a2.68,2.68,0,0,0,2.67,2.67H71.14a2.68,2.68,0,0,0,2.67-2.67V59.92H58Z"/><path class="cls-2" d="M54.31,108a7.84,7.84,0,0,1-7.83-7.83v-80a7.84,7.84,0,0,1,7.83-7.82h50.38a7.84,7.84,0,0,1,7.83,7.82v80a7.84,7.84,0,0,1-7.83,7.83Zm-4.77-7.83A4.78,4.78,0,0,0,54.31,105h50.38a4.78,4.78,0,0,0,4.77-4.77V51.52H49.54Zm4.77-84.77a4.77,4.77,0,0,0-4.77,4.76V48.46h59.92V20.18a4.77,4.77,0,0,0-4.77-4.76Z"/></svg>