<svg id="圖層_1" data-name="圖層 1" xmlns="http://www.w3.org/2000/svg" viewBox="0 0 159 175"><defs><style>.cls-1{fill:#040000;}</style></defs><title>工作區域 22</title><path d="M63.62,134.37,62.25,136A22.8,22.8,0,0,0,59,133a18.3,18.3,0,0,1-2.22,2.86h4.89v2h-1.8v1.88h3.22v2H59.83v6.43c.89-.23,2-.58,3.46-1.07l.13,2.06a60.83,60.83,0,0,1-9,2.4l-.52-2.05c1.18-.2,2.45-.49,3.82-.85v-6.92h-3.4v-2h3.4v-1.88h-2v-1.06c-.44.36-.77.61-1,.74l-1-1.88A18,18,0,0,0,58.28,130l2,.69a2.73,2.73,0,0,1-.31.63A21.67,21.67,0,0,1,63.62,134.37ZM57,147.85l-1.88.62a32,32,0,0,0-.81-5.17l1.8-.69A28,28,0,0,1,57,147.85Zm6.12-4.72a16.45,16.45,0,0,1-1,3.88l-1.66-.55a24.57,24.57,0,0,0,.9-3.89Zm11.33,4.28H67.35l1.41,1a19.1,19.1,0,0,1-5,3.52l-1.53-1.65a15.05,15.05,0,0,0,4.43-2.83H64.26V136.14h4v-6h2.13v6h4.06Zm-7.27-12.82-1.91.91A12.09,12.09,0,0,0,63,131.82l1.85-1A19.75,19.75,0,0,1,67.16,134.59Zm5.19,4.7V138.1h-6v1.19Zm0,3.06V141.1h-6v1.25Zm0,3.12v-1.3h-6v1.3Zm3.54,4.82L74.55,152a19.94,19.94,0,0,0-4.35-2.5l1.33-1.66A20.93,20.93,0,0,1,75.89,150.29Zm-.54-18.94a18.69,18.69,0,0,1-2.08,4.11l-2-.83a20.12,20.12,0,0,0,2-3.87Z"/><path d="M88,140.33l-1.34,1.48q-.72-1.84-.87-2.1v12.07h-2v-11a31.76,31.76,0,0,1-1.78,4.7L81,143.18a32.66,32.66,0,0,0,2.57-6.94H81.2v-2h2.63v-4h2v4H87.5v2H85.83v.55A26.51,26.51,0,0,1,88,140.33Zm14.81,11.11H88.36V130.5h14.11v1.71H97.61v.94h3.87v3.37H97.61v.88h4.91v1.46H90.91V137.4h4.7v-.88H91.7v-3.37h3.91v-.94H90.34V149.7h12.51Zm-1.32-4.65H94.94l.94.83a27,27,0,0,1-4.1,1.74L90.66,148A18.88,18.88,0,0,0,94,146.79H91.75v-7.15h9.78Zm-5.92-11.52v-.88H93.73v.88Zm3.91,6.42v-.75H93.78v.75Zm0,1.87v-.73H93.78v.73Zm0,1.84v-.74H93.78v.74Zm2.86,2.48-.78,1.48a32.3,32.3,0,0,0-4.28-.8l.81-1.58A29,29,0,0,1,102.38,147.88ZM99.5,135.27v-.88H97.61v.88Z"/><g id="surface1"><path class="cls-1" d="M82.06,64.42a5.44,5.44,0,1,0-5.09,0,2.14,2.14,0,0,1,1.14,2l0,8a1.41,1.41,0,0,0,2.82,0v0l.06-7.87A2.15,2.15,0,0,1,82.06,64.42Z"/><path class="cls-1" d="M110.64,48.36V48.3c0-.7-.06-1.45-.07-2.28a7.77,7.77,0,0,0-7.32-7.61c-8.42-.47-14.94-3.22-20.51-8.65l0,0a4.69,4.69,0,0,0-6.38,0l0,0c-5.58,5.43-12.1,8.18-20.52,8.65A7.77,7.77,0,0,0,48.43,46c0,.83,0,1.57-.06,2.28v.13c-.16,8.6-.37,19.29,3.21,29a36.87,36.87,0,0,0,8.86,13.79,46.27,46.27,0,0,0,17.33,10.26,5.71,5.71,0,0,0,.71.19,5.14,5.14,0,0,0,1,.1,5.07,5.07,0,0,0,1-.1,6.44,6.44,0,0,0,.72-.2A46.46,46.46,0,0,0,98.56,91.22a37.09,37.09,0,0,0,8.85-13.8C111,67.68,110.8,57,110.64,48.36ZM85.24,67.49l0,7a5.72,5.72,0,0,1-11.44,0v0l0-7a9.74,9.74,0,1,1,11.44,0Z"/></g></svg>