<svg id="圖層_1" data-name="圖層 1" xmlns="http://www.w3.org/2000/svg" viewBox="0 0 159 175"><defs><style>.cls-1{fill:#fff;}</style></defs><title>工作區域 16</title><path d="M72.16,133.92H54.09v9.18a18.63,18.63,0,0,1-1.81,8.79l-1.65-1.62a18.1,18.1,0,0,0,1.31-7.54V132h8.74a9.23,9.23,0,0,0-.9-1.49L62.1,130c.29.45.67,1.12,1.13,2h8.93Zm-7.58,16.3q-5.36,1-10,1.56L54.17,150c1-.09,1.88-.21,2.74-.35a9.27,9.27,0,0,0-1.09-2.34l1.49-.92H55.4v-5.1h8.21v5.1H61.49l1.53.74a11.35,11.35,0,0,1-.78,1.65,22,22,0,0,0,2.32-.38Zm-.22-12.92H60.55v1.27h3.34v1.71H55.18v-1.71h3.24v-1.24H54.78l0-1.68h3.66v-1h2.13v1h3.81Zm-2.8,7.3v-1.68H57.49v1.68Zm-.49,1.74H57.71a24.55,24.55,0,0,1,1.21,3l.91-.15A16.44,16.44,0,0,0,61.07,146.34Zm6.6-.12-1.84.81a25.9,25.9,0,0,0-1.27-4.92l1.83-.82A22.86,22.86,0,0,1,67.67,146.22ZM72.18,140H70.5v9.36a3,3,0,0,1-.51,1.82c-.33.46-1.2.68-2.58.68-.46,0-1,0-1.49-.06l-.69-2.05H68c.29,0,.44-.16.44-.47V140H64.88v-2h3.54v-3.29H70.5v3.29h1.68Z"/><path d="M97.19,131.64a68,68,0,0,1-14.28,1.58h-2v1.22H96.84v5.34H80.9q-.24,7.71-3.1,12.05l-1.43-1.9q2.31-3.83,2.32-10.6v-8h4.5A54.4,54.4,0,0,0,96,129.91Zm.92,12.13H87.72l-.23,1.53H97a23,23,0,0,1-.48,3.83,3,3,0,0,1-1.2,2.06,6.54,6.54,0,0,1-3,.48c-.62,0-1.46,0-2.51-.06l-.66-2.08c1,.07,1.92.1,2.91.1s1.39,0,1.6,0a.75.75,0,0,0,.56-.45,5.25,5.25,0,0,0,.32-2h-7.5a9.59,9.59,0,0,1-6,4.78L79.77,150q5.7-1.6,5.67-6.26H81.58v-1.86h6.73a7.4,7.4,0,0,0-.82-1.21l2.38-.52a9.43,9.43,0,0,1,1,1.73h7.27Zm-3.49-5.87v-1.63H80.9v1.63Z"/><path d="M46.16,58.78A31.71,31.71,0,1,0,92.4,51.14l2.93-4.52A3.82,3.82,0,0,0,99.44,45l17.89-27.58a3.86,3.86,0,0,0-1.14-5.33l-2.83-1.83A3.86,3.86,0,0,0,108,11.38L90.14,39a3.85,3.85,0,0,0,.19,4.42L87.39,47.9A31.72,31.72,0,0,0,46.16,58.78Zm67.53-41.29a2.79,2.79,0,1,1-.81-3.86A2.78,2.78,0,0,1,113.69,17.49Z"/><path class="cls-1" d="M67.78,99.39a36.92,36.92,0,0,1-7.1-.7A25.87,25.87,0,0,0,97.25,84.26,36.23,36.23,0,0,1,67.78,99.39Z"/></svg>