<svg id="圖層_1" data-name="圖層 1" xmlns="http://www.w3.org/2000/svg" viewBox="0 0 159 175"><defs><style>.cls-1{fill:#8a5e3c;}.cls-2{fill:#231815;}</style></defs><title>工作區域 25</title><path d="M60.73,130.58A39.17,39.17,0,0,1,56.9,139L55,137.61a39.21,39.21,0,0,0,3.68-8Zm0-4.23-1.39,1.83A25,25,0,0,0,55.09,125l1.31-1.81A20.89,20.89,0,0,1,60.73,126.35Zm.35-5.64-1.49,1.74a23.64,23.64,0,0,0-4.1-3.64l1.43-1.72A27,27,0,0,1,61.08,120.71Zm15.86,7.38L75.82,130a22.75,22.75,0,0,1-7.15-6,25.25,25.25,0,0,1-7.17,6l-1.31-1.73a20.89,20.89,0,0,0,8-7.29l2,.78a2.28,2.28,0,0,1-.29.52A21.84,21.84,0,0,0,76.94,128.09Zm-9.2-10a23.83,23.83,0,0,1-5,5.1l-1.63-1.51a26.2,26.2,0,0,0,4.78-4.63Zm6.57,20.79H72v-1.19H65v1.19H62.78v-9.46H74.31ZM72,135.63v-4H65v4Zm4.15-14-1.36,1.61a40.51,40.51,0,0,0-5.64-4.56l1.34-1.58A31.6,31.6,0,0,1,76.19,121.67Z"/><path d="M101.21,133.17a2,2,0,0,1-.87,1.8,3.52,3.52,0,0,1-2.08.61c-.52,0-1.29,0-2.3-.05l-.91-2.22c1.15,0,2.23.05,3.25.05.44,0,.66-.24.66-.71V123.4H93v15.44H90.82V123.4H84.91v12.06H82.63V121.25h8.19v-4H93v4h8.17Z"/><path class="cls-1" d="M49.79,167.49H40.47v-2h3.46V154l-3.55,1V152.9l6-1.56v14.14h3.45Z"/><path class="cls-1" d="M52.43,159.87a11.54,11.54,0,0,1,1.43-6.33A4.66,4.66,0,0,1,58,151.39q5.16,0,5.16,8.1a11,11,0,0,1-1.41,6.12,4.59,4.59,0,0,1-4.09,2.14,4.35,4.35,0,0,1-3.9-2A10.75,10.75,0,0,1,52.43,159.87Zm2.44-.09q0,6,2.94,6.05t2.89-6.17q0-6.34-2.83-6.34Q54.87,153.32,54.87,159.78Z"/><path class="cls-1" d="M65.43,159.87a11.55,11.55,0,0,1,1.42-6.33A4.67,4.67,0,0,1,71,151.39q5.16,0,5.16,8.1a11.13,11.13,0,0,1-1.41,6.12,4.59,4.59,0,0,1-4.09,2.14,4.34,4.34,0,0,1-3.9-2A10.75,10.75,0,0,1,65.43,159.87Zm2.44-.09q0,6,2.93,6.05t2.9-6.17c0-4.23-1-6.34-2.83-6.34S67.87,155.47,67.87,159.78Z"/><path class="cls-1" d="M95,168.49H93.09v-1.4h-9.9v1.4h-2V150.78H95Zm-1.94-10.73v-5.18h-9.9v5.18Zm0,7.51v-5.71h-9.9v5.71Z"/><path class="cls-1" d="M118,168.6H116.2v-.79H103v.81h-1.88v-18H118Zm-1.76-2.31V152.08H103v14.21Zm-1.61-2.86H108l.86.8a21.41,21.41,0,0,1-4.42,1.78l-.9-1.32a19.77,19.77,0,0,0,3.77-1.26h-2.87v-6.64h10.11Zm-.44-7.35H105v-3.27h9.19Zm-1.29,2.6V158h-6.64v.7Zm0,1.75v-.67h-6.64v.67Zm0,1.82v-.73h-6.64v.73Zm-.58-7.39V154h-5.54v.84Zm3.15,9.93-.9,1.26a24.62,24.62,0,0,0-4.17-1.08l.84-1.27A22.61,22.61,0,0,1,115.43,164.79Z"/><path class="cls-2" d="M39.51,35.15A8.82,8.82,0,0,0,36.27,51.2a8.81,8.81,0,0,0,3.27,16,16.19,16.19,0,0,0,7.75,29.64h71.32a8.81,8.81,0,0,0,4.12-16.15,8.81,8.81,0,0,0-3.24-16,16.19,16.19,0,0,0,0-27l.08,0A16.28,16.28,0,0,0,111.1,35L48.49,35C39.29,35,39.51,35.15,39.51,35.15Zm84.33,38.21a6,6,0,0,1-5.51,6l-66.89,0a1.52,1.52,0,0,1,0-3V73.4a4.39,4.39,0,0,0,0,8.78h67.07a5.88,5.88,0,0,1,5.33,5.91,6,6,0,0,1-6,6l-69.4,0a13.33,13.33,0,0,1,0-26.66h69.4A6,6,0,0,1,123.84,73.36Zm-13.33-8.82-69.4,0a5.95,5.95,0,0,1-.55-11.87h67a4.39,4.39,0,1,0,0-8.77v2.87a1.52,1.52,0,1,1,0,3H40.69a5.95,5.95,0,0,1,.42-11.88h69.4a13.33,13.33,0,0,1,0,26.66Z"/></svg>