<?xml version="1.0" encoding="utf-8"?>
<!-- Generator: Adobe Illustrator 22.0.1, SVG Export Plug-In . SVG Version: 6.00 Build 0)  -->
<svg version="1.1" id="圖層_1" xmlns="http://www.w3.org/2000/svg" xmlns:xlink="http://www.w3.org/1999/xlink" x="0px" y="0px"
	 viewBox="0 0 262 262" style="enable-background:new 0 0 262 262;" xml:space="preserve">
<g>
	<path d="M65.7,25.1l-2.9,2l6.3,9.3c0.4,0.5,0.5,1,0.4,1.4c-0.1,0.4-0.3,0.8-0.7,1c-0.4,0.3-0.8,0.4-1.2,0.3
		c-0.4-0.1-0.8-0.4-1.2-0.9L60,28.9l-2.9,2c-0.5,0.3-0.9,0.4-1.2,0.4c-0.4,0-0.6-0.2-0.9-0.5c-0.2-0.3-0.3-0.7-0.2-1
		c0.1-0.4,0.4-0.7,0.8-1l8.6-5.8c0.5-0.3,0.9-0.4,1.2-0.4c0.4,0,0.6,0.2,0.9,0.6c0.2,0.3,0.3,0.7,0.2,1S66.1,24.8,65.7,25.1z"/>
	<path d="M84.7,27.6l-1.5-1.4l-5.8,2.9l0.2,2.1c0.1,0.8,0.1,1.4,0,1.7c-0.1,0.3-0.3,0.6-0.8,0.8c-0.4,0.2-0.8,0.2-1.2,0.1
		c-0.4-0.1-0.7-0.3-0.9-0.7c-0.1-0.2-0.2-0.4-0.2-0.6c0-0.2-0.1-0.6-0.1-1l-0.8-10.8c0-0.3,0-0.7-0.1-1.1c0-0.4,0-0.8,0-1.1
		c0-0.3,0.2-0.6,0.4-0.9c0.2-0.3,0.5-0.5,0.9-0.7c0.4-0.2,0.8-0.3,1.1-0.3c0.3,0,0.7,0.1,0.9,0.3c0.3,0.2,0.5,0.3,0.8,0.5
		c0.2,0.2,0.6,0.5,1,0.9l8.2,7.1c0.6,0.5,1,1,1.2,1.3c0.2,0.3,0.2,0.7,0,1.1c-0.1,0.4-0.4,0.7-0.8,0.9c-0.2,0.1-0.4,0.2-0.6,0.2
		c-0.2,0-0.4,0-0.6-0.1c-0.2-0.1-0.4-0.2-0.7-0.5C85.1,28,84.8,27.8,84.7,27.6z M77,26.6l4.3-2.1l-5-4.7L77,26.6z"/>
	<path d="M91.4,12.1l1.6,5.2l4.2-8c0.2-0.4,0.4-0.7,0.5-0.9c0.2-0.2,0.4-0.4,0.8-0.5c0.4-0.1,0.8-0.1,1.2,0s0.6,0.4,0.7,0.8
		c0.1,0.4,0,0.9-0.3,1.5l-2.7,4.6l6.2,4.7c0.4,0.3,0.8,0.6,1,0.9s0.4,0.5,0.5,0.8c0.1,0.3,0.1,0.7-0.1,1c-0.2,0.3-0.5,0.6-1,0.7
		c-0.4,0.1-0.8,0.1-1.1,0.1c-0.3-0.1-0.6-0.3-0.9-0.5s-0.5-0.5-0.7-0.7l-5.3-4.3L94,20.7l0.9,3.1c0.2,0.6,0.2,1.1,0,1.5
		c-0.2,0.4-0.5,0.7-1,0.8c-0.3,0.1-0.5,0.1-0.8,0c-0.3-0.1-0.5-0.2-0.7-0.4c-0.2-0.2-0.3-0.4-0.4-0.6c-0.1-0.2-0.2-0.6-0.4-1.1
		l-3.4-11c-0.2-0.6-0.2-1.1,0-1.5c0.2-0.4,0.5-0.7,1-0.8c0.5-0.1,0.9-0.1,1.3,0.1C90.9,11,91.2,11.5,91.4,12.1z"/>
	<path d="M113.9,4.9c1.6-0.2,3.1-0.1,4.4,0.4c1.3,0.5,2.3,1.3,3.1,2.4c0.8,1.1,1.3,2.5,1.5,4.1c0.2,1.2,0.1,2.3-0.1,3.3
		c-0.2,1-0.6,1.9-1.2,2.7c-0.6,0.8-1.3,1.5-2.2,2c-0.9,0.5-2,0.8-3.3,1c-1.2,0.2-2.4,0.1-3.4-0.1c-1-0.3-1.9-0.7-2.7-1.3
		c-0.8-0.6-1.4-1.4-1.8-2.3c-0.5-0.9-0.8-2-0.9-3.1c-0.2-1.2-0.1-2.3,0.1-3.3c0.2-1,0.6-1.9,1.2-2.7c0.6-0.8,1.3-1.4,2.2-1.9
		C111.6,5.4,112.7,5.1,113.9,4.9z M119.5,12.2c-0.2-1.1-0.5-2.1-1-2.8c-0.5-0.8-1.1-1.3-1.9-1.7c-0.8-0.3-1.6-0.4-2.5-0.3
		c-0.6,0.1-1.2,0.3-1.7,0.6c-0.5,0.3-0.9,0.7-1.3,1.2s-0.6,1.1-0.7,1.8s-0.1,1.5,0,2.4c0.1,0.9,0.3,1.6,0.7,2.3
		c0.3,0.7,0.7,1.2,1.2,1.6c0.5,0.4,1,0.7,1.6,0.8c0.6,0.2,1.2,0.2,1.8,0.1c0.8-0.1,1.6-0.4,2.2-0.9s1.1-1.2,1.4-2.1
		C119.6,14.5,119.7,13.4,119.5,12.2z"/>
	<path d="M131,17.9l0.1-4.9L127.3,7c-0.3-0.5-0.6-0.9-0.7-1.2s-0.2-0.6-0.2-0.8c0-0.4,0.2-0.7,0.4-0.9c0.3-0.3,0.6-0.4,1.1-0.4
		c0.4,0,0.8,0.1,1,0.4c0.2,0.2,0.6,0.7,1,1.5l2.9,4.8l3.1-4.7c0.2-0.3,0.3-0.5,0.5-0.7s0.3-0.4,0.4-0.5c0.2-0.2,0.3-0.3,0.5-0.4
		c0.2-0.1,0.4-0.1,0.7-0.1c0.4,0,0.7,0.1,1,0.4c0.3,0.3,0.4,0.6,0.4,0.9c0,0.3-0.1,0.5-0.2,0.8c-0.1,0.3-0.4,0.6-0.7,1.1l-4.1,5.9
		l-0.1,4.9c0,0.6-0.2,1.1-0.5,1.4c-0.3,0.3-0.7,0.5-1.2,0.5c-0.5,0-0.9-0.2-1.2-0.5C131.2,19,131,18.5,131,17.9z"/>
	<path d="M152.2,19.7l-0.5-2l-6.4-1l-1.1,1.8c-0.4,0.7-0.7,1.2-1,1.4c-0.3,0.2-0.6,0.3-1.1,0.2c-0.4-0.1-0.7-0.3-1-0.6
		c-0.3-0.3-0.4-0.7-0.3-1c0-0.2,0.1-0.4,0.2-0.6c0.1-0.2,0.3-0.5,0.5-0.9l5.6-9.3c0.2-0.3,0.4-0.6,0.6-1c0.2-0.4,0.4-0.7,0.7-0.9
		c0.2-0.2,0.5-0.4,0.8-0.5c0.3-0.1,0.7-0.1,1.1-0.1c0.4,0.1,0.8,0.2,1.1,0.4s0.5,0.5,0.6,0.7c0.1,0.3,0.3,0.6,0.3,0.9
		c0.1,0.3,0.2,0.7,0.3,1.3l2.6,10.5c0.2,0.8,0.3,1.4,0.2,1.7c-0.1,0.4-0.3,0.7-0.6,0.9s-0.7,0.3-1.2,0.3c-0.3,0-0.5-0.1-0.6-0.2
		c-0.2-0.1-0.3-0.3-0.4-0.4c-0.1-0.2-0.2-0.4-0.3-0.8C152.3,20.3,152.2,20,152.2,19.7z M146.5,14.5l4.7,0.7l-1.4-6.7L146.5,14.5z"/>
	<path d="M166.6,10.8l-1.7,5.2l8-4.1c0.4-0.2,0.7-0.3,1-0.4c0.2-0.1,0.5-0.1,0.9,0.1c0.4,0.1,0.8,0.4,1,0.7c0.2,0.3,0.2,0.7,0.1,1.1
		c-0.1,0.4-0.5,0.8-1.1,1.1l-4.9,2.2l2.4,7.4c0.2,0.5,0.3,1,0.3,1.3c0.1,0.4,0,0.7-0.1,1c-0.1,0.3-0.3,0.6-0.7,0.7
		c-0.3,0.2-0.7,0.2-1.2,0c-0.4-0.1-0.8-0.3-1-0.6c-0.2-0.3-0.4-0.6-0.5-0.9c-0.1-0.4-0.2-0.7-0.2-1l-1.9-6.6l-3.3,1.5l-1,3
		c-0.2,0.6-0.5,1-0.9,1.2c-0.4,0.2-0.8,0.2-1.3,0.1c-0.3-0.1-0.5-0.2-0.7-0.4c-0.2-0.2-0.3-0.5-0.4-0.7c0-0.2,0-0.5,0-0.7
		c0.1-0.3,0.2-0.6,0.3-1.1l3.6-11c0.2-0.6,0.5-1,0.9-1.2c0.4-0.2,0.8-0.2,1.3-0.1c0.5,0.2,0.8,0.4,1,0.8
		C166.8,9.7,166.8,10.2,166.6,10.8z"/>
	<path d="M177.3,27.8l5.1-11.1c0.3-0.6,0.6-0.9,1-1.1c0.4-0.2,0.8-0.1,1.3,0.1c0.4,0.2,0.7,0.5,0.9,0.9c0.1,0.4,0.1,0.9-0.2,1.5
		l-5.1,11.1c-0.3,0.6-0.6,1-1,1.1s-0.8,0.1-1.3-0.1c-0.4-0.2-0.7-0.5-0.8-0.9C177,28.9,177,28.4,177.3,27.8z"/>
	<path d="M199.6,35.6l-2.4-1.7l-2.5,3.6c-0.4,0.5-0.8,0.8-1.2,0.9c-0.4,0.1-0.8,0-1.2-0.3c-0.4-0.3-0.6-0.6-0.7-1.1
		c-0.1-0.4,0.1-0.9,0.5-1.4l6.9-9.7c0.4-0.6,0.8-0.9,1.3-0.9c0.4-0.1,0.9,0.1,1.5,0.5l3.4,2.4c1,0.7,1.7,1.3,2.2,1.9
		c0.4,0.5,0.7,1.1,0.9,1.7c0.2,0.6,0.2,1.2,0,1.9c-0.1,0.6-0.4,1.2-0.9,1.8c-0.9,1.3-2,2-3.3,2C202.6,37.3,201.2,36.7,199.6,35.6z
		 M203,29.3l-1.8-1.3l-2.7,3.9l1.8,1.3c0.6,0.4,1.2,0.8,1.7,0.9c0.5,0.2,1,0.2,1.4,0.1s0.8-0.4,1.1-0.9c0.4-0.6,0.5-1.1,0.5-1.7
		C204.9,30.9,204.2,30.2,203,29.3z"/>
	<path d="M211.5,51.3l0.8-1.9l-4.7-4.5l-1.9,0.9c-0.8,0.4-1.3,0.6-1.6,0.6c-0.3,0.1-0.7-0.1-1-0.4c-0.3-0.3-0.5-0.6-0.5-1.1
		c0-0.4,0.1-0.8,0.3-1c0.1-0.2,0.3-0.3,0.5-0.4c0.2-0.1,0.5-0.3,0.9-0.4l9.9-4.5c0.3-0.1,0.6-0.3,1-0.5s0.8-0.3,1.1-0.4
		c0.3-0.1,0.6-0.1,1,0c0.3,0.1,0.7,0.3,1,0.6c0.3,0.3,0.5,0.6,0.7,1c0.1,0.3,0.1,0.7,0.1,1c0,0.3-0.1,0.6-0.2,0.9
		c-0.1,0.3-0.3,0.7-0.5,1.2l-3.8,10.1c-0.3,0.8-0.5,1.3-0.8,1.5c-0.2,0.3-0.6,0.4-1,0.4s-0.8-0.1-1.1-0.4c-0.2-0.2-0.3-0.4-0.4-0.5
		c-0.1-0.2-0.1-0.4-0.1-0.6c0-0.2,0.1-0.5,0.2-0.8S211.4,51.6,211.5,51.3z M209.8,43.8l3.5,3.3l2.6-6.3L209.8,43.8z"/>
	<path d="M223.4,57.5l-0.7-0.9l-3.9,3c-0.5,0.4-1,0.6-1.4,0.5c-0.4,0-0.8-0.3-1.1-0.6c-0.3-0.4-0.4-0.8-0.3-1.3
		c0.1-0.4,0.4-0.8,0.9-1.2l9.5-7.3c0.5-0.4,1-0.6,1.5-0.5s0.9,0.4,1.3,0.9l3.2,4.2c0.4,0.6,0.8,1.1,1.1,1.5c0.3,0.4,0.5,0.9,0.6,1.3
		c0.1,0.5,0.2,1.1,0.1,1.6s-0.2,1-0.5,1.5c-0.3,0.5-0.6,0.9-1.1,1.2c-0.9,0.7-1.9,1-2.8,0.9c-1-0.1-2-0.6-3-1.5
		c0.1,0.6,0.1,1.3,0,2.1c-0.1,0.8-0.3,1.5-0.6,2.2c-0.3,0.7-0.5,1.3-0.8,1.8c-0.3,0.5-0.5,0.8-0.7,0.9c-0.2,0.1-0.4,0.2-0.6,0.2
		c-0.2,0-0.5,0-0.7-0.1c-0.2-0.1-0.4-0.3-0.6-0.5c-0.2-0.3-0.3-0.6-0.4-0.9c0-0.3,0-0.6,0.1-0.9c0.1-0.3,0.2-0.7,0.4-1.3l0.9-2.3
		c0.3-0.8,0.5-1.5,0.6-2.1s0.1-1,0-1.4C224,58.3,223.8,57.9,223.4,57.5z M229.7,55l-1.8-2.4l-3.4,2.6l1.8,2.3
		c0.5,0.6,0.9,1.1,1.4,1.4c0.4,0.3,0.9,0.5,1.3,0.6c0.4,0,0.8-0.1,1.3-0.5c0.3-0.3,0.6-0.6,0.7-1c0.1-0.4,0.1-0.8,0-1.2
		C230.8,56.5,230.4,55.8,229.7,55z"/>
	<path d="M241.7,74.2l-1.7-3.1l-9.8,5.5c-0.6,0.3-1.1,0.4-1.5,0.3c-0.4-0.1-0.7-0.4-1-0.8c-0.2-0.4-0.3-0.8-0.2-1.3
		c0.1-0.4,0.5-0.8,1-1.1l9.8-5.5l-1.7-3.1c-0.3-0.5-0.4-0.9-0.3-1.2c0.1-0.4,0.3-0.6,0.6-0.8c0.3-0.2,0.7-0.2,1-0.1
		c0.3,0.1,0.6,0.4,0.9,0.9l5.1,9c0.3,0.5,0.4,0.9,0.3,1.3c-0.1,0.4-0.3,0.6-0.6,0.8s-0.7,0.2-1,0.1C242.3,75,242,74.7,241.7,74.2z"
		/>
	<path d="M235.6,88.1l4.6-1.8l4-5.8c0.4-0.5,0.7-0.9,0.9-1.1c0.2-0.2,0.4-0.4,0.6-0.5c0.3-0.1,0.7-0.1,1,0.1
		c0.3,0.2,0.6,0.5,0.8,0.8c0.2,0.4,0.2,0.8,0,1.1c-0.1,0.3-0.5,0.8-1,1.5l-3.3,4.5l5.5,1.1c0.3,0.1,0.6,0.1,0.8,0.2
		c0.2,0,0.5,0.1,0.7,0.2c0.2,0.1,0.4,0.2,0.6,0.3c0.2,0.1,0.3,0.3,0.4,0.6c0.2,0.4,0.2,0.7,0,1.1c-0.1,0.3-0.4,0.6-0.7,0.7
		c-0.3,0.1-0.5,0.1-0.8,0.1s-0.7-0.1-1.3-0.2l-7-1.6l-4.6,1.8c-0.6,0.2-1.1,0.3-1.5,0.1c-0.4-0.2-0.7-0.5-0.9-0.9
		c-0.2-0.4-0.2-0.9,0-1.3S235,88.3,235.6,88.1z"/>
	<path d="M238.4,102.2c-0.1-0.4-0.1-0.8,0.1-1.2s0.5-0.7,1-0.8c0.4-0.1,0.8-0.1,1.2,0.2c0.4,0.2,0.6,0.6,0.7,1
		c0.1,0.4,0.1,0.9-0.1,1.3c-0.2,0.4-0.5,0.6-1,0.8c-0.5,0.1-0.9,0.1-1.3-0.2C238.8,102.9,238.5,102.6,238.4,102.2z M244.8,99.2
		l4.8-1.7c0.9-0.3,1.6-0.5,2-0.6c0.6-0.2,1-0.1,1.4,0.1c0.4,0.2,0.7,0.6,0.8,1.1c0.2,0.6,0.1,1.1-0.3,1.4c-0.4,0.3-0.9,0.6-1.7,0.8
		c-0.4,0.1-0.9,0.2-1.4,0.3l-5.2,0.9c-0.6,0.1-1.1,0.1-1.5,0.1c-0.4-0.1-0.6-0.3-0.7-0.7c-0.1-0.4,0-0.7,0.3-0.9
		C243.8,99.7,244.2,99.4,244.8,99.2z"/>
	<path d="M256.3,124.8l-8.1,0.7c-0.7,0.1-1.3,0.1-1.8,0.1c-0.5,0-1-0.1-1.5-0.3c-0.9-0.3-1.6-0.8-2.1-1.6c-0.5-0.8-0.9-1.8-1-3
		c-0.1-1.1,0-2,0.3-2.8s0.8-1.4,1.4-1.9c0.4-0.3,0.8-0.5,1.3-0.7c0.5-0.2,1-0.3,1.4-0.3c0.5,0,0.9,0.1,1.2,0.3
		c0.3,0.3,0.4,0.6,0.5,1.1c0,0.4-0.1,0.8-0.3,1c-0.2,0.2-0.6,0.4-1.1,0.6c-0.5,0.2-1,0.3-1.3,0.5s-0.6,0.4-0.8,0.7s-0.3,0.7-0.2,1.3
		c0.1,1.4,1.2,2.1,3.2,1.9l8.5-0.7c0.6-0.1,1.1,0,1.5,0.3c0.3,0.3,0.5,0.6,0.6,1.1c0,0.5-0.1,0.9-0.4,1.2S256.9,124.7,256.3,124.8z"
		/>
	<path d="M258,139.3c-0.1,1.7-0.5,3.1-1.3,4.2c-0.7,1.1-1.7,2-3,2.5s-2.7,0.7-4.3,0.6c-1.2-0.1-2.3-0.3-3.2-0.7s-1.8-1-2.4-1.7
		c-0.7-0.7-1.2-1.6-1.5-2.6s-0.4-2.1-0.3-3.4c0.1-1.3,0.4-2.4,0.8-3.3c0.5-1,1.1-1.8,1.8-2.4c0.8-0.6,1.6-1.1,2.7-1.3
		c1-0.3,2.1-0.4,3.3-0.3c1.2,0.1,2.3,0.3,3.2,0.7c1,0.4,1.8,1,2.4,1.7c0.7,0.7,1.1,1.6,1.4,2.6C257.9,136.9,258,138,258,139.3z
		 M249.7,143.3c1.1,0.1,2.1,0,3-0.4c0.9-0.3,1.5-0.8,2-1.5c0.5-0.7,0.7-1.5,0.8-2.4c0-0.6,0-1.3-0.2-1.8c-0.2-0.6-0.5-1.1-0.9-1.5
		c-0.4-0.4-1-0.8-1.7-1.1c-0.7-0.3-1.5-0.4-2.3-0.5c-0.9-0.1-1.7,0-2.4,0.2c-0.7,0.2-1.3,0.5-1.8,0.9c-0.5,0.4-0.9,0.8-1.1,1.4
		c-0.3,0.5-0.4,1.1-0.5,1.8c-0.1,0.8,0.1,1.6,0.4,2.3c0.4,0.7,0.9,1.3,1.7,1.8C247.5,143,248.5,143.3,249.7,143.3z"/>
	<path d="M242.3,151l12,2.3c0.6,0.1,1.1,0.4,1.3,0.7s0.3,0.8,0.2,1.2c-0.1,0.5-0.3,0.8-0.7,1.1c-0.4,0.2-0.9,0.3-1.5,0.2l-12-2.3
		c-0.6-0.1-1.1-0.4-1.3-0.7c-0.3-0.4-0.3-0.8-0.2-1.3c0.1-0.5,0.3-0.8,0.7-1C241.2,151,241.7,150.9,242.3,151z"/>
	<path d="M250.9,167.5l-10.6,3.1l8.8,2.9c0.6,0.2,1,0.5,1.2,0.8c0.2,0.3,0.2,0.7,0.1,1.2c-0.1,0.4-0.4,0.7-0.8,0.9
		c-0.4,0.2-0.8,0.2-1.4,0l-11.6-3.8c-1.3-0.4-1.8-1.2-1.4-2.3c0.1-0.3,0.2-0.5,0.4-0.7c0.1-0.2,0.3-0.4,0.6-0.5
		c0.2-0.1,0.5-0.3,0.8-0.3c0.3-0.1,0.6-0.2,0.9-0.3l10.5-3l-8.6-2.8c-0.6-0.2-0.9-0.5-1.1-0.8c-0.2-0.4-0.2-0.8-0.1-1.2
		c0.1-0.4,0.4-0.7,0.8-0.9c0.4-0.2,0.8-0.2,1.4,0l11.4,3.7c0.5,0.2,0.8,0.3,1.1,0.5c0.3,0.2,0.4,0.5,0.5,0.9c0.1,0.4,0.1,0.7,0,1.1
		c-0.1,0.3-0.2,0.5-0.4,0.7c-0.2,0.2-0.3,0.3-0.5,0.4c-0.2,0.1-0.4,0.2-0.7,0.3S251.2,167.4,250.9,167.5z"/>
	<path d="M235,187l6.4,3.9c0.5,0.3,0.9,0.7,1,1.1c0.1,0.4,0,0.8-0.2,1.2c-0.3,0.4-0.6,0.7-1,0.8s-0.9,0-1.4-0.4l-6.5-4
		c-0.7-0.5-1.4-0.7-2-0.9c-0.6-0.1-1.2-0.1-1.7,0.2c-0.5,0.3-1,0.8-1.5,1.6c-0.7,1.1-0.9,2-0.6,2.8c0.3,0.8,1,1.5,2.1,2.2l6.5,4
		c0.5,0.3,0.9,0.7,1,1.1c0.1,0.4,0,0.8-0.2,1.2c-0.3,0.4-0.6,0.7-1,0.8c-0.4,0.1-0.9,0-1.5-0.4l-6.4-3.9c-1-0.6-1.8-1.3-2.4-1.9
		c-0.6-0.6-0.9-1.4-1.1-2.3c-0.1-0.8-0.1-1.5,0.1-2.3c0.2-0.8,0.6-1.6,1.1-2.5c0.6-1,1.3-1.9,2-2.5c0.7-0.6,1.4-1,2.2-1.2
		c0.8-0.2,1.6-0.2,2.4,0C233,185.9,234,186.4,235,187z"/>
	<path d="M214.9,211.5c-0.7-0.6-1.2-1.3-1.4-2.2c-0.2-0.9-0.2-1.8,0.1-2.8c0.3-1,0.9-2,1.7-3c1-1.2,2.1-2,3.2-2.4
		c0.8-0.3,1.6-0.4,2.4-0.3c0.8,0.1,1.5,0.4,2,0.8c0.3,0.2,0.4,0.6,0.5,0.9c0,0.4-0.1,0.7-0.4,1.1c-0.2,0.3-0.5,0.4-0.8,0.5
		c-0.3,0-0.7,0-1.1-0.2c-0.5-0.2-1-0.3-1.4-0.3c-0.4,0-0.8,0-1.3,0.2s-0.9,0.5-1.3,1.1c-0.6,0.7-1,1.5-1,2.2s0.2,1.3,0.6,1.7
		c0.4,0.3,0.8,0.5,1.3,0.4c0.5,0,0.9-0.2,1.4-0.5c0.5-0.3,1-0.7,1.8-1.2c0.9-0.7,1.8-1.2,2.6-1.6s1.5-0.5,2.3-0.5s1.5,0.4,2.1,0.9
		c0.6,0.6,1.1,1.2,1.3,2c0.2,0.8,0.1,1.7-0.2,2.6c-0.3,0.9-0.9,1.9-1.7,2.8c-0.6,0.7-1.3,1.3-1.9,1.7c-0.6,0.4-1.3,0.6-1.9,0.7
		s-1.1,0.1-1.6,0c-0.5-0.1-0.9-0.3-1.2-0.6c-0.3-0.2-0.4-0.6-0.5-1c0-0.4,0.1-0.8,0.3-1.1c0.2-0.3,0.5-0.4,0.8-0.5
		c0.3,0,0.6,0,1.1,0.1c0.6,0.2,1.2,0.2,1.7,0.1c0.5-0.1,1.1-0.5,1.7-1.2c0.5-0.6,0.9-1.3,0.9-1.9s-0.1-1.1-0.5-1.4
		c-0.2-0.2-0.5-0.3-0.8-0.3c-0.3,0-0.6,0-0.9,0.2c-0.3,0.1-0.6,0.3-0.9,0.5c-0.3,0.2-0.7,0.5-1.3,0.9c-0.7,0.6-1.4,1-2.1,1.4
		c-0.7,0.4-1.3,0.7-1.9,0.8s-1.2,0.2-1.8,0C216.1,212.3,215.5,212,214.9,211.5z"/>
	<path d="M206.4,212.7c0.3-0.3,0.7-0.5,1.1-0.5c0.4,0,0.8,0.2,1.2,0.5c0.3,0.3,0.4,0.7,0.4,1.1c0,0.4-0.2,0.8-0.5,1.1
		c-0.3,0.3-0.7,0.5-1.2,0.5s-0.8-0.2-1.1-0.5c-0.3-0.4-0.5-0.8-0.4-1.2C205.9,213.4,206.1,213,206.4,212.7z M212,217l3.7,3.5
		c0.7,0.7,1.2,1.2,1.5,1.5c0.4,0.4,0.6,0.9,0.6,1.3c0,0.5-0.2,0.9-0.6,1.2c-0.5,0.4-0.9,0.6-1.4,0.4c-0.4-0.2-0.9-0.5-1.5-1.1
		c-0.3-0.3-0.6-0.7-0.9-1.1l-3.2-4.2c-0.4-0.5-0.6-0.9-0.7-1.3c-0.1-0.4,0-0.7,0.3-0.9c0.3-0.3,0.6-0.3,0.9-0.2
		C211.1,216.3,211.5,216.6,212,217z"/>
	<path d="M193.2,238.8l3-1.9l-6-9.5c-0.3-0.5-0.5-1-0.4-1.5c0.1-0.4,0.3-0.8,0.7-1c0.4-0.3,0.8-0.3,1.2-0.2c0.4,0.1,0.8,0.4,1.2,1
		l6,9.5l3-1.9c0.5-0.3,0.9-0.4,1.2-0.4c0.4,0.1,0.6,0.2,0.8,0.6c0.2,0.3,0.3,0.7,0.2,1c-0.1,0.3-0.4,0.7-0.8,0.9l-8.7,5.5
		c-0.5,0.3-0.9,0.4-1.3,0.4c-0.4-0.1-0.6-0.2-0.9-0.6c-0.2-0.3-0.3-0.7-0.1-1C192.4,239.4,192.7,239.1,193.2,238.8z"/>
	<path d="M174.3,235.7l1.5,1.5l5.9-2.7l-0.1-2.1c0-0.8,0-1.4,0-1.7c0.1-0.3,0.3-0.6,0.8-0.8c0.4-0.2,0.8-0.2,1.2-0.1
		s0.7,0.4,0.8,0.7c0.1,0.2,0.1,0.4,0.2,0.6c0,0.2,0,0.6,0.1,1l0.4,10.9c0,0.3,0,0.7,0,1.1c0,0.4,0,0.8-0.1,1.1
		c-0.1,0.3-0.2,0.6-0.4,0.9c-0.2,0.3-0.5,0.5-0.9,0.7c-0.4,0.2-0.8,0.3-1.1,0.2c-0.3,0-0.7-0.1-0.9-0.3c-0.3-0.2-0.5-0.4-0.8-0.6
		c-0.2-0.2-0.6-0.5-0.9-0.9l-8-7.4c-0.6-0.6-1-1-1.1-1.3c-0.1-0.3-0.1-0.7,0-1.1c0.2-0.4,0.4-0.7,0.8-0.9c0.2-0.1,0.5-0.2,0.7-0.2
		s0.4,0,0.6,0.1c0.2,0.1,0.4,0.2,0.7,0.5C173.9,235.3,174.1,235.5,174.3,235.7z M181.9,236.9l-4.4,2l4.8,4.8L181.9,236.9z"/>
	<path d="M167,251.1l-1.4-5.2l-4.5,7.9c-0.2,0.4-0.4,0.7-0.6,0.9c-0.2,0.2-0.4,0.3-0.8,0.4c-0.5,0.1-0.8,0.1-1.2-0.1
		c-0.3-0.2-0.6-0.5-0.7-0.8c-0.1-0.4,0-0.9,0.3-1.5l2.9-4.5l-6-4.9c-0.4-0.3-0.8-0.6-1-0.9c-0.2-0.3-0.4-0.6-0.5-0.9
		c-0.1-0.3,0-0.7,0.2-1c0.2-0.3,0.5-0.5,1-0.7c0.4-0.1,0.8-0.1,1.1,0c0.3,0.1,0.6,0.3,0.9,0.5c0.3,0.2,0.5,0.5,0.7,0.7l5.2,4.5
		l1.9-3.1l-0.8-3.1c-0.2-0.6-0.1-1.1,0.1-1.5s0.6-0.6,1-0.8c0.3-0.1,0.5-0.1,0.8,0c0.3,0.1,0.5,0.2,0.7,0.4c0.2,0.2,0.3,0.4,0.4,0.6
		c0.1,0.2,0.2,0.6,0.3,1.1l3,11.1c0.2,0.6,0.2,1.1,0,1.5s-0.5,0.6-1,0.8c-0.5,0.1-0.9,0.1-1.3-0.1
		C167.5,252.1,167.2,251.7,167,251.1z"/>
	<path d="M144.4,257.5c-1.7,0.2-3.1,0-4.4-0.5c-1.3-0.5-2.2-1.4-3-2.5c-0.7-1.1-1.2-2.5-1.4-4.1c-0.1-1.2-0.1-2.3,0.2-3.3
		s0.6-1.9,1.2-2.7c0.6-0.8,1.4-1.4,2.3-1.9s2-0.8,3.3-0.9c1.2-0.1,2.4-0.1,3.4,0.2c1,0.3,1.9,0.7,2.6,1.4c0.7,0.6,1.3,1.4,1.8,2.4
		s0.7,2,0.8,3.2c0.1,1.2,0.1,2.3-0.2,3.3c-0.2,1-0.7,1.9-1.3,2.7c-0.6,0.8-1.4,1.4-2.3,1.8C146.7,257.1,145.6,257.4,144.4,257.5z
		 M138.9,250.1c0.1,1.1,0.4,2.1,0.9,2.9c0.5,0.8,1.1,1.4,1.8,1.7c0.7,0.3,1.6,0.5,2.5,0.4c0.6-0.1,1.2-0.2,1.8-0.5
		c0.5-0.3,1-0.7,1.3-1.2c0.3-0.5,0.6-1.1,0.8-1.8c0.2-0.7,0.2-1.5,0.1-2.4c-0.1-0.9-0.3-1.7-0.6-2.3s-0.7-1.2-1.2-1.7
		c-0.5-0.4-1-0.7-1.5-0.9c-0.6-0.2-1.2-0.2-1.8-0.2c-0.8,0.1-1.6,0.4-2.2,0.8s-1.1,1.1-1.5,2C138.9,247.8,138.8,248.9,138.9,250.1z"
		/>
	<path d="M127.6,244.1l-0.2,4.9l3.6,6c0.3,0.5,0.5,1,0.7,1.3c0.1,0.3,0.2,0.6,0.2,0.8c0,0.4-0.2,0.7-0.5,0.9
		c-0.3,0.2-0.7,0.4-1.1,0.3c-0.4,0-0.8-0.2-1-0.4s-0.5-0.8-1-1.5l-2.8-4.8l-3.2,4.6c-0.2,0.3-0.4,0.5-0.5,0.7s-0.3,0.4-0.4,0.5
		s-0.3,0.3-0.5,0.4c-0.2,0.1-0.4,0.1-0.7,0.1c-0.4,0-0.7-0.2-1-0.4c-0.3-0.3-0.4-0.6-0.4-0.9c0-0.3,0.1-0.5,0.2-0.8
		c0.2-0.3,0.4-0.6,0.8-1.1l4.3-5.8l0.2-4.9c0-0.6,0.2-1.1,0.5-1.4c0.3-0.3,0.7-0.4,1.2-0.4c0.5,0,0.9,0.2,1.1,0.5
		C127.5,242.9,127.6,243.4,127.6,244.1z"/>
	<path d="M106.5,241.6l0.4,2.1l6.4,1.2l1.1-1.8c0.4-0.7,0.8-1.2,1-1.4c0.3-0.2,0.6-0.3,1.1-0.2c0.4,0.1,0.7,0.3,1,0.6
		s0.3,0.7,0.3,1.1c0,0.2-0.1,0.4-0.2,0.6c-0.1,0.2-0.3,0.5-0.5,0.9l-5.9,9.1c-0.2,0.3-0.4,0.6-0.6,0.9c-0.2,0.4-0.5,0.7-0.7,0.9
		s-0.5,0.4-0.8,0.5c-0.3,0.1-0.7,0.1-1.1,0c-0.4-0.1-0.8-0.2-1.1-0.5c-0.3-0.2-0.5-0.5-0.6-0.8c-0.1-0.3-0.2-0.6-0.3-0.9
		c-0.1-0.3-0.2-0.7-0.3-1.3l-2.3-10.6c-0.2-0.8-0.2-1.4-0.2-1.7c0.1-0.4,0.3-0.6,0.6-0.9c0.4-0.2,0.8-0.3,1.2-0.2
		c0.3,0,0.5,0.1,0.6,0.3c0.2,0.1,0.3,0.3,0.4,0.4c0.1,0.2,0.2,0.4,0.3,0.8S106.5,241.3,106.5,241.6z M112.1,247l-4.7-0.9l1.2,6.7
		L112.1,247z"/>
	<path d="M91.8,250.1l1.8-5.1l-8.2,3.9c-0.4,0.2-0.7,0.3-1,0.4c-0.3,0.1-0.5,0-0.9-0.1c-0.4-0.2-0.8-0.4-0.9-0.8
		c-0.2-0.3-0.2-0.7-0.1-1.1c0.2-0.4,0.5-0.8,1.1-1l4.9-2.1l-2.2-7.5c-0.2-0.5-0.3-1-0.3-1.3c0-0.4,0-0.7,0.1-1
		c0.1-0.3,0.4-0.6,0.7-0.7c0.4-0.1,0.8-0.1,1.2,0c0.4,0.2,0.7,0.4,0.9,0.6c0.2,0.3,0.3,0.6,0.4,0.9c0.1,0.4,0.2,0.7,0.2,1l1.7,6.7
		l3.3-1.4l1.1-3c0.2-0.6,0.5-1,0.9-1.2c0.4-0.2,0.8-0.2,1.3,0c0.3,0.1,0.5,0.2,0.7,0.5c0.2,0.2,0.3,0.5,0.4,0.7c0,0.2,0,0.5-0.1,0.7
		c-0.1,0.3-0.2,0.6-0.3,1.1l-3.9,10.8c-0.2,0.6-0.5,1-0.9,1.2c-0.4,0.2-0.8,0.2-1.3,0.1c-0.5-0.2-0.8-0.4-1-0.8
		S91.6,250.7,91.8,250.1z"/>
	<path d="M81.7,232.8l-5.5,10.9c-0.3,0.6-0.6,0.9-1,1.1c-0.4,0.2-0.8,0.1-1.3-0.1c-0.4-0.2-0.7-0.5-0.8-1c-0.1-0.4-0.1-0.9,0.2-1.5
		l5.5-10.9c0.3-0.6,0.6-0.9,1-1.1c0.4-0.1,0.8-0.1,1.3,0.1c0.4,0.2,0.7,0.5,0.8,0.9C82,231.7,81.9,232.2,81.7,232.8z"/>
	<path d="M59.7,224.4l2.4,1.8l2.6-3.5c0.4-0.5,0.8-0.8,1.2-0.9c0.4-0.1,0.8,0,1.2,0.3c0.4,0.3,0.6,0.7,0.7,1.1
		c0,0.4-0.1,0.9-0.5,1.4l-7.2,9.5c-0.4,0.6-0.8,0.8-1.3,0.9s-0.9-0.2-1.5-0.6l-3.3-2.5c-1-0.7-1.7-1.4-2.1-1.9
		c-0.4-0.5-0.7-1.1-0.8-1.7c-0.1-0.6-0.1-1.2,0-1.9c0.2-0.6,0.5-1.2,0.9-1.8c1-1.3,2.1-1.9,3.4-1.9
		C56.6,222.6,58.1,223.2,59.7,224.4z M56,230.5l1.7,1.3l2.9-3.8l-1.7-1.3c-0.6-0.5-1.2-0.8-1.7-1c-0.5-0.2-1-0.2-1.4-0.1
		s-0.8,0.4-1.2,0.9c-0.4,0.5-0.6,1.1-0.5,1.7C54.2,228.9,54.8,229.6,56,230.5z"/>
	<path d="M48.2,208.3l-0.8,1.9l4.6,4.6l1.9-0.9c0.8-0.3,1.3-0.5,1.7-0.6c0.3,0,0.7,0.1,1,0.4c0.3,0.3,0.4,0.6,0.5,1.1
		c0,0.4-0.1,0.8-0.4,1c-0.2,0.1-0.3,0.3-0.5,0.4c-0.2,0.1-0.5,0.2-0.9,0.4l-10,4.2c-0.3,0.1-0.6,0.3-1,0.4s-0.8,0.3-1.1,0.3
		s-0.6,0-1-0.1c-0.3-0.1-0.7-0.3-1-0.6c-0.3-0.3-0.5-0.6-0.6-1c-0.1-0.3-0.1-0.7-0.1-1s0.1-0.6,0.3-0.9c0.1-0.3,0.3-0.7,0.5-1.2
		l4.1-10c0.3-0.8,0.6-1.3,0.8-1.5c0.3-0.3,0.6-0.4,1-0.4c0.4,0,0.8,0.2,1.1,0.5c0.2,0.2,0.3,0.4,0.4,0.6c0.1,0.2,0.1,0.4,0.1,0.6
		c0,0.2-0.1,0.5-0.2,0.8C48.4,207.7,48.3,208,48.2,208.3z M49.7,215.9l-3.4-3.4l-2.8,6.2L49.7,215.9z"/>
	<path d="M36.5,201.8l0.7,0.9l4-2.9c0.5-0.4,1-0.5,1.4-0.5s0.8,0.3,1.1,0.7c0.3,0.4,0.4,0.8,0.3,1.3c-0.1,0.4-0.4,0.8-0.9,1.2
		l-9.7,7c-0.5,0.4-1,0.6-1.5,0.5c-0.4-0.1-0.8-0.4-1.3-1l-3.1-4.3c-0.4-0.6-0.8-1.1-1-1.6s-0.4-0.9-0.5-1.3
		c-0.1-0.5-0.2-1.1-0.1-1.6s0.3-1,0.6-1.5c0.3-0.5,0.7-0.9,1.1-1.2c0.9-0.7,1.9-0.9,2.8-0.8c1,0.1,2,0.7,3,1.6
		c-0.1-0.6-0.1-1.3,0.1-2.1s0.4-1.5,0.7-2.2c0.3-0.7,0.6-1.3,0.9-1.8c0.3-0.5,0.5-0.8,0.7-0.9c0.2-0.1,0.4-0.2,0.6-0.2
		c0.2,0,0.5,0,0.7,0.2c0.2,0.1,0.4,0.3,0.6,0.6c0.2,0.3,0.3,0.6,0.3,0.9c0,0.3,0,0.6-0.1,0.9c-0.1,0.3-0.3,0.7-0.5,1.2l-0.9,2.3
		c-0.3,0.8-0.6,1.5-0.7,2c-0.1,0.5-0.1,1,0,1.4C35.9,200.9,36.1,201.3,36.5,201.8z M30.1,204.1l1.8,2.4l3.5-2.5l-1.7-2.4
		c-0.5-0.6-0.9-1.1-1.3-1.5s-0.8-0.6-1.3-0.6c-0.4,0-0.9,0.1-1.3,0.4c-0.3,0.3-0.6,0.6-0.7,0.9c-0.1,0.4-0.1,0.8,0,1.2
		C29.1,202.5,29.4,203.2,30.1,204.1z"/>
	<path d="M18.6,184.5l1.7,3.1l10-5.3c0.6-0.3,1.1-0.4,1.5-0.3c0.4,0.1,0.7,0.4,1,0.8c0.2,0.4,0.3,0.8,0.1,1.3
		c-0.1,0.4-0.5,0.8-1.1,1.1l-10,5.3l1.7,3.1c0.3,0.5,0.3,0.9,0.3,1.3c-0.1,0.3-0.3,0.6-0.6,0.8c-0.4,0.2-0.7,0.2-1,0.1
		s-0.6-0.4-0.9-0.9l-4.8-9.1c-0.3-0.5-0.4-0.9-0.3-1.3c0.1-0.4,0.3-0.6,0.6-0.8c0.3-0.2,0.7-0.2,1-0.1
		C18.1,183.7,18.4,184,18.6,184.5z"/>
	<path d="M25.1,170.8l-4.6,1.7l-4.2,5.7c-0.4,0.5-0.7,0.9-0.9,1.1c-0.2,0.2-0.4,0.4-0.7,0.5c-0.3,0.1-0.7,0.1-1-0.1
		c-0.3-0.2-0.6-0.5-0.7-0.9c-0.2-0.4-0.2-0.8,0-1.1c0.2-0.3,0.5-0.8,1-1.5l3.4-4.4l-5.5-1.3c-0.3-0.1-0.6-0.1-0.8-0.2
		c-0.2-0.1-0.4-0.1-0.7-0.2s-0.4-0.2-0.5-0.3c-0.1-0.1-0.3-0.3-0.4-0.6c-0.1-0.4-0.1-0.7,0-1.1s0.4-0.6,0.7-0.7
		c0.3-0.1,0.5-0.1,0.8-0.1s0.7,0.1,1.3,0.3l7,1.8l4.6-1.7c0.6-0.2,1.1-0.2,1.5-0.1c0.4,0.2,0.7,0.5,0.8,0.9c0.2,0.5,0.1,0.9,0,1.3
		C26.1,170.3,25.7,170.6,25.1,170.8z"/>
	<path d="M16.3,159.4l-4.8,1.5c-0.9,0.3-1.6,0.5-2,0.6c-0.6,0.1-1,0.1-1.4-0.1c-0.4-0.2-0.6-0.6-0.8-1.1c-0.1-0.6,0-1.1,0.3-1.4
		c0.4-0.3,0.9-0.5,1.7-0.7c0.5-0.1,0.9-0.2,1.4-0.3l5.2-0.7c0.6-0.1,1.1-0.1,1.5,0c0.4,0.1,0.6,0.3,0.7,0.7c0.1,0.4,0,0.7-0.3,0.9
		C17.4,159,16.9,159.2,16.3,159.4z M22.8,156.6c0.1,0.4,0.1,0.8-0.1,1.2c-0.2,0.4-0.5,0.6-1,0.8c-0.4,0.1-0.8,0-1.2-0.2
		c-0.4-0.2-0.6-0.6-0.7-1c-0.1-0.4,0-0.9,0.2-1.3c0.2-0.4,0.5-0.6,1-0.7c0.5-0.1,0.9,0,1.2,0.2C22.4,155.8,22.7,156.2,22.8,156.6z"
		/>
	<path d="M5.6,133.5l8.1-0.5c0.7,0,1.3,0,1.8,0c0.5,0,1,0.1,1.5,0.3c0.9,0.3,1.6,0.9,2.1,1.7c0.5,0.8,0.8,1.8,0.9,3
		c0.1,1.1-0.1,2-0.3,2.7c-0.3,0.7-0.8,1.4-1.5,1.8c-0.4,0.3-0.8,0.5-1.3,0.6c-0.5,0.2-1,0.3-1.5,0.3c-0.5,0-0.9-0.1-1.2-0.4
		s-0.4-0.6-0.5-1.1c0-0.4,0.1-0.8,0.3-1c0.2-0.2,0.6-0.4,1.1-0.6c0.5-0.2,1-0.3,1.3-0.4s0.6-0.4,0.8-0.7c0.2-0.3,0.3-0.7,0.3-1.3
		c-0.1-1.4-1.1-2.1-3.2-2l-8.6,0.5c-0.6,0-1.1-0.1-1.4-0.3s-0.5-0.7-0.5-1.1c0-0.5,0.1-0.9,0.4-1.2C4.5,133.7,5,133.5,5.6,133.5z"/>
	<path d="M4.3,119c0.2-1.7,0.6-3,1.4-4.2s1.8-1.9,3-2.4c1.3-0.5,2.7-0.7,4.3-0.5c1.2,0.1,2.3,0.4,3.2,0.8s1.7,1,2.4,1.7
		c0.7,0.7,1.1,1.6,1.4,2.6c0.3,1,0.4,2.1,0.2,3.4c-0.1,1.2-0.4,2.3-0.9,3.3c-0.5,0.9-1.1,1.7-1.9,2.3c-0.8,0.6-1.7,1-2.7,1.3
		c-1,0.2-2.1,0.3-3.3,0.2c-1.2-0.1-2.3-0.4-3.2-0.8c-1-0.4-1.7-1-2.4-1.8c-0.6-0.7-1.1-1.6-1.4-2.6C4.3,121.3,4.2,120.2,4.3,119z
		 M12.7,115.2c-1.1-0.1-2.1,0-3,0.3s-1.5,0.8-2,1.4c-0.5,0.7-0.8,1.4-0.9,2.4c-0.1,0.6,0,1.3,0.2,1.8c0.2,0.6,0.5,1.1,0.9,1.5
		c0.4,0.4,1,0.8,1.6,1.1s1.4,0.5,2.3,0.6c0.9,0.1,1.7,0,2.4-0.1c0.7-0.2,1.3-0.4,1.9-0.8c0.5-0.4,0.9-0.8,1.2-1.3
		c0.3-0.5,0.5-1.1,0.5-1.7c0.1-0.8,0-1.6-0.4-2.3c-0.3-0.7-0.9-1.3-1.7-1.8C14.9,115.6,13.9,115.3,12.7,115.2z"/>
	<path d="M20.3,107.7L8.4,105c-0.6-0.1-1-0.4-1.3-0.8c-0.2-0.4-0.3-0.8-0.2-1.2c0.1-0.5,0.3-0.8,0.7-1.1c0.4-0.2,0.9-0.3,1.5-0.1
		l11.9,2.7c0.6,0.1,1.1,0.4,1.3,0.8c0.2,0.4,0.3,0.8,0.2,1.3c-0.1,0.5-0.3,0.8-0.7,1C21.4,107.8,20.9,107.9,20.3,107.7z"/>
	<path d="M12.2,91l10.7-2.8L14.3,85c-0.6-0.2-0.9-0.5-1.1-0.8c-0.2-0.4-0.2-0.7-0.1-1.2c0.2-0.4,0.4-0.7,0.8-0.9
		c0.4-0.2,0.8-0.1,1.4,0.1l11.5,4.1c1.3,0.5,1.7,1.2,1.3,2.3c-0.1,0.3-0.2,0.5-0.4,0.7c-0.2,0.2-0.3,0.4-0.6,0.5
		c-0.2,0.1-0.5,0.2-0.8,0.3c-0.3,0.1-0.6,0.2-0.9,0.2l-10.6,2.7l8.5,3.1c0.6,0.2,0.9,0.5,1.1,0.9c0.2,0.4,0.2,0.8,0.1,1.2
		c-0.2,0.4-0.4,0.7-0.8,0.9s-0.8,0.1-1.4-0.1l-11.3-4c-0.5-0.2-0.8-0.4-1.1-0.6c-0.3-0.2-0.4-0.5-0.5-0.9c-0.1-0.4-0.1-0.7,0.1-1.1
		c0.1-0.3,0.2-0.5,0.4-0.7c0.2-0.2,0.3-0.3,0.5-0.4s0.4-0.2,0.7-0.3C11.6,91.1,11.9,91,12.2,91z"/>
	<path d="M28.7,72l-6.2-4.1c-0.5-0.3-0.8-0.7-1-1.2c-0.1-0.4,0-0.8,0.2-1.2c0.3-0.4,0.6-0.7,1.1-0.7s0.9,0.1,1.4,0.4l6.4,4.2
		c0.7,0.5,1.4,0.8,2,0.9c0.6,0.2,1.2,0.1,1.7-0.1c0.5-0.3,1.1-0.8,1.6-1.5c0.7-1.1,0.9-2,0.7-2.8s-0.9-1.6-2-2.3l-6.4-4.2
		c-0.5-0.4-0.9-0.7-1-1.2c-0.1-0.4,0-0.8,0.2-1.2c0.3-0.4,0.6-0.7,1-0.7s0.9,0.1,1.4,0.4l6.2,4.1c1,0.7,1.8,1.3,2.3,2s0.9,1.4,1,2.3
		c0.1,0.8,0.1,1.5-0.2,2.3c-0.2,0.8-0.6,1.6-1.2,2.5c-0.7,1-1.4,1.8-2.1,2.5c-0.7,0.6-1.4,1-2.2,1.2c-0.8,0.2-1.6,0.1-2.4-0.1
		S29.7,72.6,28.7,72z"/>
	<path d="M49.5,48c0.7,0.6,1.1,1.4,1.4,2.3c0.2,0.9,0.2,1.8-0.2,2.8c-0.3,1-0.9,2-1.8,3c-1.1,1.2-2.2,1.9-3.3,2.3
		c-0.8,0.3-1.6,0.3-2.4,0.2c-0.8-0.1-1.5-0.4-2-0.9c-0.3-0.3-0.4-0.6-0.4-1c0-0.4,0.1-0.7,0.4-1c0.2-0.3,0.5-0.4,0.8-0.4
		c0.3,0,0.7,0,1.1,0.2c0.5,0.2,1,0.3,1.4,0.3s0.8,0,1.3-0.2c0.4-0.2,0.9-0.5,1.4-1c0.6-0.7,1-1.4,1.1-2.2c0.1-0.7-0.1-1.3-0.6-1.8
		c-0.4-0.3-0.8-0.5-1.3-0.5c-0.5,0-0.9,0.2-1.4,0.4c-0.5,0.3-1.1,0.7-1.8,1.2c-1,0.7-1.8,1.2-2.6,1.5c-0.8,0.3-1.5,0.5-2.3,0.4
		c-0.8-0.1-1.5-0.4-2.1-1c-0.6-0.6-1-1.3-1.2-2.1c-0.2-0.8-0.1-1.7,0.3-2.6c0.4-0.9,0.9-1.8,1.8-2.7c0.7-0.7,1.3-1.3,2-1.6
		c0.7-0.4,1.3-0.6,1.9-0.7c0.6-0.1,1.1-0.1,1.6,0.1c0.5,0.1,0.8,0.3,1.2,0.6c0.3,0.3,0.4,0.6,0.5,1c0,0.4-0.1,0.8-0.4,1.1
		c-0.3,0.3-0.5,0.4-0.8,0.4c-0.3,0-0.6,0-1.1-0.1c-0.6-0.2-1.2-0.2-1.7-0.1c-0.5,0.1-1.1,0.5-1.7,1.1c-0.6,0.6-0.9,1.2-1,1.9
		c-0.1,0.6,0.1,1.1,0.4,1.4c0.2,0.2,0.5,0.3,0.8,0.3c0.3,0,0.6,0,0.9-0.1c0.3-0.1,0.6-0.3,0.9-0.4c0.3-0.2,0.7-0.5,1.3-0.9
		c0.8-0.5,1.5-1,2.2-1.4c0.7-0.4,1.3-0.6,1.9-0.8c0.6-0.1,1.2-0.1,1.8,0C48.3,47.2,48.9,47.5,49.5,48z"/>
	<path d="M52.6,42.6L49,39c-0.7-0.7-1.2-1.2-1.5-1.5c-0.4-0.4-0.6-0.9-0.5-1.3c0-0.5,0.2-0.9,0.6-1.2c0.5-0.4,0.9-0.5,1.4-0.3
		c0.4,0.2,0.9,0.6,1.4,1.2c0.3,0.4,0.6,0.7,0.9,1.1l3.1,4.2c0.4,0.5,0.6,0.9,0.7,1.3c0.1,0.4,0,0.7-0.3,0.9
		c-0.3,0.3-0.6,0.3-0.9,0.2C53.4,43.4,53,43.1,52.6,42.6z M58,47.1c-0.3,0.3-0.7,0.4-1.2,0.4c-0.4,0-0.8-0.2-1.1-0.6
		c-0.3-0.3-0.4-0.7-0.4-1.2c0-0.4,0.2-0.8,0.6-1.1c0.3-0.3,0.7-0.4,1.2-0.4c0.4,0,0.8,0.2,1.1,0.5c0.3,0.4,0.5,0.8,0.4,1.2
		C58.6,46.4,58.4,46.8,58,47.1z"/>
</g>
</svg>
