<?xml version="1.0" encoding="utf-8"?>
<!-- Generator: Adobe Illustrator 22.0.1, SVG Export Plug-In . SVG Version: 6.00 Build 0)  -->
<svg version="1.1" id="圖層_1" xmlns="http://www.w3.org/2000/svg" xmlns:xlink="http://www.w3.org/1999/xlink" x="0px" y="0px"
	 viewBox="0 0 378.6 378.6" style="enable-background:new 0 0 378.6 378.6;" xml:space="preserve">
<style type="text/css">
	.st0{opacity:0.9;fill:#B4000D;enable-background:new    ;}
</style>
<g>
	<path d="M7.2,155.5l2.3-10.4l3.5,0.8l-0.8,3.4l15.2,3.4l-0.8,3.6l-15.2-3.4l-0.7,3.3L7.2,155.5z"/>
	<path class="st0" d="M13.1,133.1l1.2-3.5l20.6-0.9l-1.2,3.6l-4.2,0.2l-2.5,7.4l3.3,2.7l-1.2,3.6L13.1,133.1z M18.5,132.9l5.4,4.6
		l1.6-4.9L18.5,132.9z"/>
	<path d="M19.6,115.8l1.6-3.3l6,2.9l-3.7-7.6l1.9-4l4.8,9.8l12.8-2l-1.9,3.9l-10.3,1.7l7.7,3.7l-1.6,3.3L19.6,115.8z"/>
	<path class="st0" d="M33.6,89.1c1.5-2.3,3.6-3.7,6.3-4.3c2.7-0.6,5.3-0.1,7.6,1.5c2.4,1.5,3.8,3.6,4.4,6.3c0.6,2.7,0.1,5.2-1.4,7.5
		c-1.6,2.4-3.7,3.9-6.4,4.4s-5.2,0-7.5-1.5c-1.5-1-2.7-2.3-3.5-3.9S31.9,95.8,32,94S32.6,90.6,33.6,89.1z M36.6,91.1
		c-1,1.5-1.3,3.1-0.9,4.8c0.4,1.7,1.4,3.1,3,4.1c1.8,1.2,3.6,1.4,5.5,0.8c1.5-0.5,2.6-1.3,3.4-2.6c0.9-1.5,1.2-3,0.8-4.7
		s-1.4-3.1-2.9-4.1s-3.2-1.3-4.9-1C38.9,88.7,37.5,89.6,36.6,91.1z"/>
	<path d="M43.5,75.7l2.5-3l7.6,1.8l-2.9-7.2l2.5-2.9l4.6,11.3l6.3,5.4l-2.4,2.8l-6.3-5.4L43.5,75.7z"/>
	<path class="st0" d="M62.7,55l2.7-2.5l18.4,9.2L81,64.3l-3.8-1.9l-5.8,5.3l1.5,4l-2.8,2.6L62.7,55z M67.6,57.5l2.6,6.6l3.8-3.5
		L67.6,57.5z"/>
	<path d="M76.8,43.1l3-2.1l3.8,5.4L84,38l3.6-2.5l-0.5,10.9l12.2,4.4l-3.5,2.5L86,49.6l4.9,7l-3,2.1L76.8,43.1z"/>
	<path class="st0" d="M93.5,31.8l3.1-1.8l9.7,16.6l-3.1,1.8L93.5,31.8z"/>
	<path d="M123.9,16.9l3.3-1.1l11.8,9.4l-4-12l3.5-1.1l6,18.2l-3.3,1.1L129.5,22l4,12l-3.5,1.1L123.9,16.9z"/>
	<path class="st0" d="M146.5,10.1l3.5-0.8l4.3,18.7l-3.5,0.8L146.5,10.1z"/>
	<path d="M176.1,8.5l-2.3,2.8c-1.8-1.5-3.8-2.1-6-1.9c-1.9,0.2-3.4,1-4.5,2.4s-1.6,3-1.4,4.8c0.2,1.8,1.1,3.3,2.5,4.4
		s3.2,1.6,5.1,1.3c1.3-0.2,2.3-0.5,3.1-1.2s1.4-1.5,1.8-2.7l-5.5,0.7l-0.4-3.4l9.6-1.2l0.1,0.8c0.2,1.7,0,3.3-0.7,4.9
		s-1.7,2.9-2.9,3.8s-2.8,1.5-4.7,1.8c-2,0.2-3.8,0-5.5-0.6c-1.7-0.7-3-1.7-4.1-3.2s-1.8-3.1-2-5c-0.3-2.5,0.3-4.8,1.7-6.9
		c1.7-2.5,4.2-3.9,7.3-4.3c1.7-0.2,3.2-0.1,4.8,0.4C173.5,6.6,174.8,7.4,176.1,8.5z"/>
	<path class="st0" d="M185.2,5l3.7,0.1l-0.1,7.2l6.4,0.1l0.1-7.2l3.7,0.1l-0.3,19.2l-3.7-0.1l0.1-8.4l-6.4-0.1l-0.1,8.4l-3.7-0.1
		L185.2,5z"/>
	<path d="M205.6,5.7L216.2,7l-0.4,3.6l-3.5-0.4l-1.8,15.5l-3.7-0.4l1.8-15.5l-3.4-0.4L205.6,5.7z"/>
	<path class="st0" d="M221,23.2c0.6,0.1,1.1,0.4,1.4,0.9c0.4,0.5,0.5,1.1,0.4,1.7s-0.4,1.1-0.9,1.4c-0.5,0.4-1.1,0.5-1.7,0.4
		c-0.6-0.1-1.1-0.4-1.4-0.9c-0.3-0.5-0.5-1.1-0.3-1.7c0.1-0.6,0.4-1.1,0.9-1.4C219.8,23.2,220.4,23.1,221,23.2z M222.1,7.5l3.5,0.7
		L223,22l-3.5-0.7L222.1,7.5z"/>
</g>
</svg>
