<?xml version="1.0" encoding="utf-8"?>
<!-- Generator: Adobe Illustrator 22.0.1, SVG Export Plug-In . SVG Version: 6.00 Build 0)  -->
<svg version="1.1" id="圖層_1" xmlns="http://www.w3.org/2000/svg" xmlns:xlink="http://www.w3.org/1999/xlink" x="0px" y="0px"
	 viewBox="0 0 117 117" style="enable-background:new 0 0 117 117;" xml:space="preserve">
<style type="text/css">
	.st0{fill:#EB488B;}
	.st1{fill:#00ADEE;}
	.st2{fill:#00A551;}
	.st3{fill:#EDFF00;}
	.st4{display:none;}
</style>
<g id="BG">
</g>
<g id="Layer_1">
	<g>
		<g>
			<path class="st0" d="M58.9,54.7c-3.6-1.4-34.4-14-33.5-30.7c0.3-4.7,2-8.1,5.2-10.3c2.2-1.4,4.9-2.2,8.2-2.3
				c3.2-0.1,6.3,0.5,8.3,1c2.6-3.1,7.9-8.5,14.1-8.7c4.1-0.1,7.6,1.7,10.3,5.3c10.6,12.9-7.4,41.7-9,44.2l-1.1,2.4L58.9,54.7z
				 M38.9,17.5c-1.2,0-2.3,0.2-3.2,0.5c-0.5,0.1-1.1,0.4-1.7,0.8c-0.9,0.6-2.2,1.9-2.4,5.4c-0.5,9.1,16.7,19,27.1,23.5
				c3.5-6,14.7-26.9,8-34.9c-1.7-2-3.3-3-5-3l-0.2,0c-4.6,0.2-9.5,6.1-10.4,7.5l-1.4,2.4l-2.2-0.9c-0.1,0-0.3-0.1-0.5-0.1
				C45.8,18.3,42.3,17.4,38.9,17.5z"/>
			<path class="st0" d="M60.5,53.3l-0.9-0.3c-1.3-0.5-33.1-13.2-32.3-28.8c0.2-4.1,1.7-7,4.4-8.8c5.3-3.5,13.6-1.5,16.2-0.8
				c1.7-2.2,7.2-8.7,13.5-9c3.3-0.1,6.3,1.3,8.7,4.6l0,0c9.9,12.1-8.4,41.1-9.2,42.2L60.5,53.3z M35.1,16.2c-0.7,0.2-1.5,0.6-2.1,1
				c-2.1,1.4-3.2,3.6-3.3,6.9C28.9,36.5,54.2,47.9,59.5,50c2.9-4.8,16.6-28.8,8.7-38.5l0,0c-2-2.5-4.3-3.8-6.7-3.6
				c-6.2,0.3-12.1,8.6-12,8.7L49,17.4L48.1,17C47.8,17,40.5,14.5,35.1,16.2z"/>
		</g>
		<g>
			<path class="st1" d="M61.2,108.4c-4,0.1-7.6-1.7-10.2-5.3c-9.3-11.4,3-34.6,8.7-44.1l0.2-0.3l1.4-2.2l2.4,0.9
				c3.6,1.4,34.4,14,33.5,30.7c-0.3,4.7-2,8.1-5.1,10.2c-0.9,0.7-1.9,1.2-3.3,1.7c-1.4,0.5-3.1,0.7-4.9,0.8
				c-3.3,0.1-6.5-0.6-8.4-1.1C72.8,102.8,67.4,108.1,61.2,108.4L61.2,108.4L61.2,108.4z M63.9,64.2c-9.5,16.6-12.5,29.6-8.1,35
				c1.6,2,3.3,3,5,2.9l0.2,0c3.1-0.1,6.9-2.8,10.7-7.6c0.1-0.1,0.1-0.1,0.2-0.2l1.1-2l2.8,1c1.1,0.4,4.5,1.3,7.9,1.2l0,0
				c2.1-0.1,3.7-0.5,5-1.3c1-0.6,2.3-1.9,2.5-5.5C91.4,79.5,77.5,70.3,63.9,64.2z"/>
			<path class="st1" d="M88.1,98.2c-5.1,1.6-11.3,0.1-13.4-0.6c-1.7,2.2-7.2,8.7-13.5,9c-3.3,0.1-6.3-1.3-8.7-4.6
				c-10-12.1,8.4-41.1,9.1-42.3l0.5-0.9l0.9,0.3c1.3,0.5,33.1,13.2,32.3,28.8c-0.2,4.1-1.7,7-4.4,8.8C90.1,97.5,89.2,97.9,88.1,98.2
				z M63.1,61.8c-2.8,4.8-16.6,28.8-8.8,38.6c2,2.5,4.3,3.8,6.7,3.6c6.2-0.3,12.1-8.6,12.2-8.6l0.4-0.8l0.9,0.3
				c0.1,0.1,9.6,3.3,14.9-0.2c2.1-1.4,3.2-3.6,3.3-6.9l0,0C93.5,75.4,68.4,64.1,63.1,61.8z"/>
		</g>
		<g>
			<path class="st2" d="M100.8,69.3c-14.1,0.4-33-11.7-34.4-12.6l-2.1-1.3l0.9-2.4c2.2-5.6,13.8-33.1,29.3-33.6c0.4,0,0.8,0,1.2,0
				c4.6,0.3,8.2,2.1,10.3,5.3c3.7,5.6,2.2,13.5,1.4,16.7c3.1,2.6,8.4,7.9,8.7,14.2c0.1,4-1.6,7.5-5.2,10.4c-1.5,1.2-3.2,1.9-4.6,2.4
				C104.6,68.9,102.8,69.2,100.8,69.3z M72,52.9c5.7,3.3,19.3,10.6,28.8,10.3c2.6-0.1,4.6-0.7,6.1-1.9c2.1-1.7,3-3.4,2.9-5.2
				c-0.2-4.8-6.5-9.9-7.8-10.8L99.9,44l1-2.4c0.5-1.5,2.5-9.2-0.1-13.2c-1-1.6-2.9-2.4-5.4-2.5l-0.1,0c-0.3,0-0.5,0-0.8,0
				C84.8,26.2,75.5,45,72,52.9z"/>
			<path class="st2" d="M105.6,66.6C92.1,71,68.6,55.9,67.4,55.1l-0.9-0.5l0.3-0.9c0.5-1.3,13.1-33.3,28.6-32.4c4,0.3,7,1.7,8.9,4.5
				c3.5,5.3,1.6,13.7,0.8,16.3c2.2,1.7,8.7,7.2,9,13.6c0.1,3.4-1.3,6.3-4.5,8.9l0,0C108.5,65.5,107.1,66.1,105.6,66.6z M69.6,53.6
				c4.8,2.9,28.9,16.9,38.4,9.1l0,0c2.5-2,3.7-4.2,3.6-6.7c-0.3-6.3-8.5-12.2-8.7-12.3l-0.8-0.4l0.3-0.8c0.1-0.1,3.2-9.7-0.3-15
				c-1.4-2.1-3.7-3.2-6.9-3.3C83,23,71.9,48.4,69.6,53.6z"/>
		</g>
		<g>
			<path class="st3" d="M28.4,92.6c-0.5,0-0.9,0-1.4,0c-4.5-0.3-8.1-2.1-10.3-5.3c-3.7-5.6-2.2-13.5-1.4-16.7
				c-3.1-2.6-8.4-7.9-8.7-14.2c-0.1-4,1.6-7.5,5.2-10.4c2.5-2.1,5.8-3.2,9.8-3.3c14-0.4,32.9,11.6,34.5,12.6l2.1,1.3l-0.8,2.3
				c-0.9,3.1-11.2,28.4-25.2,33C30.9,92.3,29.6,92.6,28.4,92.6z M21.9,70.5c-0.5,1.5-2.5,9.2,0.1,13.2c1,1.6,2.9,2.4,5.4,2.5
				c0.2,0,0.4,0,0.5,0c0.8,0,1.6-0.2,2.5-0.5C38.7,83,47,67.8,50.7,58.9C45.4,56,31.7,48.6,22,48.9c-1.3,0-2.5,0.2-3.5,0.6
				c-0.7,0.3-1.7,0.7-2.6,1.4c-2,1.7-3,3.3-2.9,5.2c0.2,4.8,6.5,9.9,7.8,10.8l2.1,1.2L21.9,70.5z"/>
			<path class="st3" d="M31.6,90.1c-1.5,0.5-3,0.7-4.5,0.6c-4-0.3-7-1.7-8.9-4.5c-3.5-5.3-1.6-13.7-0.8-16.3
				c-2.2-1.7-8.7-7.2-9-13.6C8.4,53,9.8,50,13,47.4c12-9.9,40.9,8.5,42.1,9.4l0.9,0.5l-0.3,0.9C55.4,59.6,45.1,85.7,31.6,90.1z
				 M17.9,47.7c-1.1,0.4-2.2,0.9-3.2,1.7c-2.5,2-3.7,4.2-3.6,6.7c0.3,6.3,8.5,12.2,8.7,12.3l0.8,0.4l-0.3,0.8
				c-0.1,0.1-3.2,9.7,0.3,15c1.4,2.1,3.7,3.2,6.9,3.3l0,0c1.2,0.1,2.4-0.2,3.6-0.6c10.9-3.5,20.2-24.6,22.1-29.4
				C48.7,55.8,28.9,44.2,17.9,47.7z"/>
		</g>
		<g>
			<path class="st0" d="M46.2,86.9c0,0-5.8,29.3-44.4,20.8l-0.9-3.6C0.8,103.9,32.1,114.3,46.2,86.9z"/>
		</g>
		<g>
			<path class="st3" d="M46.2,86.9c0,0-3.4,29.8-42.6,24.3l-1.1-3.6C2.4,107.6,34.5,115.4,46.2,86.9z"/>
		</g>
		<g>
			<path class="st2" d="M46.2,86.9c0,0-1,30-40.5,27.6L4.3,111C4.3,110.9,36.7,116.2,46.2,86.9z"/>
		</g>
	</g>
</g>
<g id="guide" class="st4">
</g>
</svg>
