<?xml version="1.0" encoding="utf-8"?>
<!-- Generator: Adobe Illustrator 22.0.1, SVG Export Plug-In . SVG Version: 6.00 Build 0)  -->
<svg version="1.1" id="圖層_1" xmlns="http://www.w3.org/2000/svg" xmlns:xlink="http://www.w3.org/1999/xlink" x="0px" y="0px"
	 viewBox="0 0 632 140" style="enable-background:new 0 0 632 140;" xml:space="preserve">
<style type="text/css">
	.st0{fill:#00ADEE;}
	.st1{fill:#FFFFFF;}
	.st2{fill:#6D6E71;}
	.st3{fill:none;stroke:#000000;stroke-width:1.0307;stroke-miterlimit:10;}
</style>
<g>
	<rect x="0.2" y="29.7" class="st0" width="631.8" height="16.5"/>
	<circle class="st1" cx="379.6" cy="37.9" r="4.1"/>
	<circle class="st1" cx="506.3" cy="37.9" r="4.1"/>
	<circle class="st1" cx="253.2" cy="37.9" r="4.1"/>
	<circle class="st1" cx="126.7" cy="37.9" r="4.1"/>
	<g>
		<g>
			<path class="st2" d="M6.3,18.4c-2.6-2.7-4.1-5-4.1-9c0.1-4.3,2.9-7.3,4.7-9.2v0.7C4.2,4.1,3.4,6.5,3.4,10c0,3.6,1.5,5.8,3,7.4v1
				H6.3z"/>
			<path class="st2" d="M18.3,0.9v12.6c0,0.9,0,2,0.1,2.7h-1.7l-0.1-1.8h-0.1c-0.6,1.2-1.8,2-3.5,2c-2.5,0-4.5-2.1-4.5-5.3
				c0-3.5,2.1-5.6,4.7-5.6c1.6,0,2.7,0.7,3.1,1.6l0,0V0.9H18.3z M16.4,10c0-0.2,0-0.6-0.1-0.8C16,8,15,7,13.6,7c-2,0-3.1,1.7-3.1,4
				c0,2.1,1.1,3.9,3.1,3.9c1.3,0,2.4-0.9,2.8-2.3c0.1-0.2,0.1-0.5,0.1-0.8V10H16.4z"/>
			<path class="st2" d="M27.4,16.2l-0.2-1.3h-0.1c-0.6,0.8-1.7,1.5-3.2,1.5c-2.1,0-3.2-1.5-3.2-3c0-2.5,2.2-3.9,6.2-3.9V9.3
				c0-0.8-0.2-2.4-2.4-2.4c-1,0-2,0.3-2.7,0.8l-0.4-1.3c0.9-0.6,2.1-0.9,3.4-0.9c3.2,0,4,2.2,4,4.3v3.9c0,0.9,0,1.8,0.2,2.5H27.4z
				 M27.1,10.9c-2,0-4.4,0.3-4.4,2.3c0,1.2,0.8,1.8,1.8,1.8c1.4,0,2.2-0.9,2.5-1.7c0.1-0.2,0.1-0.5,0.1-0.6V10.9z"/>
			<path class="st2" d="M32.7,5.8l2.3,6.1c0.2,0.7,0.5,1.5,0.7,2.1h0.1c0.2-0.6,0.4-1.4,0.7-2.2l2.1-6.1h2l-2.8,7.4
				c-1.3,3.6-2.3,5.4-3.6,6.5c-0.9,0.8-1.9,1.1-2.3,1.2l-0.5-1.6c0.5-0.1,1.1-0.4,1.7-0.9c0.5-0.4,1.1-1.1,1.6-2.1
				c0.1-0.2,0.1-0.3,0.1-0.5c0-0.1,0-0.3-0.1-0.5l-3.8-9.6h1.8V5.8z"/>
			<path class="st2" d="M41.5,0.2C44.8,3.2,46,6,46,9.5c0,4-2.3,7-3.9,8.9v-1c1.8-2.1,2.9-5.1,2.9-8.2c0-2.8-0.8-5.3-3.5-8.3V0.2z"
				/>
		</g>
	</g>
	<g>
		<g>
			<g>
				<path d="M27,96.3H15v-2.6h4.4V79.1l-4.6,1.2v-2.7l7.6-2v18.1h4.4v2.6H27z"/>
				<path d="M55.3,95.2l-0.8,2.3H44.3c-2.3,0-4-0.2-5.3-0.7c-1.3-0.4-2.4-1.1-3.2-2.1C35,96,34.2,97.1,33.4,98l-1.8-1.5
					c2.3-2.5,3.7-5,4.2-7.6h-3.7v-2.1c1.2-1.5,2.3-3,3.2-4.6h-3.6v-2.3H38V82c-0.7,1.2-1.6,2.8-3,4.7h3.1v1.9
					c-0.3,1.4-0.7,2.7-1.4,4.1c1.4,1.6,3.7,2.5,7.1,2.5C43.8,95.2,55.3,95.2,55.3,95.2z M37.9,77.5l-1.8,1.7c-1-1.2-2.3-2.4-3.8-3.4
					l1.7-1.7C35.6,75.3,36.9,76.4,37.9,77.5z M54.1,91.4c0,0.7-0.2,1.3-0.6,1.9c-0.4,0.5-1.7,0.8-3.7,0.7L49,91.9c0.3,0,0.7,0,1.1,0
					c0.8,0,1.3,0,1.5-0.1s0.2-0.3,0.2-0.6v-7h-9.6c0,4.3-0.8,7.5-2.3,9.7l-1.8-1.5c1.3-1.8,1.9-4.4,1.9-7.6V74.6h14.1V91.4z
					 M45.9,78.4v-1.7h-3.6v1.7H45.9z M45.9,82.2v-1.7h-3.6v1.7H45.9z M50.5,91.2h-6.8v-5.7h6.8V91.2z M48.3,89.3v-1.8h-2.5v1.8H48.3
					z M51.9,78.4v-1.7h-3.7v1.7H51.9z M51.9,82.2v-1.7h-3.7v1.7H51.9z"/>
				<path d="M71.4,95c0,0.7-0.1,1.2-0.4,1.6s-0.6,0.6-1.1,0.7c-0.4,0.1-1.1,0.2-2.2,0.2c-0.5,0-1,0-1.4,0l-0.8-2.3
					c0.4,0,0.8,0.1,1.2,0.1c1,0,1.7,0,2-0.1s0.5-0.3,0.5-0.5V92h-5.1c-0.4,2.5-1.2,4.4-2.4,5.8l-2-1.3c1.6-1.6,2.4-4.4,2.4-8.4v-7
					h9.3V95z M83.2,79.4H59.9v-2.2h23.3V79.4z M69.9,75.8l-2.5,1.1c-1.1-0.6-2.4-1.2-3.9-1.8l2.5-1.2C67.5,74.4,68.8,75,69.9,75.8z
					 M69.2,85.5v-2.2h-4.9v2.2H69.2z M69.2,89.8v-2.3h-4.9v2.3H69.2z M79.3,75.1c-1.4,0.9-2.7,1.5-3.8,1.8L73,75.8
					c1.4-0.6,2.7-1.2,3.8-1.9L79.3,75.1z M76.5,93.1h-2.4V81.5h2.3L76.5,93.1L76.5,93.1z M81.3,94.7c0,1.1-0.3,1.9-0.8,2.2
					s-1.5,0.6-2.9,0.6c-0.5,0-1.1,0-1.8-0.1l-0.7-2.3h3.3c0.1,0,0.2-0.1,0.3-0.2c0.1-0.1,0.2-0.3,0.2-0.4V80.9h2.3L81.3,94.7
					L81.3,94.7z"/>
				<path d="M106.7,85.6c-0.1,1.5-0.5,2.6-1.2,3.4s-1.7,1.2-2.9,1.2c-0.5,0-1.1-0.1-1.7-0.4c-0.6-0.2-1.3-0.6-2-1.1
					c-0.9-0.6-1.7-0.9-2.2-0.9c-1.2,0-1.9,0.8-2,2.4h-2.2c0.1-1.4,0.5-2.6,1.2-3.4s1.7-1.2,2.9-1.2c0.7,0,1.3,0.1,1.8,0.3
					c0.5,0.2,1.2,0.7,2.2,1.3c0.7,0.5,1.4,0.7,2,0.7c0.5,0,1-0.2,1.3-0.6s0.5-1,0.6-1.8L106.7,85.6L106.7,85.6z"/>
				<path d="M116.2,92.6c1.4,1.1,3,1.6,4.7,1.6c1.3,0,2.3-0.3,3.1-0.9s1.2-1.5,1.2-2.6c0-2.4-1.7-3.6-5.2-3.6h-1.7v-2.5h1.6
					c3.1,0,4.6-1.1,4.6-3.3c0-2.1-1.2-3.1-3.5-3.1c-1.4,0-2.7,0.5-4,1.4v-2.7c1.3-0.8,2.9-1.1,4.7-1.1c1.7,0,3.2,0.4,4.3,1.3
					c1.1,0.9,1.7,2.1,1.7,3.6c0,2.7-1.4,4.4-4.1,5.1v0.1c1.4,0.1,2.6,0.7,3.4,1.5c0.9,0.9,1.3,2,1.3,3.3c0,1.9-0.7,3.4-2,4.5
					c-1.4,1.1-3.1,1.6-5.3,1.6c-2,0-3.6-0.4-4.8-1.1C116.2,95.7,116.2,92.6,116.2,92.6z"/>
				<path d="M157,95.8l-1.4,2.1c-2.9-1.7-5.1-3.3-6.6-4.9s-2.8-3.6-3.9-6.1c-1.4,4.5-5,8.1-10.7,10.9l-1.4-2.1
					c5.6-2.6,9-6.3,10.2-10.9h-9.6v-2.4h10.1c0.1-1.7,0.2-3.4,0.2-5.2h-9.1v-2.4h20.6v2.4h-9c-0.1,2.9-0.2,4.7-0.2,5.2h10.2v2.4
					h-9.5C148.2,89.2,151.6,92.9,157,95.8z"/>
				<path d="M173.1,95c0,0.7-0.1,1.2-0.4,1.6c-0.3,0.4-0.6,0.6-1.1,0.7c-0.4,0.1-1.1,0.2-2.2,0.2c-0.5,0-1,0-1.4,0l-0.8-2.3
					c0.4,0,0.8,0.1,1.2,0.1c1,0,1.7,0,2-0.1s0.5-0.3,0.5-0.5V92h-5.1c-0.4,2.5-1.2,4.4-2.4,5.8l-2-1.3c1.6-1.6,2.4-4.4,2.4-8.4v-7
					h9.3V95z M185,79.4h-23.3v-2.2H185V79.4z M171.6,75.8l-2.5,1.1c-1.1-0.6-2.4-1.2-3.9-1.8l2.5-1.2
					C169.2,74.4,170.5,75,171.6,75.8z M170.9,85.5v-2.2h-4.8v2.2H170.9z M170.9,89.8v-2.3h-4.8v2.3H170.9z M181,75.1
					c-1.4,0.9-2.7,1.5-3.8,1.8l-2.5-1.1c1.4-0.6,2.7-1.2,3.8-1.9L181,75.1z M178.2,93.1h-2.3V81.5h2.3V93.1z M183.1,94.7
					c0,1.1-0.3,1.9-0.8,2.2s-1.5,0.6-2.9,0.6c-0.5,0-1.1,0-1.8-0.1l-0.7-2.3h3.3c0.1,0,0.2-0.1,0.3-0.2s0.2-0.3,0.2-0.4V80.9h2.3
					L183.1,94.7L183.1,94.7z"/>
			</g>
			<g>
				<path d="M20.1,111.5c-0.2,0.6-0.6,1.4-1.1,2.4l-0.7,1.4V130h-1.2v-12.8c-0.8,1.1-1.7,2.3-2.9,3.4l-0.6-1.1
					c2.2-2.1,4-4.9,5.3-8.4L20.1,111.5z M32.8,129.5H19.4v-1.1h5.8v-5.8h-4.8v-1.1h4.8v-5h-5.5v-1.1h5.7c-0.2-1-0.8-2.4-1.6-3.9
					l1.3-0.4c0.6,1.3,1.2,2.8,1.6,4.3h5.8v1.1h-6.1v5h5.4v1.1h-5.4v5.8h6.4V129.5z"/>
				<path d="M41.6,115.3c-0.2,0.7-0.5,1.5-0.9,2.6l-0.7,1.5v10.5h-1.1v-8.4c-0.7,1.1-1.5,2.2-2.4,3.1l-0.7-1c2-2.2,3.6-5,4.7-8.6
					L41.6,115.3z M54,115.6h-1.1v-1.8H37.8v1.8h-1.2v-2.9h8.3c-0.1-0.4-0.3-0.9-0.6-1.6l1.1-0.3c0.3,0.6,0.6,1.2,0.8,1.8H54
					C54,112.6,54,115.6,54,115.6z M54.3,117.6h-5.5c-0.2,0.8-0.5,1.6-0.8,2.3h5.2V130h-1.1v-1.1h-7.8v1.1h-1.2v-10.1h3.8
					c0.3-0.7,0.5-1.5,0.7-2.3H42v-1.1h12.3V117.6z M52.1,123.7v-2.8h-7.8v2.8H52.1z M52.1,127.8v-2.9h-7.8v2.9H52.1z"/>
				<path d="M76.4,116.9c0,0.8-0.1,1.4-0.2,1.9s-0.3,0.8-0.4,1c-0.2,0.2-0.4,0.3-0.6,0.3s-0.7,0-1.5,0v7.2h-8.9l0.6,0.7
					c-1.8,0.9-3.9,1.5-6.4,2l-0.6-1.1c2.3-0.3,4.3-0.8,6-1.6h-3.6v-6.4c-0.9,0.3-1.7,0.5-2.5,0.7l-0.5-1c2.7-0.6,4.5-1.5,5.5-2.8
					h-4.4l0.6-3.2h5c0.1-0.5,0.1-1,0.1-1.4h-6.3v-0.9h6.4c0-0.2,0-0.4,0-0.6s0-0.4,0-0.5h1.1c0,0.3,0,0.7,0,1.1h3.6v-1.2h1.1v1.1
					h5.1v3.3h-5.1v1.4H76.4z M64.3,115.5h-3.9l-0.2,1.4h3.7C64.1,116.5,64.2,116.1,64.3,115.5z M72.6,121.9v-1.3H61.8v1.3H72.6z
					 M72.6,124.1v-1.3H61.8v1.3H72.6z M72.6,126.4V125H61.8v1.4H72.6z M75.2,117.8h-4.8v1.3h-1.1v-1.3h-4.7c-0.5,0.7-1,1.4-1.6,1.8
					h10.2l-0.2-0.5h1.6c0.2,0,0.3-0.1,0.4-0.2C75.1,118.8,75.2,118.4,75.2,117.8z M69.3,116.9v-1.4h-3.8c-0.1,0.5-0.2,0.9-0.4,1.4
					H69.3z M69.3,114.6v-1.4h-3.6c0,0.4,0,0.9-0.1,1.4H69.3z M76.3,129l-0.5,1c-2.2-0.5-4.3-0.9-6.3-1.1l0.5-1.1
					C72,128.1,74.1,128.5,76.3,129z M74.4,114.6v-1.4h-4v1.4H74.4z"/>
				<path d="M87.1,129.6H86v-1.9h-4.7v2.3h-1.1v-15.3h2c0.5-1,1.1-2.2,1.5-3.7l1.1,0.2c-0.3,0.8-0.7,1.9-1.5,3.5h3.8V129.6z
					 M86,120.5v-4.7h-4.7v4.7H86z M86,126.7v-5.1h-4.7v5.1H86z M98,114.7c-0.1,3.2-0.2,6.3-0.5,9c-0.2,2.8-0.5,4.4-0.7,4.9
					s-0.5,0.8-0.9,1.1c-0.4,0.2-1.1,0.3-2.1,0.3c-0.4,0-1,0-1.7,0l-0.3-1.1c0.6,0,1.2,0,1.9,0c0.6,0,1.1,0,1.2,0
					c0.2,0,0.4-0.1,0.6-0.3s0.3-0.4,0.4-0.6c0.1-0.2,0.2-1.1,0.3-2.5s0.3-3,0.3-4.8c0.1-1.7,0.2-3.4,0.2-5h-5.6
					c-0.8,1.5-1.6,2.9-2.6,4.3l-0.9-0.6c1.9-2.5,3.2-5.3,4-8.3l1.1,0.3c-0.4,1.2-0.7,2.3-1.2,3.3C91.5,114.7,98,114.7,98,114.7z
					 M94,124.4l-0.9,0.7c-0.7-1.6-1.7-3.3-3.1-5l0.9-0.6C92.1,121,93.2,122.7,94,124.4z"/>
				<path d="M110.9,129h-9.8v-1.6l4.8-4.8c1.6-1.6,2.5-2.7,2.9-3.5c0.4-0.7,0.5-1.5,0.5-2.3c0-1-0.3-1.7-0.8-2.2s-1.3-0.8-2.4-0.8
					c-1.5,0-2.9,0.6-4.2,1.9v-1.9c1.3-1,2.7-1.5,4.4-1.5c1.4,0,2.5,0.4,3.4,1.2c0.8,0.8,1.3,1.8,1.3,3.2c0,1-0.3,2-0.8,3
					s-1.6,2.3-3.2,3.8l-3.8,3.8l0,0h7.7V129z"/>
				<path d="M113.8,121.1c0-2.9,0.5-5.1,1.4-6.6s2.3-2.2,4.1-2.2c3.4,0,5.1,2.8,5.1,8.4c0,2.7-0.5,4.8-1.4,6.3s-2.3,2.2-4.1,2.2
					c-1.7,0-2.9-0.7-3.8-2.1C114.2,125.7,113.8,123.7,113.8,121.1z M115.6,121c0,4.5,1.2,6.7,3.5,6.7s3.5-2.3,3.5-6.8
					c0-4.7-1.1-7.1-3.4-7.1C116.8,113.8,115.6,116.2,115.6,121z"/>
				<path d="M131.4,120.8c-1.1,0-2-0.4-2.7-1.1s-1-1.7-1-3s0.4-2.4,1.1-3.2c0.7-0.8,1.7-1.2,2.9-1.2c1.1,0,2.1,0.4,2.7,1.1
					c0.7,0.7,1,1.7,1,3s-0.4,2.4-1.1,3.2C133.6,120.4,132.6,120.8,131.4,120.8z M131.6,113.6c-0.7,0-1.3,0.3-1.7,0.8
					s-0.6,1.3-0.6,2.2c0,0.9,0.2,1.7,0.6,2.2s1,0.8,1.7,0.8s1.3-0.3,1.8-0.8s0.6-1.3,0.6-2.2c0-0.9-0.2-1.7-0.7-2.2
					C132.9,113.8,132.3,113.6,131.6,113.6z M142.2,112.6L131.9,129h-1.5l10.3-16.4C140.7,112.6,142.2,112.6,142.2,112.6z M141,129.2
					c-1.1,0-2-0.4-2.7-1.1c-0.7-0.7-1-1.7-1-3s0.4-2.4,1.1-3.2c0.7-0.8,1.7-1.2,2.9-1.2c1.1,0,2,0.4,2.7,1.1s1,1.7,1,3
					s-0.4,2.4-1.1,3.2C143.2,128.8,142.2,129.2,141,129.2z M141.1,122c-0.7,0-1.3,0.3-1.8,0.8c-0.4,0.5-0.7,1.3-0.7,2.2
					c0,0.9,0.2,1.7,0.6,2.2c0.4,0.5,1,0.8,1.7,0.8s1.3-0.3,1.7-0.8s0.7-1.3,0.7-2.3c0-0.9-0.2-1.7-0.6-2.2
					C142.4,122.3,141.9,122,141.1,122z"/>
			</g>
		</g>
		<line class="st3" x1="0.7" y1="58.5" x2="0.7" y2="140"/>
	</g>
	<path class="st1" d="M632,33.8c-2.3,0-4.1,1.8-4.1,4.1s1.8,4.1,4.1,4.1V33.8z"/>
</g>
</svg>
