<?xml version="1.0" encoding="utf-8"?>
<!-- Generator: Adobe Illustrator 22.0.1, SVG Export Plug-In . SVG Version: 6.00 Build 0)  -->
<svg version="1.1" id="圖層_1" xmlns="http://www.w3.org/2000/svg" xmlns:xlink="http://www.w3.org/1999/xlink" x="0px" y="0px"
	 viewBox="0 0 506 140" style="enable-background:new 0 0 506 140;" xml:space="preserve">
<style type="text/css">
	.st0{fill:#F6931D;}
	.st1{fill:#FFFFFF;}
	.st2{fill:#B4000D;stroke:#FFFFFF;stroke-width:8.2455;stroke-miterlimit:10;}
	.st3{fill:none;stroke:#000000;stroke-width:1.0307;stroke-miterlimit:10;}
</style>
<g>
	<rect y="29.7" class="st0" width="253.5" height="16.5"/>
	<circle class="st1" cx="127.1" cy="37.9" r="4.1"/>
	<circle class="st2" cx="253.5" cy="37.9" r="18"/>
	<g>
		<g>
			<g>
				<path d="M28.4,96.3H15.8v-2.6l5.9-5.8c1.3-1.3,2.3-2.4,2.9-3.3s0.9-1.9,0.9-3c0-2.2-1.2-3.4-3.6-3.4c-1.8,0-3.5,0.7-5.1,2.2v-3
					c1.6-1.2,3.5-1.8,5.7-1.8c1.9,0,3.3,0.5,4.4,1.5s1.7,2.3,1.7,4.1c0,1.2-0.3,2.5-1,3.7s-1.9,2.7-3.7,4.4l-4.5,4.3v0.1h9V96.3z"/>
				<path d="M57.1,95.8l-1.4,2.1c-2.9-1.7-5.1-3.3-6.6-4.9s-2.8-3.6-3.9-6.1c-1.4,4.5-5,8.1-10.7,10.9l-1.4-2.1
					c5.6-2.6,9-6.3,10.2-10.9h-9.6v-2.4h10.1c0.1-1.7,0.2-3.4,0.2-5.2h-9.1v-2.4h20.6v2.4h-9c-0.1,2.9-0.2,4.7-0.2,5.2h10.2v2.4H47
					C48.3,89.2,51.7,92.9,57.1,95.8z"/>
				<path d="M73.3,95c0,0.7-0.1,1.2-0.4,1.6s-0.6,0.6-1.1,0.7c-0.4,0.1-1.1,0.2-2.2,0.2c-0.5,0-1,0-1.4,0l-0.8-2.3
					c0.4,0,0.8,0.1,1.2,0.1c1,0,1.7,0,2-0.1s0.5-0.3,0.5-0.5V92H66c-0.4,2.5-1.2,4.4-2.4,5.8l-2-1.3c1.6-1.6,2.4-4.4,2.4-8.4v-7h9.3
					V95z M85.1,79.4H61.8v-2.2h23.3V79.4z M71.7,75.8l-2.5,1.1c-1.1-0.6-2.4-1.2-3.9-1.8l2.5-1.2C69.3,74.4,70.6,75,71.7,75.8z
					 M71.1,85.5v-2.2h-4.9v2.2H71.1z M71.1,89.8v-2.3h-4.9v2.3H71.1z M81.1,75.1c-1.4,0.9-2.7,1.5-3.8,1.8l-2.5-1.1
					c1.4-0.6,2.7-1.2,3.8-1.9L81.1,75.1z M78.3,93.1H76V81.5h2.3V93.1z M83.2,94.7c0,1.1-0.3,1.9-0.8,2.2s-1.5,0.6-2.9,0.6
					c-0.5,0-1.1,0-1.8-0.1L77,95.2h3.3c0.1,0,0.2-0.1,0.3-0.2c0.1-0.1,0.2-0.3,0.2-0.4V80.9h2.3L83.2,94.7L83.2,94.7z"/>
			</g>
			<g>
				<path d="M21.9,111.5c-0.2,0.6-0.6,1.4-1.1,2.4l-0.7,1.4V130H19v-12.8c-0.8,1.1-1.7,2.3-2.9,3.4l-0.6-1.1c2.2-2.1,4-4.9,5.3-8.4
					L21.9,111.5z M34.6,129.5H21.3v-1.1h5.8v-5.8h-4.8v-1.1h4.8v-5h-5.5v-1.1h5.7c-0.2-1-0.8-2.4-1.6-3.9l1.1-0.4
					c0.6,1.3,1.2,2.8,1.6,4.3h5.8v1.1h-6.1v5h5.4v1.1h-5.4v5.8h6.4L34.6,129.5L34.6,129.5z"/>
				<path d="M43.4,115.3c-0.2,0.7-0.5,1.5-0.9,2.6l-0.7,1.5v10.5h-1.1v-8.4c-0.7,1.1-1.5,2.2-2.4,3.1l-0.7-1c2-2.2,3.6-5,4.7-8.6
					L43.4,115.3z M55.9,115.6h-1.1v-1.8H39.7v1.8h-1.2v-2.9h8.3c-0.1-0.4-0.3-0.9-0.6-1.6l1.1-0.3c0.3,0.6,0.6,1.2,0.8,1.8h7.8
					C55.9,112.6,55.9,115.6,55.9,115.6z M56.1,117.6h-5.5c-0.2,0.8-0.5,1.6-0.8,2.3H55V130h-1.2v-1.1H46v1.1h-1.2v-10.1h3.8
					c0.3-0.7,0.5-1.5,0.7-2.3h-5.6v-1.1H56L56.1,117.6L56.1,117.6z M53.9,123.7v-2.8h-7.8v2.8H53.9z M53.9,127.8v-2.9h-7.8v2.9H53.9
					z"/>
				<path d="M78.2,116.9c0,0.8-0.1,1.4-0.2,1.9s-0.3,0.8-0.4,1c-0.2,0.2-0.4,0.3-0.6,0.3s-0.7,0-1.5,0v7.2h-8.9l0.6,0.7
					c-1.8,0.9-3.9,1.5-6.4,2l-0.6-1.1c2.3-0.3,4.3-0.8,6-1.6h-3.6v-6.4c-0.9,0.3-1.7,0.5-2.5,0.7l-0.5-1c2.7-0.6,4.5-1.5,5.5-2.8
					h-4.4l0.6-3.2h5c0.1-0.5,0.1-1,0.1-1.4h-6.3v-0.9h6.4c0-0.2,0-0.4,0-0.6s0-0.4,0-0.5h1.1c0,0.3,0,0.7,0,1.1h3.6v-1.2h1.1v1.1
					h5.1v3.3h-5.1v1.4H78.2z M66.2,115.5h-3.9l-0.2,1.4h3.7C65.9,116.5,66.1,116.1,66.2,115.5z M74.4,121.9v-1.3H63.6v1.3H74.4z
					 M74.4,124.1v-1.3H63.6v1.3H74.4z M74.4,126.4V125H63.6v1.4H74.4z M77,117.8h-4.8v1.3h-1.1v-1.3h-4.7c-0.5,0.7-1,1.4-1.6,1.8H75
					l-0.2-0.5h1.6c0.2,0,0.3-0.1,0.4-0.2C77,118.8,77,118.4,77,117.8z M71.1,116.9v-1.4h-3.8c-0.1,0.5-0.2,0.9-0.4,1.4H71.1z
					 M71.1,114.6v-1.4h-3.6c0,0.4,0,0.9-0.1,1.4H71.1z M78.1,129l-0.5,1c-2.2-0.5-4.3-0.9-6.3-1.1l0.5-1.1
					C73.8,128.1,75.9,128.5,78.1,129z M76.2,114.6v-1.4h-4v1.4H76.2z"/>
				<path d="M88.9,129.6h-1.1v-1.9h-4.7v2.3H82v-15.3h2c0.5-1,1.1-2.2,1.5-3.7l1.1,0.2c-0.3,0.8-0.7,1.9-1.5,3.5h3.7L88.9,129.6
					L88.9,129.6z M87.9,120.5v-4.7h-4.7v4.7H87.9z M87.9,126.7v-5.1h-4.7v5.1H87.9z M99.8,114.7c-0.1,3.2-0.2,6.3-0.5,9
					c-0.2,2.8-0.5,4.4-0.7,4.9s-0.5,0.8-0.9,1.1c-0.4,0.2-1.1,0.3-2.1,0.3c-0.4,0-1,0-1.7,0l-0.3-1.1c0.6,0,1.2,0,1.9,0
					c0.6,0,1.1,0,1.2,0c0.2,0,0.4-0.1,0.6-0.3s0.3-0.4,0.4-0.6c0.1-0.2,0.2-1.1,0.3-2.5s0.3-3,0.3-4.8s0.2-3.4,0.2-5h-5.6
					c-0.8,1.5-1.6,2.9-2.6,4.3l-0.9-0.6c1.9-2.5,3.2-5.3,4-8.3l1.1,0.3c-0.4,1.2-0.7,2.3-1.2,3.3C93.3,114.7,99.8,114.7,99.8,114.7z
					 M95.8,124.4l-0.9,0.6c-0.7-1.6-1.7-3.3-3.1-5l0.9-0.6C94,121,95,122.7,95.8,124.4z"/>
				<path d="M103.7,126.7c1.1,0.7,2.2,1.1,3.4,1.1s2.1-0.3,2.8-1s1.1-1.5,1.1-2.6s-0.4-2-1.1-2.6s-1.8-0.9-3.1-0.9
					c-0.4,0-1.3,0-2.6,0.1v-8.1h7.8v1.6h-6.2v4.9c0.6,0,1.1-0.1,1.4-0.1c1.7,0,3.1,0.4,4,1.3c1,0.9,1.5,2.1,1.5,3.6
					c0,1.6-0.5,2.9-1.6,3.8s-2.4,1.4-4.2,1.4c-1.5,0-2.6-0.2-3.3-0.7L103.7,126.7L103.7,126.7z"/>
				<path d="M115.6,121.1c0-2.9,0.5-5.1,1.4-6.6s2.3-2.2,4.1-2.2c3.4,0,5.1,2.8,5.1,8.4c0,2.7-0.5,4.8-1.4,6.3s-2.3,2.2-4.1,2.2
					c-1.7,0-2.9-0.7-3.8-2.1C116,125.7,115.6,123.7,115.6,121.1z M117.4,121c0,4.5,1.2,6.7,3.5,6.7s3.5-2.3,3.5-6.8
					c0-4.7-1.1-7.1-3.4-7.1C118.6,113.8,117.4,116.2,117.4,121z"/>
				<path d="M133.3,120.8c-1.1,0-2-0.4-2.7-1.1s-1-1.7-1-3s0.4-2.4,1.1-3.2c0.7-0.8,1.7-1.2,2.9-1.2c1.1,0,2.1,0.4,2.7,1.1
					c0.7,0.7,1,1.7,1,3s-0.4,2.4-1.1,3.2C135.4,120.4,134.5,120.8,133.3,120.8z M133.4,113.6c-0.7,0-1.3,0.3-1.7,0.8
					s-0.6,1.3-0.6,2.2c0,0.9,0.2,1.7,0.6,2.2s1,0.8,1.7,0.8s1.3-0.3,1.8-0.8s0.6-1.3,0.6-2.2c0-0.9-0.2-1.7-0.6-2.2
					C134.7,113.8,134.1,113.6,133.4,113.6z M144.1,112.6L133.8,129h-1.5l10.3-16.4C142.6,112.6,144.1,112.6,144.1,112.6z
					 M142.8,129.2c-1.1,0-2-0.4-2.7-1.1c-0.7-0.7-1-1.7-1-3s0.4-2.4,1.1-3.2s1.7-1.2,2.9-1.2c1.1,0,2,0.4,2.7,1.1s1,1.7,1,3
					s-0.4,2.4-1.1,3.2C145,128.8,144,129.2,142.8,129.2z M143,122c-0.7,0-1.3,0.3-1.8,0.8c-0.4,0.5-0.7,1.3-0.7,2.2
					c0,0.9,0.2,1.7,0.6,2.2c0.4,0.5,1,0.8,1.7,0.8s1.3-0.3,1.7-0.8s0.7-1.3,0.7-2.3c0-0.9-0.2-1.7-0.6-2.2
					C144.3,122.3,143.7,122,143,122z"/>
			</g>
		</g>
		<line class="st3" x1="1" y1="58.5" x2="1" y2="140"/>
	</g>
	<g>
		<g>
			<g>
				<path d="M268.9,96l-1.9,1.8c-5.1-4.4-8.4-9.3-9.8-14.6c-1.8,6.1-5.2,10.9-10.4,14.4l-1.7-1.9c2.3-1.5,4.3-3.4,6-5.6
					s3-4.6,3.8-7.2c0.9-2.6,1.3-4.3,1.3-5.1l-0.1-0.5H253v-2.4h5.5c0.2,5.1,1.3,9.3,3,12.5C263.3,90.6,265.8,93.5,268.9,96z"/>
				<path d="M281,74.6c-0.3,0.8-0.7,1.9-1.3,3.3l-0.9,2v17.7h-2.4V84.2c-0.6,1-1.2,1.8-1.8,2.4l-1.3-2.6c1.9-2.3,3.7-5.6,5.4-10
					L281,74.6z M296.8,97.3h-17V95h7.3v-6h-6.2v-2.3h6.2v-5.3h-6.8v-2.3h6.8c-0.3-1.5-0.8-2.9-1.5-4.3l2.4-0.7
					c0.8,1.8,1.3,3.4,1.6,5h6.9v2.3h-7v5.3h6.3v2.4h-6.3v6h7.2L296.8,97.3L296.8,97.3z"/>
				<path d="M324.3,83.6H322V80h-17.3v3.6h-2.4v-5.7h9.9v-3.6h2.4v3.6h9.8v5.7H324.3z M322.9,97.7h-2.3v-1.1H306v1.1h-2.3v-9.9H323
					v9.9H322.9z M309.6,76.7l-2.4,0.8c-0.7-0.8-1.5-1.5-2.3-2.2l2.4-0.9C308.3,75.2,309.1,76,309.6,76.7z M312.2,91.2v-1.5H306v1.5
					H312.2z M312.2,94.6V93H306v1.6H312.2z M320.4,86.4h-14.2v-5.1h14.2V86.4z M318,84.6v-1.5h-9.5v1.5H318z M320.7,91.2v-1.5h-6.2
					v1.5H320.7z M320.7,94.6V93h-6.2v1.6H320.7z M321.7,75.4c-0.8,0.8-1.6,1.6-2.5,2.2l-2.3-1.1c0.9-0.5,1.8-1.2,2.6-2.1L321.7,75.4
					z"/>
				<path d="M350.4,97.6h-2.5v-1.8h-12.7v1.8h-2.6V74.9h17.7v22.7H350.4z M347.9,83.9v-6.6h-12.7v6.6H347.9z M347.9,93.5v-7.3h-12.7
					v7.3H347.9z"/>
			</g>
			<g>
				<path d="M250.9,111.5c-0.2,0.6-0.6,1.4-1.1,2.4l-0.7,1.4V130H248v-12.8c-0.8,1.1-1.7,2.3-2.9,3.4l-0.6-1.1
					c2.2-2.1,4-4.9,5.3-8.4L250.9,111.5z M263.6,129.5h-13.4v-1.1h5.8v-5.8h-4.8v-1.1h4.8v-5h-5.5v-1.1h5.7c-0.2-1-0.8-2.4-1.6-3.9
					l1.1-0.4c0.6,1.3,1.2,2.8,1.6,4.3h5.8v1.1H257v5h5.4v1.1H257v5.8h6.4v1.1H263.6z"/>
				<path d="M272.4,115.3c-0.2,0.7-0.5,1.5-0.9,2.6l-0.7,1.5v10.5h-1.1v-8.4c-0.7,1.1-1.5,2.2-2.4,3.1l-0.7-1c2-2.2,3.6-5,4.7-8.6
					L272.4,115.3z M284.9,115.6h-1.1v-1.8h-15.1v1.8h-1.2v-2.9h8.3c-0.1-0.4-0.3-0.9-0.6-1.6l1.1-0.3c0.3,0.6,0.6,1.2,0.8,1.8h7.8
					L284.9,115.6L284.9,115.6z M285.2,117.6h-5.5c-0.2,0.8-0.5,1.6-0.8,2.3h5.2V130h-1.2v-1.1h-7.8v1.1h-1.2v-10.1h3.8
					c0.3-0.7,0.5-1.5,0.7-2.3h-5.6v-1.1h12.3v1.1H285.2z M282.9,123.7v-2.8h-7.8v2.8H282.9z M282.9,127.8v-2.9h-7.8v2.9H282.9z"/>
				<path d="M307.2,116.9c0,0.8-0.1,1.4-0.2,1.9s-0.3,0.8-0.4,1c-0.2,0.2-0.4,0.3-0.6,0.3s-0.7,0-1.5,0v7.2h-8.9l0.6,0.7
					c-1.8,0.9-3.9,1.5-6.4,2l-0.6-1.1c2.3-0.3,4.3-0.8,6-1.6h-3.6v-6.4c-0.9,0.3-1.7,0.5-2.5,0.7l-0.5-1c2.7-0.6,4.5-1.5,5.5-2.8
					h-4.4l0.6-3.2h5c0.1-0.5,0.1-1,0.1-1.4h-6.3v-0.9h6.4c0-0.2,0-0.4,0-0.6s0-0.4,0-0.5h1.1c0,0.3,0,0.7,0,1.1h3.6v-1.2h1.1v1.1
					h5.1v3.3h-5.1v1.4H307.2z M295.2,115.5h-3.9l-0.2,1.4h3.7C294.9,116.5,295.1,116.1,295.2,115.5z M303.4,121.9v-1.3h-10.8v1.3
					H303.4z M303.4,124.1v-1.3h-10.8v1.3H303.4z M303.4,126.4V125h-10.8v1.4H303.4z M306,117.8h-4.8v1.3h-1.1v-1.3h-4.7
					c-0.5,0.7-1,1.4-1.6,1.8H304l-0.2-0.5h1.6c0.2,0,0.3-0.1,0.4-0.2C306,118.8,306,118.4,306,117.8z M300.1,116.9v-1.4h-3.8
					c-0.1,0.5-0.2,0.9-0.4,1.4H300.1z M300.1,114.6v-1.4h-3.6c0,0.4,0,0.9-0.1,1.4H300.1z M307.1,129l-0.5,1
					c-2.2-0.5-4.3-0.9-6.3-1.1l0.5-1.1C302.9,128.1,305,128.5,307.1,129z M305.2,114.6v-1.4h-4v1.4H305.2z"/>
				<path d="M318,129.6h-1.1v-1.9h-4.7v2.3h-1.1v-15.3h2c0.5-1,1.1-2.2,1.5-3.7l1.1,0.2c-0.3,0.8-0.7,1.9-1.5,3.5h3.7v14.9H318z
					 M316.9,120.5v-4.7h-4.7v4.7H316.9z M316.9,126.7v-5.1h-4.7v5.1H316.9z M328.8,114.7c-0.1,3.2-0.2,6.3-0.5,9
					c-0.2,2.8-0.5,4.4-0.7,4.9s-0.5,0.8-0.9,1.1c-0.4,0.2-1.1,0.3-2.1,0.3c-0.4,0-1,0-1.7,0l-0.3-1.1c0.6,0,1.2,0,1.9,0
					c0.6,0,1.1,0,1.2,0c0.2,0,0.4-0.1,0.6-0.3s0.3-0.4,0.4-0.6c0.1-0.2,0.2-1.1,0.3-2.5s0.3-3,0.3-4.8s0.2-3.4,0.2-5H322
					c-0.8,1.5-1.6,2.9-2.6,4.3l-0.9-0.6c1.9-2.5,3.2-5.3,4-8.3l1.1,0.3c-0.4,1.2-0.7,2.3-1.2,3.3
					C322.4,114.7,328.8,114.7,328.8,114.7z M324.8,124.4l-0.9,0.6c-0.7-1.6-1.7-3.3-3.1-5l0.9-0.6C323,121,324,122.7,324.8,124.4z"
					/>
				<path d="M342.1,129h-9.2v-1.6h3.7v-12.9l-3.8,1.2V114l5.6-1.7v15.2h3.7L342.1,129L342.1,129z"/>
				<path d="M344.6,121.1c0-2.9,0.5-5.1,1.4-6.6s2.3-2.2,4.1-2.2c3.4,0,5.1,2.8,5.1,8.4c0,2.7-0.5,4.8-1.4,6.3s-2.3,2.2-4.1,2.2
					c-1.7,0-2.9-0.7-3.8-2.1C345,125.7,344.6,123.7,344.6,121.1z M346.4,121c0,4.5,1.2,6.7,3.5,6.7s3.5-2.3,3.5-6.8
					c0-4.7-1.1-7.1-3.4-7.1C347.6,113.8,346.4,116.2,346.4,121z"/>
				<path d="M357.4,121.1c0-2.9,0.5-5.1,1.4-6.6s2.3-2.2,4.1-2.2c3.4,0,5.1,2.8,5.1,8.4c0,2.7-0.5,4.8-1.4,6.3s-2.3,2.2-4.1,2.2
					c-1.7,0-2.9-0.7-3.8-2.1C357.8,125.7,357.4,123.7,357.4,121.1z M359.2,121c0,4.5,1.2,6.7,3.5,6.7s3.5-2.3,3.5-6.8
					c0-4.7-1.1-7.1-3.4-7.1C360.4,113.8,359.2,116.2,359.2,121z"/>
				<path d="M375,120.8c-1.1,0-2-0.4-2.7-1.1s-1-1.7-1-3s0.4-2.4,1.1-3.2c0.7-0.8,1.7-1.2,2.9-1.2c1.1,0,2.1,0.4,2.7,1.1
					c0.7,0.7,1,1.7,1,3s-0.4,2.4-1.1,3.2C377.2,120.4,376.2,120.8,375,120.8z M375.2,113.6c-0.7,0-1.3,0.3-1.7,0.8
					c-0.4,0.5-0.6,1.3-0.6,2.2c0,0.9,0.2,1.7,0.6,2.2s1,0.8,1.7,0.8s1.3-0.3,1.8-0.8s0.6-1.3,0.6-2.2c0-0.9-0.2-1.7-0.6-2.2
					C376.5,113.8,375.9,113.6,375.2,113.6z M385.8,112.6L375.5,129H374l10.3-16.4C384.3,112.6,385.8,112.6,385.8,112.6z
					 M384.6,129.2c-1.1,0-2-0.4-2.7-1.1c-0.7-0.7-1-1.7-1-3s0.4-2.4,1.1-3.2s1.7-1.2,2.9-1.2c1.1,0,2,0.4,2.7,1.1s1,1.7,1,3
					s-0.4,2.4-1.1,3.2C386.8,128.8,385.8,129.2,384.6,129.2z M384.7,122c-0.7,0-1.3,0.3-1.8,0.8c-0.4,0.5-0.7,1.3-0.7,2.2
					c0,0.9,0.2,1.7,0.6,2.2s1,0.8,1.7,0.8s1.3-0.3,1.7-0.8s0.7-1.3,0.7-2.3c0-0.9-0.2-1.7-0.6-2.2C386.1,122.3,385.5,122,384.7,122z
					"/>
			</g>
		</g>
		<line class="st3" x1="236.5" y1="58.5" x2="236.5" y2="140"/>
	</g>
	<path class="st1" d="M0,33.8c2.3,0,4.1,1.8,4.1,4.1S2.3,42,0,42V33.8z"/>
</g>
</svg>
