<?xml version="1.0" encoding="utf-8"?>
<!-- Generator: Adobe Illustrator 22.0.1, SVG Export Plug-In . SVG Version: 6.00 Build 0)  -->
<svg version="1.1" id="圖層_1" xmlns="http://www.w3.org/2000/svg" xmlns:xlink="http://www.w3.org/1999/xlink" x="0px" y="0px"
	 viewBox="0 0 26 42" style="enable-background:new 0 0 26 42;" xml:space="preserve">
<g>
	<g>
		<path d="M9.2,15.3c-0.4,0.3-0.6,0.5-1,0.7c-1,0.5-1.6,1.3-2,2.4c-0.4,1-0.9,2-1.3,3c-0.3,0.7-0.7,1.5-1.1,2.2
			c-0.4,0.9-1.6,1.1-2.4,0.7c-0.8-0.4-1.2-1.4-0.8-2.3c0.7-1.6,1.5-3.3,2.3-4.9c0.3-0.7,0.6-1.4,1-2.1c0.2-0.3,0.4-0.6,0.6-0.8
			c2.1-1.5,4.1-3,6.3-4.4c1.1-0.7,2.3-0.7,3.4,0c1.1,0.7,1.5,1.7,1.4,3c-0.3,3.8-0.7,7.7-1,11.5c-0.1,0.6,0.1,1,0.4,1.5
			c2.9,4.1,5.8,8.3,8.7,12.4c0.9,1.3,0.4,2.7-0.7,3.2c-0.9,0.4-2,0.1-2.6-0.7c-1.6-2.3-3.2-4.6-4.9-6.9c-2.1-3.1-4.3-6.1-6.4-9.2
			c-0.5-0.7-0.7-1.4-0.6-2.2c0.2-2.3,0.4-4.5,0.6-6.8C9.2,15.6,9.2,15.5,9.2,15.3z"/>
		<path d="M8.6,27.4c0.3,0.4,0.6,0.8,0.9,1.2c0.5,0.7,0.9,1.3,1.4,2c0.2,0.3,0.2,0.5,0,0.7c-2.1,3-4.2,5.9-6.3,8.9
			c-0.3,0.4-0.5,0.8-0.9,1c-0.8,0.6-1.9,0.5-2.6-0.2c-0.7-0.7-0.8-1.8-0.3-2.6c0.9-1.3,1.8-2.6,2.7-3.9c1.4-2,2.8-3.9,4.2-5.9
			C7.9,28.3,8.2,27.9,8.6,27.4z"/>
		<path d="M18.7,4.3c0,2.2-1.7,3.9-3.9,3.9c-2.2,0-3.9-1.7-3.9-3.9c0-2.2,1.7-3.9,3.9-3.9C17,0.4,18.7,2.1,18.7,4.3z"/>
		<path d="M17.3,15.6c0.5,0.2,1,0.4,1.5,0.7c1.9,0.9,3.7,1.7,5.6,2.6c0.8,0.4,1.3,1.1,1.2,1.8c-0.1,0.9-0.7,1.6-1.6,1.7
			c-0.4,0-0.9-0.1-1.3-0.3c-1.2-0.5-2.5-1.1-3.7-1.7c-0.6-0.3-1.2-0.6-1.9-0.9c-0.1,0-0.2-0.2-0.2-0.3c0.1-1.1,0.2-2.3,0.3-3.4
			C17.2,15.7,17.2,15.6,17.3,15.6z"/>
	</g>
</g>
</svg>
